<?xml version="1.0" encoding="utf-8"?>
<!-- Generator: Adobe Illustrator 25.4.1, SVG Export Plug-In . SVG Version: 6.00 Build 0)  -->
<svg version="1.1" id="Layer_1" xmlns="http://www.w3.org/2000/svg" xmlns:xlink="http://www.w3.org/1999/xlink" x="0px" y="0px"
	 viewBox="0 0 147.2 296.5" style="enable-background:new 0 0 147.2 296.5;" xml:space="preserve">
<style type="text/css">
	.st0{fill:#95766D;}
	.st1{fill:#523839;}
	.st2{fill:#5E4B44;}
	.st3{fill:#F7F0EA;}
	.st4{fill:#E4DFDA;}
	.st5{fill:#331E1E;}
	.st6{fill:#A3A2A5;}
	.st7{fill:#79695D;}
	.st8{fill:#DBBDA5;}
	.st9{fill:#FFFFFF;}
	.st10{fill:#58453F;}
	.st11{clip-path:url(#SVGID_00000074424916623648352060000014526044675296272513_);}
	.st12{fill:#885A54;}
	.st13{fill:#3A0000;}
	.st14{clip-path:url(#SVGID_00000137111240012146802810000004236369258807387783_);}
	.st15{opacity:0.44;fill:#D8D9DA;}
	.st16{opacity:0.36;fill:#CEC9C6;}
</style>
<g>
	<g>
		<path class="st0" d="M66,100.5C66,100.5,65.9,100.5,66,100.5c-5.3-1.3-10.7-0.5-15.8,0.9c-3.2,0.9-6.3,1.9-9.4,2.9
			c-3.2,1-6.5,2.1-9.7,3.1c-3.5,1.1-7,2.2-10.7,2.5c-0.1-0.4-0.2-0.9-0.3-1.3c-0.6-2.3-1.2-4.6-1.6-7c-0.9-4.7-1.6-9.4-1.9-14.1
			c-0.1-0.9-0.1-1.9-0.2-2.8c-0.1-0.7-0.1-1.4-0.2-2.1c-0.1-1-0.2-2-0.3-3.1c0,0,0,0,0,0c-0.3-2.7-0.7-5.4-1.2-8.1
			c0-0.2-0.3,0-0.4,0.1c-0.3,0.4-0.5,0.7-0.7,1.1c-0.5-2.4-1.2-4.8-2.1-7.1c-0.2-0.4-0.3-0.9-0.8-1.1c-0.5-0.1-1,0.2-1.4,0.3
			c-0.5,0.2-1,0.5-1.4,0.8c-0.2-0.3-0.3-0.5-0.6-0.6c-0.5-0.2-1,0.4-1.4,0.7c-0.5,0.4-0.9,0.9-1.2,1.4c-0.7,1.1-1.3,2.2-1.7,3.4
			c-0.2,0.6-0.5,1.3-0.6,1.9c-0.1,0.7,0.1,1.3,0.4,1.8c0.6,1.1,1.4,2.3,2.6,2.8c-0.5,0.1-0.9,0.4-1.3,0.6c-0.1,0.1-0.3,0.3-0.1,0.4
			c1.2,0.4,2.5,1,3,2.2c0.6,1.3,0.3,2.7,0.1,4c0,0.2,0.1,0.2,0.2,0.1c0.5-0.2,1-0.2,1.5-0.1c0,4.9-0.6,9.8-1.2,14.7
			c-0.4,3-0.7,6-0.9,9C6.4,111,6.3,114,7,116.8c0.7,2.5,2.2,4.9,4.5,6.2c0.1,0,0.1,0,0.2,0c0.9,0.8,2,0.9,3.1,0.7
			c0.7-0.1,1.4-0.2,2.1-0.2c0.7,0,1.4,0.1,2.1,0.1c1.4,0.1,2.9,0.2,4.3,0.3c2.9,0.2,5.8,0.5,8.7,0.7c2.8,0.3,5.6,0.5,8.5,0.6
			c2.8,0.1,5.6,0,8.3-0.5c0.1-0.1,0.1-0.2,0.2-0.2c0.1-0.2,0.3-0.4,0.4-0.6c3.8-6.4,8.1-12.5,12.7-18.3c1.2-1.5,2.4-3,3.7-4.4
			c0.1-0.2,0.2-0.4,0.3-0.6C66.1,100.6,66,100.6,66,100.5z"/>
		<path class="st1" d="M5.1,76.4C5.1,76.4,5.1,76.4,5.1,76.4c-0.7-0.5-1.2-1.1-1.6-1.8c-0.3-0.5-0.6-1-0.8-1.5
			c-0.2-0.7,0.1-1.3,0.3-1.9c0.4-1,0.8-2.1,1.3-3.1c0.3-0.5,0.6-1,0.9-1.4c0.3-0.4,0.7-0.9,1.2-1.2c0.2-0.2,0.5-0.1,0.6,0.1
			c0.2,0.1,0.4,0.3,0.5,0.5C7.8,66.4,8,66.7,8.1,67c0.2,0.3,0.3,0.6,0.5,0.9c0.1,0.1,0.1,0.2,0.2,0.3c-0.2-0.7-0.4-1.3-0.6-1.9
			c-0.1-0.1-0.1-0.3-0.2-0.4c0.4-0.3,0.9-0.5,1.3-0.7C9.5,65.1,9.7,65,10,65c0.4-0.1,0.6,0,0.8,0.4c0.2,0.4,0.4,1,0.6,1.4
			c0.8,2.1,1.4,4.3,1.8,6.5c0,0,0,0,0,0c-0.2,0.4-0.5,0.9-0.7,1.3c-0.2-1.1-0.3-2.2-0.6-3.4c0-0.2-0.3,0-0.4,0.1
			c-1.1,1.4-2,2.8-2.8,4.4c-0.7-0.6-1.4-1-2.3-1.3c-0.2-0.1-0.5,0.2-0.4,0.4c0.3,0.7,0.6,1.4,0.8,2.1c-0.3,0-0.5,0-0.8,0
			c0,0-0.1,0-0.1-0.1c-0.2-0.1-0.4-0.2-0.6-0.4C5.2,76.5,5.2,76.5,5.1,76.4z"/>
		<path class="st2" d="M13.1,73.3c-0.4-2.2-1-4.4-1.8-6.5c-0.2-0.5-0.3-1-0.6-1.4C10.6,65,10.3,64.9,10,65c0,0,0,0-0.1,0
			c0.3,1,0.5,2.1,0.6,3.1c0.2,1.6,0.1,3.2-0.1,4.7c0.3-0.5,0.7-1,1.1-1.5c0.1-0.1,0.3-0.3,0.4-0.1c0.2,1.1,0.4,2.2,0.6,3.4
			C12.6,74.2,12.9,73.7,13.1,73.3C13.1,73.3,13.1,73.3,13.1,73.3z"/>
		<path class="st3" d="M52.2,118.8c-1.2,1.8-2.3,3.6-3.4,5.4c0,0,0,0.1,0,0.1c-5.1,0.8-10.2,0.4-15.3-0.1c-2.8-0.3-5.6-0.5-8.4-0.7
			c-1.4-0.1-2.8-0.2-4.2-0.3c-1.4-0.1-2.8-0.3-4.2-0.2c-1.4,0.1-3,0.8-4.3-0.2c-0.2-0.2-0.4-0.3-0.6-0.5c-0.5-0.4-0.9-0.8-1.2-1.3
			c-0.1-0.2-0.2-0.3-0.3-0.5c0.2,0.5,0.3,1,0.6,1.4c-1.5-1.2-2.6-3-3.2-4.8c-0.9-2.7-0.8-5.7-0.7-8.5c0.3-5.9,1.4-11.7,1.9-17.5
			c0.2-1.8,0.3-3.5,0.3-5.3C9.1,85.4,9,85,9,84.7c-0.1-0.9-0.1-1.9-0.4-2.8c0,0.7,0.1,1.4,0.1,2c-0.4-0.1-0.9,0-1.3,0.1
			c0.2-1.3,0.4-2.7-0.2-4c-0.5-1.2-1.6-1.8-2.8-2.2c0.4-0.2,0.8-0.3,1.2-0.4c0,0,0.1,0,0.1,0.1c0.3,0,0.6-0.1,1-0.1
			c0.1,0,0.3,0,0.5-0.1c0.1-0.1,0.2-0.2,0.1-0.3c-0.2-0.6-0.4-1.3-0.6-1.9c0.6,0.3,1.2,0.7,1.8,1.2c0.1,0.1,0.3-0.1,0.4-0.2
			c0.7-1.5,1.6-2.9,2.6-4.2c0.2,1.2,0.4,2.4,0.6,3.5c0,0.3,0.4,0,0.4-0.1c0.5-1.1,1.1-2.1,1.7-3.1c0.5,2.8,0.9,5.5,1.2,8.3
			c0.3,1.7,0.5,3.3,0.6,5c0,1.2,0.1,2.4,0.1,3.6c0.1,1.5,0.3,3.1,0.5,4.6c0.6,4.6,1.4,9.2,2.6,13.7c0.6,2.2,1.5,4.7,0.5,6.9
			c0.2-0.2,0.4-0.4,0.6-0.6c0.3-1.1,0.3-2.2,0.1-3.3c3.1-0.3,6.1-1.1,9-2c3.2-1,6.4-2.1,9.6-3.1c3.2-1,6.3-2.1,9.5-3
			c3.1-0.9,6.3-1.6,9.5-1.9c2.6-0.2,5.2-0.1,7.6,0.5C60.8,106.6,56.2,112.5,52.2,118.8z"/>
		<path class="st4" d="M58,100.4c-2.5,0.2-4.9,0.6-7.2,1.3c-1.7,1.6-3.2,3.3-4.6,5.1c-1.1,1.4-2.3,2.8-3.5,4.2
			c-1.1,1.4-2.3,2.7-3.7,3.8c-1.3,1.1-2.8,1.9-4.4,2.4c-1.5,0.4-3,0.7-4.5,0.8c-1.6,0.1-3.3,0.1-4.8-0.2c-1.4-0.3-2.9-0.7-3.8-1.8
			c-0.6-0.7-0.9-1.4-1.1-2.2c-0.2,0.2-0.4,0.4-0.6,0.6c0.3-0.6,0.4-1.3,0.4-2c0-0.4-0.1-0.9-0.1-1.3c-0.2-1.2-0.5-2.5-0.8-3.6
			c-1.2-4.5-2-9.1-2.6-13.7c-0.2-1.5-0.3-3.1-0.5-4.6c0-1.2-0.1-2.4-0.1-3.6c0-1.7-0.2-3.4-0.6-5c-0.3-2.8-0.7-5.6-1.2-8.3
			c-0.7,1-1.3,2-1.7,3.1c-0.1,0.1-0.4,0.4-0.4,0.1c-0.1-1.2-0.3-2.4-0.6-3.5c-1,1.3-1.9,2.7-2.6,4.2c-0.1,0.1-0.3,0.3-0.4,0.2
			c-0.5-0.5-1.1-0.9-1.8-1.2c0.2,0.6,0.5,1.3,0.6,1.9c0,0.1,0,0.2-0.1,0.3c-0.2,0-0.3,0-0.5,0.1c-0.3,0-0.6,0.1-1,0.1
			c0,0-0.1,0-0.1-0.1c-0.1,0-0.2,0-0.3,0.1c1.6,0.5,3,1.7,4,3c0.2-1.4,0.8-2.8,1.5-4.1c0.1-0.2,0.5-0.1,0.5,0.1
			c0,1.7-0.1,3.5-0.2,5.2c0.4-1.2,0.9-2.3,1.5-3.4c0.2-0.3,0.6-0.1,0.5,0.2c-0.4,2.9-0.6,5.8-0.5,8.7c0.1,2.5,0.3,5,0.8,7.5
			c0.4,2.5,1.1,4.9,1.8,7.4c1.1,4,2.5,8.7,0.2,12.6c-0.1,0.2-0.4,0.2-0.5,0c-0.5-1-0.7-2-1.1-3c0.2,1.4,0.3,2.9-0.1,4.2
			c-0.3,0.9-0.9,1.5-1.7,1.9c-0.8,0.4-1.8,0.3-2.5-0.2c-0.6-0.5-1.1-1.2-1.5-1.9c-0.4-0.6-0.7-1.2-1-1.9c0.1,1.1,0.3,2.1,0.6,3.1
			c0.6,1.9,1.7,3.6,3.2,4.8c-0.3-0.5-0.4-0.9-0.6-1.4c0.1,0.2,0.2,0.3,0.3,0.5c0.3,0.5,0.7,1,1.2,1.3c0.2,0.2,0.3,0.4,0.6,0.5
			c1.3,0.9,2.9,0.2,4.3,0.2c1.4-0.1,2.8,0.1,4.2,0.2c1.4,0.1,2.8,0.2,4.2,0.3c2.8,0.2,5.6,0.5,8.4,0.7c5.1,0.5,10.2,0.9,15.3,0.1
			c0,0,0-0.1,0-0.1c1.1-1.8,2.2-3.6,3.4-5.4c4.1-6.3,8.6-12.2,13.5-17.9C63.2,100.3,60.6,100.2,58,100.4z"/>
		<path class="st4" d="M18.1,120.2c-0.3-1.2-0.1-2.3,0.2-3.4c0.3-1.4,0.8-2.7,1-4.1c0.2-1.3,0.2-2.7,0.2-4.1
			c-0.1-0.4-0.2-0.8-0.3-1.2c-0.1-0.4-0.2-0.8-0.3-1.1c-0.1,1.3-0.3,2.7-0.5,4c-0.4,2.6-1,5.3-2.1,7.7c-0.4,0.9-1,1.8-2,2.3
			c-0.8,0.4-1.6,0.4-2.5,0.2c-1.5-0.4-2.8-1.3-3.8-2.5c0.6,1.5,1.6,2.9,2.9,3.9c-0.3-0.5-0.4-0.9-0.6-1.4c0.1,0.2,0.2,0.3,0.3,0.5
			c0.3,0.5,0.7,1,1.2,1.3c0.2,0.2,0.3,0.4,0.6,0.5c1.3,0.9,2.9,0.2,4.3,0.2c1.1,0,2.2,0,3.3,0.1C19.1,122.4,18.4,121.5,18.1,120.2z"
			/>
		<path class="st4" d="M58,100.4c-0.9,0.1-1.8,0.2-2.7,0.3c-0.6,0.5-1.2,1-1.8,1.6c-1.8,1.8-3.6,3.6-5.2,5.6c-1.9,2.3-3.6,4.9-5,7.5
			c-1.6,3-2.9,6.1-4,9.3c3.2,0.2,6.3,0.1,9.4-0.4c0,0,0-0.1,0-0.1c1.1-1.8,2.2-3.6,3.4-5.4c4.1-6.3,8.6-12.2,13.5-17.9
			C63.2,100.3,60.6,100.2,58,100.4z"/>
	</g>
	<g>
		<g>
			<path class="st5" d="M40.8,277.8c-1.2-0.4-2.5-0.2-3.7,0.1c-2.4,0.5-4.8,1.9-5.8,4.3c-0.9,1.5-1.6,3.2-1.9,5
				c-0.2,0.8-0.4,1.8,0.6,2.2c0.6,0.2,1.3,0.4,1.9,0.2c0.4,0.4,0.9,0.4,1.4,0.3c1.3-0.2,2.6-0.5,3.8-1c1.1-0.5,2.1-1.1,2.9-2
				c1.5-1.8,2.5-4.3,2.5-6.6C42.5,279.1,41.9,278.2,40.8,277.8z"/>
			<path class="st1" d="M40.3,286c-0.6,0.9-1.4,1.6-2.4,2.1c-1,0.5-2.1,0.9-3.2,1.1c-0.5,0.1-1.2,0.3-1.7,0.2
				c-0.1,0-0.2,0.1-0.3,0.1c-0.6,0-0.6-0.7-0.5-1.2c0-0.2,0-0.3,0.1-0.5c0-0.1,0.1-0.2,0.1-0.3c0.1-0.6,0.2-1.3,0.3-1.9
				c0.1-0.5,0.3-1.1,0.3-1.6c0,0-0.1,0.1-0.1,0.1c-0.5,1.3-0.8,2.7-1.1,4c-0.1,0.4-0.1,0.8,0,1.1c-0.2,0-0.3,0-0.5,0
				c-0.4-0.1-0.9-0.2-1.2-0.4c-0.3-0.3-0.3-0.7-0.3-1.1c0.1-0.5,0.1-0.9,0.3-1.4c0.2-1,0.6-1.9,1-2.8c0.1-0.3,0.2-0.5,0.3-0.8
				c0.3-0.7,0.6-1.4,1.1-1.9c0.9-1.2,2.4-2,3.9-2.4c1.1-0.3,2.3-0.5,3.4-0.4c1,0.1,2,0.7,2.3,1.8c0.2,1,0,2.3-0.3,3.3
				C41.4,284.1,40.9,285.1,40.3,286z"/>
			<path class="st1" d="M42,279.8c-0.2-1-1.3-1.6-2.3-1.8c-1.1-0.1-2.3,0.1-3.4,0.4c-1.5,0.4-2.9,1.2-3.9,2.4
				c-0.5,0.5-0.8,1.2-1.1,1.9c-0.1,0.3-0.2,0.5-0.3,0.8c-0.3,0.6-0.6,1.3-0.8,2c0.1-0.1,0.2-0.2,0.4-0.3c0.7-0.4,1.4-0.7,2.2-0.9
				c0-0.1,0.1-0.2,0.1-0.3c0,0,0-0.1,0.1-0.1c0,0.1,0,0.3-0.1,0.4c0.4-0.1,0.8-0.2,1.3-0.2c0.9,0,1.9,0.2,2.5,0.9
				c0.6,0.7,0.8,1.6,1,2.5c0,0.2,0.1,0.4,0.1,0.7c0.1,0,0.2-0.1,0.3-0.1c1-0.5,1.7-1.2,2.4-2.1c0.6-0.9,1.1-1.9,1.4-2.9
				C42,282.1,42.2,280.8,42,279.8z"/>
			<path class="st1" d="M33,280.3c-0.2,0.2-0.4,0.4-0.5,0.6c-0.5,0.5-0.8,1.2-1.1,1.9c-0.1,0.3-0.2,0.5-0.3,0.8
				c-0.4,0.9-0.8,1.8-1,2.8c-0.1,0.4-0.2,0.9-0.3,1.4c0,0.4,0,0.8,0.2,1C30.7,285.8,31.9,283.1,33,280.3z"/>
		</g>
		<g>
			<g>
				<path class="st3" d="M106.6,186.1l-44.5,7.3c0,0,2.7,4.9-5.7,18.8C48,226.2,47.7,235,47.7,235s-4.6,5.2-2.8,10.2
					c0,0-15.3,36.4-15.1,38.2c1-1,5.9-1.9,6.5-3.2c0.1-0.2,0.8,2.7,1,3.5c0.5-1,1.7-3.2,2-4.2c0-0.1,2.3,4,3.4,4
					c-0.2-1-1.1-5-0.9-4.8c0.8,0.7,1.7,2.3,2.3,3c0,0-0.6-1.6-0.6-1.7c-0.3-1.2-0.7-2.5-0.9-3.8c-0.1-0.9,0-1.7,0.3-2.5
					c1.6-5.7,10.6-20.8,14-24.1c4-3.9,0.6-7,0.6-7c-2.3-1.9-1.6-9.6,20.1-26.4c21.7-16.8,29.7-28,29.7-28L106.6,186.1z"/>
				<path class="st0" d="M37.3,283.9C37.3,283.9,37.3,283.9,37.3,283.9c-0.1,0-0.2-0.1-0.2-0.2c-0.2-0.7-0.6-2.4-0.8-3.1
					c-0.6,0.6-2,1.1-3.5,1.6c-1.2,0.4-2.4,0.8-2.8,1.2c-0.1,0.1-0.2,0.1-0.2,0.1c-0.1,0-0.1-0.1-0.2-0.2
					c-0.2-1.8,13.3-34.2,15.1-38.3c-1.6-4.8,2.3-9.6,2.9-10.3c0-0.4,0.2-2.6,1.2-6.1c1-3.6,3.2-9.4,7.5-16.6
					c8.2-13.6,5.7-18.6,5.7-18.6c0-0.1,0-0.1,0-0.2c0-0.1,0.1-0.1,0.2-0.1l44.5-7.3c0.1,0,0.2,0,0.2,0.1l0.8,2c0,0.1,0,0.2,0,0.2
					c-0.1,0.1-8.2,11.5-29.7,28.1c-6.2,4.8-20.8,16.8-20.9,23.8c0,1.2,0.4,1.9,0.8,2.2c0.1,0.1,1.4,1.3,1.4,3.2c0,1.4-0.7,2.8-2,4.1
					c-3.3,3.2-12.3,18.3-14,24c-0.3,0.9-0.4,1.7-0.3,2.4c0.1,0.8,0.3,1.7,0.6,2.5c0.1,0.4,0.2,0.8,0.3,1.3c0,0,0.1,0.4,0.3,0.8
					c0.3,0.8,0.3,0.8,0.3,0.8c0,0.1,0,0.2-0.1,0.3c-0.1,0-0.2,0-0.3-0.1c-0.2-0.3-0.5-0.7-0.8-1.1c-0.3-0.5-0.7-1-1-1.4
					c0.1,0.7,0.4,1.7,0.5,2.5c0.1,0.6,0.3,1.2,0.3,1.5c0,0,0,0.1,0,0.1c0,0.1-0.1,0.2-0.2,0.2h0c-0.9,0-2.1-1.7-3.3-3.5
					c0,0-0.1-0.1-0.1-0.1c-0.3,0.8-0.9,1.9-1.3,2.8c-0.2,0.4-0.4,0.8-0.6,1.1C37.5,283.9,37.4,283.9,37.3,283.9z M39.4,279.2
					c0.1,0,0.2,0,0.5,0.6c0.5,0.7,1.8,2.7,2.6,3.2c-0.1-0.3-0.2-0.7-0.3-1.2c-0.7-3.3-0.7-3.3-0.6-3.4c0.1-0.1,0.3-0.1,0.3,0
					c0.5,0.4,1,1.1,1.4,1.8c-0.1-0.2-0.1-0.2-0.1-0.3c-0.1-0.4-0.2-0.8-0.3-1.2c-0.2-0.8-0.5-1.7-0.6-2.6c-0.1-0.8,0-1.7,0.3-2.7
					c1.7-5.9,10.7-20.9,14.1-24.2c1.3-1.2,1.9-2.5,1.9-3.8c0-1.7-1.3-2.8-1.3-2.8c-0.5-0.4-1-1.1-1-2.5c0.1-3,2.9-10.1,21.1-24.2
					c20.4-15.7,28.7-26.7,29.6-27.9l-0.7-1.7l-44,7.3c0.5,1.2,1.6,6.6-5.8,18.8C48.4,226.1,48,234.9,48,235c0,0.1,0,0.1-0.1,0.1
					c0,0.1-4.5,5.1-2.8,10c0,0.1,0,0.1,0,0.2c-5.7,13.7-14.1,34.1-15,37.6c0.6-0.3,1.5-0.7,2.5-1c1.5-0.5,3.2-1.1,3.5-1.8
					c0-0.1,0.1-0.1,0.2-0.1c0.1,0,0.4,0,1.1,3c0.1-0.2,0.2-0.4,0.3-0.5c0.6-1,1.2-2.3,1.4-3.1C39.2,279.3,39.3,279.2,39.4,279.2z"/>
			</g>
			<g>
				<path class="st6" d="M62.1,193.4c0,0,2.7,4.9-5.7,18.8C48,226.2,47.7,235,47.7,235s-3.5,3.9-3.2,8.2c0.2,0.6,0.3,1.2,0.4,1.9
					c0.4-0.8,0.4-2.1,0.6-2.8c0.2-1,0.4-2,0.8-2.9c0.6-1.4,1.4-2.7,2.6-3.6c1-0.8,2.3-1.1,3.4-1.7c-1.2-0.1-2.5,0-3.4,0.9
					c-0.1,0.1-0.4,0-0.4-0.2c-0.2-3.5,1.1-6.9,2.7-10c1.7-3.3,3.6-6.5,5.2-9.8c1.9-3.9,4-7.8,5.4-11.9c1.1-3.2,1.7-6.5,2-9.9
					L62.1,193.4z"/>
			</g>
			<g>
				<path class="st6" d="M36.3,267.6c1.8-4.6,3.7-9.1,5.6-13.7c0.9-2.1,2-4.3,2.5-6.5c0.1-0.4,0.1-0.8,0.1-1.2
					c-2,4.7-10.3,24.7-13.4,33.3C33.3,275.8,34.7,271.7,36.3,267.6z"/>
			</g>
			<g>
				<path class="st4" d="M44.6,245.9c1.7,0.3,3.6-0.2,5-1.4c-1.7-1.2-3.8-3.2-4.4-5.3c-0.7,1.8-1.1,3.9-0.3,6
					C44.9,245.2,44.8,245.4,44.6,245.9z"/>
			</g>
			<g>
				<path class="st4" d="M106.6,186.1l-44.5,7.3c0,0,2.4,4.3-4.1,16.2c1.1-1,2.4-2,3.7-2.7c1.7-1,3.4-1.5,5.4-1.2
					c1.7,0.3,3.5,1.1,4.5,2.6c1.1,1.7,0.9,3.7-0.3,5.3c-0.8,1-1.9,1.8-2.7,2.9c-1.1,1.3-2.3,2.5-3.4,3.8c-2.3,2.6-4.4,5.4-6.4,8.2
					c-1.9,2.6-3.6,5.5-4.2,8.7c0,0.1-0.2,0.2-0.3,0.1c-1.1-0.7-2.2-1.4-3.5-1.6c1.8,2.6,3,5.6,2.1,8.8c-1,3.6-3.3,6.7-5.3,9.9
					c-4.2,6.9-7.5,14.1-8.1,22.3c0,0.2-0.2,0.3-0.4,0.2c-0.6-0.6-1.1-1.3-1.6-2c0,1,0.1,1.9,0.1,2.9c0,0.2-0.3,0.3-0.4,0.1
					c-0.7-0.9-1-2.1-1.6-3.1c-0.9,2.6-2.3,4.9-4.2,7c-0.4,0.4-0.8,0.9-1.3,1.5c1.4-0.9,5.7-1.8,6.2-3c0.1-0.2,0.8,2.7,1,3.5
					c0.5-1,1.7-3.2,2-4.2c0-0.1,2.3,4,3.4,4c-0.2-1-1.1-5-0.9-4.8c0.8,0.7,1.7,2.3,2.3,3c0,0-0.6-1.6-0.6-1.7
					c-0.3-1.2-0.7-2.5-0.9-3.8c-0.1-0.9,0-1.7,0.3-2.5c1.6-5.7,10.6-20.8,14-24.1c4-3.9,0.6-7,0.6-7c-2.3-1.9-1.6-9.6,20.1-26.4
					c21.7-16.8,29.7-28,29.7-28L106.6,186.1z"/>
			</g>
		</g>
	</g>
	<g>
		<g>
			<path class="st5" d="M115.1,278.6c-1.2-0.2-2.5,0.3-3.6,0.7c-2.3,1-4.4,2.7-4.9,5.3c-0.7,1.7-1,3.5-1,5.3c0,0.8,0,1.9,1,2.1
				c0.6,0.1,1.3,0.1,1.9-0.2c0.4,0.3,1,0.2,1.5,0c1.2-0.4,2.4-1,3.5-1.7c1-0.7,1.9-1.4,2.5-2.5c1.2-2,1.7-4.6,1.3-7
				C117,279.6,116.2,278.8,115.1,278.6z"/>
			<path class="st1" d="M116,286.8c-0.5,1-1.1,1.8-2,2.5c-0.9,0.7-1.9,1.2-3,1.7c-0.5,0.2-1.1,0.5-1.7,0.5c-0.1,0.1-0.2,0.1-0.3,0.1
				c-0.6,0.1-0.7-0.6-0.7-1.1c0-0.2,0-0.4,0-0.5c0-0.1,0-0.2,0-0.3c0-0.6-0.1-1.3-0.1-1.9c0-0.5,0.1-1.1,0-1.7c0,0,0,0.1,0,0.1
				c-0.2,1.4-0.3,2.8-0.4,4.1c0,0.4,0,0.8,0.2,1.1c-0.2,0-0.3,0.1-0.5,0.1c-0.4,0-0.9,0-1.2-0.2c-0.4-0.2-0.4-0.6-0.5-1
				c0-0.5,0-0.9,0-1.4c0.1-1,0.2-2,0.5-2.9c0.1-0.3,0.1-0.5,0.2-0.8c0.2-0.7,0.4-1.5,0.8-2.1c0.7-1.4,2-2.4,3.4-3.1
				c1-0.5,2.1-0.9,3.3-1c1-0.1,2.1,0.3,2.5,1.3c0.4,1,0.4,2.2,0.3,3.3C116.7,284.7,116.5,285.8,116,286.8z"/>
			<path class="st1" d="M116.6,280.4c-0.4-1-1.5-1.4-2.5-1.3c-1.1,0.1-2.3,0.5-3.3,1c-1.4,0.7-2.7,1.7-3.4,3.1
				c-0.4,0.6-0.6,1.3-0.8,2.1c-0.1,0.3-0.1,0.5-0.2,0.8c-0.2,0.7-0.3,1.4-0.4,2.1c0.1-0.1,0.2-0.2,0.3-0.3c0.6-0.5,1.2-1,2-1.3
				c0-0.1,0-0.2,0-0.3c0,0,0-0.1,0-0.1c0,0.1,0,0.3,0,0.4c0.4-0.2,0.8-0.3,1.2-0.4c0.9-0.2,1.9-0.1,2.6,0.5c0.7,0.6,1.1,1.4,1.4,2.3
				c0.1,0.2,0.1,0.4,0.2,0.6c0.1-0.1,0.2-0.1,0.2-0.2c0.9-0.7,1.5-1.5,2-2.5c0.5-1,0.7-2,0.8-3.1C117,282.6,117,281.4,116.6,280.4z"
				/>
			<path class="st1" d="M107.8,282.5c-0.1,0.2-0.3,0.4-0.4,0.7c-0.4,0.6-0.6,1.3-0.8,2.1c-0.1,0.3-0.1,0.5-0.2,0.8
				c-0.3,0.9-0.4,1.9-0.5,2.9c0,0.5,0,0.9,0,1.4c0,0.4,0.1,0.8,0.4,1C106.5,288.3,107.2,285.4,107.8,282.5z"/>
		</g>
		<g>
			<g>
				<path class="st3" d="M123.1,189.8c-2.3,1.4-22.3,13.7-25.1,15c0.4,2.7,0.6,6.1,0.4,10.4c-0.8,16.3,3.2,24.1,3.2,24.1
					s-1.6,6.7,2.4,10.3c0,0,2,22,2.2,32.2c0,0.1,0,0.3-0.1,0.4c-0.2,1.7-0.3,3.5-0.9,5.1c0,0.1,0,0.4,0.2,0.3c0.6-0.4,1.1-1,1.6-1.6
					c0.3-0.4,0.6-0.7,0.9-1.1c0.1-0.1,0.1-0.2,0.2-0.3c-0.2,0.6-0.4,1.1-0.6,1.7c-0.1,0.3,0.1,0.4,0.3,0.2c1.2-1.4,1.6-2.9,2.2-4.5
					c0.1,0.6,0.3,1.3,0.5,1.9c0.1,0.4,0.2,1.1,0.5,1.5c0.2,0.2,0.4-0.1,0.4-0.3c0.3-1.3,0.4-2.8,0.5-4.2c0.6,0.5,0.9,1.3,1.5,1.7
					c0.7,0.6,1.5,1.3,2.4,1.4c0.2,0,0.4-0.2,0.4-0.4c0-0.5-0.3-1-0.4-1.5c-0.1-0.4-0.2-0.8-0.3-1.2c0.9,0.8,2,1.3,3.1,1.4
					c0.2,0,0.4-0.3,0.4-0.5c-0.3-0.9-1.1-1.5-1.5-2.4c-0.6-1.1-1-2.5-1.4-3.7c-0.5-1.2-1.1-2.7-1.2-4c0-0.5-0.1-1-0.2-1.6
					c-0.2-7,1.1-19,2.3-22.8c1.7-5.4-2.8-6.4-2.8-6.4C110.8,240.7,121,194.5,123.1,189.8z"/>
				<path class="st0" d="M105.1,288c-0.1,0-0.2-0.1-0.3-0.1c-0.1-0.1-0.1-0.3,0-0.5c0.4-1.2,0.6-2.5,0.7-3.8c0-0.4,0.1-0.8,0.2-1.2
					l0.1-0.4c-0.2-9.8-2-30.5-2.2-32.1c-3.7-3.5-2.6-9.6-2.4-10.4c-0.2-0.4-1.1-2.3-1.9-5.9c-0.8-3.7-1.7-9.8-1.3-18.2
					c0.2-3.9,0.1-7.4-0.4-10.4c0-0.1,0-0.2,0.1-0.2c2.8-1.4,22.5-13.4,25.1-15c0.1-0.1,0.2,0,0.3,0c0.1,0.1,0.1,0.2,0.1,0.3
					c-2.3,5.2-11.3,47.6-9.6,51c0,0.1,0.1,0.1,0.1,0.1c0.1,0,1.8,0.4,2.8,2.1c0.7,1.2,0.8,2.8,0.2,4.6c-1.1,3.7-2.5,15.6-2.3,22.8
					c0.1,0.5,0.1,1,0.2,1.6c0.1,1,0.5,2.1,0.9,3.2c0.1,0.2,0.2,0.5,0.3,0.7c0.1,0.3,0.2,0.7,0.4,1.1c0.3,0.9,0.6,1.8,1.1,2.6
					c0.2,0.3,0.4,0.6,0.6,0.9c0.4,0.5,0.8,0.9,0.9,1.5c0,0.2,0,0.4-0.1,0.5c-0.1,0.2-0.3,0.3-0.5,0.3l0,0c-1.1,0-2-0.5-2.7-1
					c0,0.2,0.1,0.3,0.1,0.5c0,0.2,0.1,0.4,0.2,0.6c0.1,0.3,0.2,0.6,0.3,1c0,0.2-0.1,0.4-0.2,0.5c-0.1,0.1-0.2,0.2-0.4,0.2
					c0,0-0.1,0-0.1,0c-0.9-0.1-1.7-0.8-2.5-1.5c-0.3-0.2-0.5-0.6-0.7-0.9c-0.1-0.2-0.3-0.4-0.4-0.5c-0.1,1.3-0.2,2.6-0.5,3.7
					c0,0.2-0.2,0.5-0.5,0.5c-0.1,0-0.2,0-0.3-0.1c-0.3-0.3-0.4-0.8-0.5-1.2c0-0.1-0.1-0.3-0.1-0.4c-0.1-0.4-0.2-0.8-0.4-1.1
					c-0.4,1.4-0.9,2.7-2,3.9c-0.1,0.2-0.3,0.2-0.4,0.2c-0.1,0-0.2-0.1-0.3-0.2c-0.1-0.1-0.1-0.3,0-0.5c0.1-0.2,0.1-0.3,0.2-0.5
					c0,0,0,0,0-0.1c-0.1,0.1-0.2,0.2-0.3,0.4l-0.2,0.3c-0.4,0.5-0.8,1-1.4,1.4C105.3,288,105.2,288,105.1,288z M98.2,205
					c0.4,3,0.5,6.4,0.4,10.3c-0.8,16,3.1,23.9,3.1,24c0,0,0,0.1,0,0.2c0,0.1-1.5,6.6,2.3,10.1c0,0,0.1,0.1,0.1,0.1
					c0,0.2,2,22.1,2.2,32.2l-0.1,0.5c-0.1,0.4-0.1,0.8-0.2,1.2c-0.2,1.3-0.3,2.6-0.7,3.8c0.4-0.3,0.8-0.7,1.1-1.1l0.2-0.3
					c0.1-0.2,0.3-0.3,0.4-0.5c0.2-0.2,0.3-0.4,0.5-0.6c0.1-0.1,0.1-0.1,0.2-0.2c0.1-0.1,0.2-0.1,0.3-0.1c0.1,0,0.2,0.2,0.1,0.3
					c-0.1,0.4-0.3,0.8-0.4,1.2c0,0.1-0.1,0.2-0.1,0.3c1-1.2,1.4-2.5,1.8-3.8l0.1-0.4c0-0.1,0.1-0.2,0.2-0.2c0.1,0,0.2,0.1,0.2,0.2
					c0.1,0.6,0.3,1.3,0.5,1.9c0,0.1,0.1,0.3,0.1,0.4c0.1,0.3,0.2,0.7,0.3,0.9c0,0,0-0.1,0-0.1c0.3-1.2,0.4-2.7,0.5-4.1
					c0-0.1,0.1-0.2,0.1-0.2c0.1,0,0.2,0,0.2,0c0.3,0.3,0.6,0.6,0.8,1c0.2,0.3,0.4,0.6,0.7,0.8c0.7,0.6,1.5,1.2,2.3,1.4
					c0,0,0.1-0.1,0.1-0.2c0-0.3-0.1-0.5-0.2-0.8c-0.1-0.2-0.2-0.4-0.2-0.6c-0.1-0.3-0.2-0.7-0.3-1l-0.1-0.2c0-0.1,0-0.2,0.1-0.3
					c0.1-0.1,0.2,0,0.3,0c0.7,0.6,1.8,1.3,3,1.3c0,0,0,0,0.1-0.1c0,0,0-0.1,0-0.1c-0.2-0.5-0.5-0.9-0.9-1.4
					c-0.2-0.3-0.5-0.6-0.7-0.9c-0.5-0.8-0.8-1.8-1.1-2.7c-0.1-0.4-0.2-0.7-0.4-1c-0.1-0.2-0.2-0.5-0.3-0.7c-0.4-1-0.9-2.2-1-3.3
					c0-0.5-0.1-1-0.2-1.5c-0.2-7.3,1.1-19.3,2.3-22.9c0.5-1.7,0.5-3.1-0.1-4.2c-0.8-1.5-2.5-1.9-2.5-1.9c-0.2,0-0.3-0.2-0.4-0.4
					c-2-3.8,7-44,9.3-50.8C118.6,192.9,101.3,203.4,98.2,205z"/>
			</g>
			<g>
				<path class="st6" d="M105,259.7c-0.2-2.9-0.5-5.8-0.6-8.7c-0.2-0.1-0.3-0.3-0.5-0.4c0.2,2.6,0.9,10.4,1.4,18.1c0,0,0,0,0,0
					C105.3,265.7,105.2,262.7,105,259.7z"/>
			</g>
			<g>
				<path class="st6" d="M102.5,248.1c-0.2-0.5-0.3-1-0.4-1.5c-0.4-2-0.6-4.2-0.2-6.2c0-0.1,0.2-0.2,0.3-0.2
					c0.5,0.2,1.1,0.3,1.6,0.3c-1.6-1.9-3.1-3.5-3.6-6.2c-0.6-3.5-0.7-7.1-0.6-10.7c0.1-6.4,0.7-13-0.9-19.2
					c-0.3,0.2-0.6,0.3-0.8,0.4c0.4,2.7,0.6,6.1,0.4,10.4c-0.8,16.3,3.2,24.1,3.2,24.1S100.3,244.5,102.5,248.1z"/>
			</g>
			<g>
				<path class="st4" d="M107.6,249c0.1-0.2-1.9-1.6-2.2-1.8c-1.2-0.9-2.5-1.8-3.5-3c-0.3-0.4-0.5-0.7-0.8-1.1
					c0.1,2.2,0.6,4.8,2.7,6.7c0,0,0,0.1,0,0.4c0.4,0.1,0.8,0.2,1.1,0.1C106,250.3,107,249.9,107.6,249z"/>
			</g>
			<g>
				<path class="st4" d="M117.1,279.8c-0.6-1.1-1-2.5-1.4-3.7c-0.5-1.2-1.1-2.7-1.2-4c0-0.5-0.1-1-0.2-1.6c-0.2-7,1.1-19,2.3-22.8
					c1.7-5.4-2.8-6.4-2.8-6.4c-2.9-0.6,7.2-46.8,9.3-51.5c-2.3,1.4-22.3,13.7-25.1,15c0.4,2.7,0.6,6.1,0.4,10.4
					c0,0.7-0.1,1.3-0.1,1.9c0.9-2.6,2.4-4.9,5-5.9c1.8-0.7,3.9-0.6,5.3,0.8c2,2,1.8,4.6,1.5,7.2c-0.3,3.6-0.5,7.3-0.5,10.9
					c0,3.3-0.4,6.8,0.3,10c0,0.1-0.1,0.3-0.2,0.3c-1.2-0.2-2.4-0.5-3.6-0.4c1.8,1.8,4.2,3.4,5.1,5.8c1.1,3.1,0.2,6.6-0.2,9.8
					c-0.5,3.7-0.6,7.7-0.4,11.4c0.1,3.8,0.7,7.5,2,11.1c0.1,0.2-0.2,0.4-0.4,0.2c-0.9-1.1-1.8-2.3-2.8-3.3c-0.1,2.9-0.4,5.8-1.2,8.6
					c-0.1,0.4-0.2,0.8-0.4,1.2c0,0,0,0,0,0c0.1-0.1,0.1-0.2,0.2-0.3c-0.2,0.6-0.4,1.1-0.6,1.7c-0.1,0.3,0.1,0.4,0.3,0.2
					c1.2-1.4,1.6-2.9,2.2-4.5c0.1,0.6,0.3,1.3,0.5,1.9c0.1,0.4,0.2,1.1,0.5,1.5c0.2,0.2,0.4-0.1,0.4-0.3c0.3-1.3,0.4-2.8,0.5-4.2
					c0.6,0.5,0.9,1.3,1.5,1.7c0.7,0.6,1.5,1.3,2.4,1.4c0.2,0,0.4-0.2,0.4-0.4c0-0.5-0.3-1-0.4-1.5c-0.1-0.4-0.2-0.8-0.3-1.2
					c0.9,0.8,2,1.3,3.1,1.4c0.2,0,0.4-0.3,0.4-0.5C118.4,281.2,117.6,280.6,117.1,279.8z"/>
			</g>
		</g>
	</g>
	<g>
		<g>
			<path class="st0" d="M139,175.9c-0.1-0.4-0.2-0.7-0.3-1.1c0,0,0,0,0,0c-1.6,1.4-3.6,2.3-5.7,2.6c0.4-0.7,0.6-1.6,0.7-2.4
				c0-0.2-0.1-0.4-0.3-0.2c-3,2-6.9,1.1-10-0.3c-3.1-1.4-6.1-3.2-9.5-4c-1.7-0.4-3.5-0.4-5.2-0.2c0.4,0.6,0.8,1.2,1.3,1.8
				c3.9,3.8,6.9,8.4,11,12c2,1.8,4.4,3.3,7.1,3.9c2.7,0.5,5.3-0.2,7.4-1.8c1.2-0.9,2.2-2,3-3.3c0.4-0.7,1-1.6,1.2-2.5
				c-0.1-0.6-0.2-1.2-0.4-1.7c-0.9,0.9-1.9,1.6-3,2.1C137.7,179.5,138.8,177.9,139,175.9z"/>
			<path class="st3" d="M134.3,181.5C134.3,181.5,134.3,181.5,134.3,181.5c1.3,0.1,2.6-0.4,3.7-1.1c0,0,0.1,0,0.1-0.1
				c0.3-0.3,0.7-0.5,1-0.8c0.2,1.2-0.8,2.6-1.4,3.5c-0.7,1.1-1.7,2-2.7,2.8c-2.1,1.5-4.7,2-7.3,1.4c-2.5-0.7-4.8-2.2-6.7-4
				c-2-1.8-3.8-3.9-5.6-6c-1.8-2.1-3.6-4.3-5.7-6.2c2.9-0.1,5.8,0.7,8.5,1.9c3.2,1.5,6.2,3.5,9.8,3.8c1.7,0.1,3.4-0.1,4.9-1
				c-0.1,0.7-0.3,1.4-0.8,1.9c-0.7,0.1-1.4,0-2.1,0c0.1,0.1,0.3,0.3,0.5,0.4c0.1,0,0.2,0.1,0.3,0.1c0.3,0.1,0.6,0.2,0.9,0.2
				c0.1,0,0.2,0,0.3,0c0,0,0,0,0,0c2.3-0.2,4.4-1.1,6.2-2.5C138.4,178.3,136.5,180.3,134.3,181.5z"/>
			<path class="st3" d="M135.2,178.9c-0.9,0.6-1.8,1-2.9,1.3c-0.9,0.2-1.8,0.2-2.8,0.3c0.5,0.5,1.1,0.7,1.8,0.9
				c0.8,0.2,1.6,0.3,2.4,0.3c0.2,0,0.4,0,0.6,0c0,0,0,0,0,0c2.1-1.2,4-3.2,4.1-5.7C137.5,177,136.4,178,135.2,178.9z"/>
			<path class="st3" d="M130.4,178.4c0.9,0.1,1.9,0,2.8-0.3c-0.3,0.1-0.7,0.1-1,0.2c0,0,0,0,0,0c-0.1,0-0.2,0-0.3,0
				c-0.3-0.1-0.6-0.2-0.9-0.2c-0.1,0-0.2-0.1-0.3-0.1c-0.2-0.1-0.4-0.2-0.5-0.4c0.7,0.1,1.4,0.1,2.1,0c0.5-0.4,0.7-1.2,0.8-1.9
				c-0.8,0.5-1.8,0.8-2.7,0.9c-0.3,0.1-0.5,0.1-0.8,0.2c-1,0.2-2.1,0.1-3.1,0.1C127.4,177.8,129.1,178.3,130.4,178.4z"/>
			<path class="st3" d="M134.9,184.4c-1.1,0.2-2.3,0.3-3.4,0c-1.1-0.3-2.2-0.9-3.1-1.6c-2-1.4-3.7-3.2-5.4-4.8
				c-2.3-2.2-4.6-4.4-7.3-6c-1.9-0.6-3.9-1-5.9-0.9c2.1,1.9,3.9,4,5.7,6.2c1.8,2.1,3.5,4.2,5.6,6c1.9,1.7,4.2,3.3,6.7,4
				c2.5,0.7,5.1,0.2,7.3-1.4c0.9-0.7,1.7-1.5,2.4-2.4C136.7,183.9,135.8,184.2,134.9,184.4z"/>
		</g>
		<g>
			<g>
				<path class="st3" d="M73.3,207c17.3,6.9,44.1,5.9,50.3-13.8c3.4-11,1.8-21.5-5-31.1c-3.6-5-8.1-9.4-11.9-14.2
					c-1.6-2-3.1-4-4.4-6.1c-12.5-20.5-13.1-57.3-5.4-81l-31.7,9c0.2,0.2-0.2,2.5-0.2,2.7c-0.2,2.3-0.3,4.6-0.5,7
					c-0.5,5.2-1,11.2-3.2,16c-3.8,8.2-11.6,14.2-15.3,22.5c-4,8.9-4.2,18.6-4.1,28.1C42,163.4,44.2,182.4,57,196
					C61.5,200.7,67.1,204.5,73.3,207z"/>
				<path class="st4" d="M118.6,162.1c-3.6-5-8.1-9.4-11.9-14.2c-1.6-2-3.1-4-4.4-6.1c-12.5-20.5-13.1-57.3-5.4-81l-31.7,9
					c0.2,0.2-0.2,2.5-0.2,2.7c-0.2,2.3-0.3,4.6-0.5,7c-0.5,5.2-1,11.2-3.2,16c-0.4,0.9-0.9,1.8-1.4,2.7c0.7-0.5,1.4-0.9,2.2-1.3
					c0.3-0.1,0.5,0.1,0.4,0.4c-0.6,1.3-1.3,2.5-2.1,3.6c0,0,0,0,0-0.1c4-4.7,8.9-8.7,14.1-11.9c0.2-0.2,0.5,0.1,0.4,0.4
					c-1.2,2.2-2.9,4.1-4.4,6.1c4.1-3.5,8.4-6.9,13.4-9c0.2-0.1,0.4,0.2,0.3,0.4c-2.8,4.9-5.8,9.9-7,15.5c-0.6,2.5,0,5,0.5,7.4
					c0.4,2.1,0.8,4.3,0.7,6.5c-0.2,3.8-1.8,7.2-4.3,9.9c-3,3.2-6.9,5.5-11.1,6.6c-3.8,1-7.7,1.2-11.5,1.4c3.5,1.2,7.2,1.5,10.9,1.1
					c4.2-0.4,8.2-1.7,12.1-3.3c0.2-0.1,0.4,0.2,0.3,0.3c-0.7,2-2.1,3.8-3.6,5.4c2.1-1.1,3.9-2.8,5.8-4.2c0.2-0.1,0.4,0,0.4,0.2
					c0.3,0.9,0.6,1.8,1,2.7c3,7.5,7.8,14,11.4,21.2c1.7,3.5,3.2,7.1,3.9,11c0.7,4,0.7,8.2-0.4,12.1c-0.9,3.6-2.5,7.1-5.1,9.8
					c-2.9,3-6.8,5.1-10.9,5.7c-4.9,0.8-10-0.2-14.8-1.5c-3.5-0.9-6.9-2.4-9.9-4.4c1.3,1.9,2.8,3.8,4.5,5.6c4.5,4.8,10.1,8.5,16.3,11
					c17.3,6.9,44.1,5.9,50.3-13.8C127,182.2,125.4,171.6,118.6,162.1z"/>
				<path class="st4" d="M65.9,85.8c3,0.5,6.2,0.2,9.2-0.3c3.1-0.5,6.2-1.3,9.1-2.4c3.1-1.2,6.1-2.8,8.8-4.6
					c0.9-6.3,2.2-12.3,3.9-17.6l-31.7,9c0.2,0.2-0.2,2.5-0.2,2.7c-0.2,2.3-0.3,4.6-0.5,7c-0.2,1.9-0.4,3.8-0.6,5.8
					C64.5,85.6,65.2,85.7,65.9,85.8z"/>
				<path class="st4" d="M86.1,103.1c-1.1,2.5-1.4,5.3-1.5,7.9c-0.1,3.1,0.1,6.3,0.9,9.3c0.5,1.8,1.3,3.4,2.3,5
					c1.1,1.6,2.4,3.2,3.8,4.6c1.5,1.6,3.1,3,4.9,4.3c0.8,0.6,1.7,1.2,2.8,1.7c-4.8-10.8-7.1-24.5-7.3-38.3c-0.8,0.1-1.5,0.5-2.2,0.9
					C88,99.6,86.9,101.3,86.1,103.1z"/>
				<path class="st0" d="M93.7,211L93.7,211c-7,0-14.3-1.4-20.5-3.9c-6.3-2.5-11.9-6.3-16.4-11c-13.1-13.9-15-34-15.1-49.9
					c-0.1-9.8,0.2-19.4,4.1-28.2c1.9-4.2,4.8-7.8,7.7-11.4c2.8-3.5,5.7-7,7.6-11.1c2.1-4.5,2.6-10.1,3.1-15.1l0.1-0.9
					c0.1-1.5,0.2-3.1,0.3-4.6c0-0.8,0.1-1.5,0.1-2.3c0-0.1,0-0.2,0.1-0.5c0.1-0.5,0.3-1.9,0.2-2.1c0,0-0.1-0.1,0-0.2
					c0-0.1,0.1-0.1,0.2-0.2c0.2,0,31.4-8.9,31.7-9c0.1,0,0.2,0,0.2,0.1c0.1,0.1,0.1,0.1,0.1,0.2c-7.4,22.6-7.4,59.9,5.3,80.8
					c1.2,1.9,2.5,3.8,4.3,6.1c1.6,2,3.3,3.9,5,5.8c2.4,2.7,4.9,5.5,7,8.4c6.8,9.6,8.5,20.1,5,31.2C120.2,204.6,109.3,211,93.7,211z
					 M65.5,70c0,0.3,0,0.9-0.2,2.2c0,0.2-0.1,0.4-0.1,0.4c-0.1,0.8-0.1,1.5-0.1,2.3c-0.1,1.5-0.2,3.1-0.3,4.6l-0.1,0.9
					c-0.5,5-1,10.6-3.1,15.2c-1.9,4.1-4.8,7.7-7.6,11.2c-2.8,3.5-5.8,7.1-7.6,11.3c-3.9,8.7-4.2,18.2-4.1,28
					c0.3,30.2,8.2,42.4,15,49.7c4.4,4.7,10,8.5,16.2,10.9c6.2,2.5,13.5,3.8,20.4,3.8c15.3,0,26.1-6.4,29.6-17.5
					c3.5-11,1.8-21.4-5-30.9c-2.1-2.9-4.6-5.7-6.9-8.4c-1.7-1.9-3.4-3.8-5-5.8c-1.8-2.3-3.2-4.2-4.4-6.1
					c-5.8-9.6-9.5-23.5-10.3-39.4c-0.7-14.5,1-29.6,4.8-41.4C71.6,68.2,66.5,69.7,65.5,70z"/>
			</g>
			<g>
				<path class="st4" d="M118.6,162.1c-1.2-1.7-2.6-3.4-4-5.1c2.7,6.3,4.2,13.1,4,19.9c-0.4,9.9-5,20.5-14.6,25.8
					c-4.4,2.4-9.4,3.4-14.4,3.8c-5.7,0.4-11.5,0.2-17-1.4c-3.8-1.1-7.4-2.7-10.7-4.6c3.5,2.7,7.4,5,11.5,6.6
					c17.3,6.9,44.1,5.9,50.3-13.8C127,182.2,125.4,171.6,118.6,162.1z"/>
			</g>
			<g>
				<path class="st6" d="M41.9,148.7c0.2-5.6,0.9-11.2,2.3-16.7c1.3-4.9,3.1-9.7,5.5-14.2c2.8-5,6.6-9.5,9.6-14.3
					c1.7-2.7,3.1-5.4,4.1-8.4c1.1-3.1,1.7-6.3,2.3-9.4c1-5.5,1.5-11,1.6-16.5c-1.4,0.4-2.2,0.6-2.2,0.6c0.2,0.2-0.2,2.5-0.2,2.7
					c-0.2,2.3-0.3,4.6-0.5,7c-0.5,5.2-1,11.2-3.2,16c-3.8,8.2-11.6,14.2-15.3,22.5c-4,8.9-4.2,18.6-4.1,28.1
					C41.9,147,41.9,147.9,41.9,148.7z"/>
			</g>
		</g>
		<g>
			<path class="st4" d="M69.8,132.6c-1.3,0.7-2.7,1.3-4.1,1.6c-2,0.4-4.1,0.3-6.1,0.1c-3.6-0.5-7.3-1.7-9.8-4.5
				c-1.3-1.4-2.2-3.2-2.4-5.1c0-0.3-0.5,0-0.5,0.2c0,0.9,0,1.9,0.1,2.8c-1-2.2-1.2-4.7-0.5-7.1c0.1-0.3-0.4-0.1-0.4,0
				c-0.6,1.1-1,2.2-1.3,3.4c-0.1-1.8,0.1-3.6,0.5-5.3c-0.5,1-0.8,2.1-1,3.1c-0.1,1.3-0.1,2.6,0.1,3.8c0,0.3,0.4,0,0.5-0.2
				c0.1-1,0.4-2.1,0.8-3.1c-0.3,2.3,0.2,4.7,1.5,6.7c0,0,0,0,0,0c0,0,0,0,0,0c0,0,0,0,0,0c0.1,0.2,0.5-0.2,0.4-0.3
				c-0.1-0.6-0.2-1.3-0.2-1.9c1,2.6,3.2,4.7,5.7,6c1.8,0.9,3.7,1.4,5.6,1.7c2.1,0.3,4.2,0.5,6.3,0.1c1.3-0.2,2.5-0.6,3.7-1.1
				C69.1,133.2,69.5,132.9,69.8,132.6z"/>
			<path class="st4" d="M80.2,117.6c-0.2-0.8-0.6-1.5-1.2-2.1c0.1,0.4,0.3,0.8,0.4,1.3c-0.4-0.5-0.8-1-1.2-1.4
				c-0.1-0.2-0.5,0.2-0.4,0.3c1,1.8,1.2,3.9,0.5,5.8c-0.3-0.7-0.6-1.3-1-2c-0.1-0.2-0.5,0.1-0.4,0.3c0.4,2.4-0.2,4.8-1.4,6.9
				c-0.3,0.7-0.7,1.3-1.1,1.9c2-2,3.1-4.8,3.1-7.6c0.2,0.4,0.4,0.8,0.6,1.2c0.1,0.2,0.4,0,0.4-0.1c0.8-1.6,1-3.4,0.5-5.1
				c0.3,0.4,0.6,0.8,0.9,1.2c0.1,0.2,0.5-0.2,0.4-0.3C80.3,117.8,80.2,117.7,80.2,117.6z"/>
		</g>
	</g>
	<g>
		<path class="st0" d="M135.2,124.5c-0.3-0.4-0.6-0.8-1.1-1c-6.3-4.7-12.6-9.4-19.2-13.6c-3.3-2.1-6.7-4.1-10.1-6
			c-1.7-1-3.4-1.9-5.1-2.8c-1.6-0.9-3.2-1.9-5-2.4c-1.6-0.4-3.3-0.5-4.8,0.2c0.5-0.2,1-0.2,1.5-0.2c0.6,0,1.2,0.3,1.7,0.7
			c0.3,0.3,0.3,0.6,0,0.9c-0.4,0.5-0.8,0.9-1.3,1.4c-0.4,0.4-0.8,0.9-1.1,1.4c-0.8,1.4-0.9,3.2-0.9,4.8c0,1.8,0.2,3.6,0.4,5.3
			c0,0.2-0.3,0.5-0.5,0.3c-0.7-0.8-1.3-1.7-1.8-2.7c-1-1.9-1.6-4.2-1.7-6.4c0,0.2,0,0.4-0.1,0.6c-0.1,1,0,2,0,2.9
			c0,0.4,0.1,0.7,0.1,1.1c0.5,2.7,1.7,5.3,3.6,7.4c2.4,2.8,5.6,4.7,8.9,6.1c2,0.8,4.2,1.5,6.3,2.1c2.1,0.6,4.2,1.2,6.4,1.7
			c3.4,0.8,6.7,1.5,10.2,2.1c-0.9,1-1.7,2-2.5,3c-2,2.6-3.8,5.3-5.4,8.1c-1.6,2.8-3,5.8-4.2,8.8c-0.6,1.5-1.1,3.1-1.5,4.7
			c-0.5,1.7-0.8,3.4-0.8,5.1c0,0.9,0.1,1.9,0.4,2.8c0.3,0.9,0.7,1.8,1.1,2.7c0.9,1.8,1.7,3.6,2.2,5.5c0.1,0.2,0.4-0.1,0.4-0.1
			c0.1-0.3,0.3-0.6,0.4-0.9c0.8,2,1.9,3.8,3.4,5.3c0.7,0.7,1.7,1.4,2.7,0.8c0.5-0.3,1-0.8,1.3-1.4c0.2,0.1,0.3,0.3,0.5,0.4
			c0.6,0.3,1-0.4,1.2-0.8c0.7-1.2,1.1-2.5,1.3-3.9c0.1-0.7,0.1-1.4,0.1-2.1c0-0.7,0-1.4-0.1-2.1c-0.1-0.8-1.1-1.1-1.8-1.3
			c-0.9-0.3-1.7-0.6-2.6-0.8c0,0,0,0,0,0c-0.5-1.4-1.1-2.8-1.8-4.2c0-0.1-0.1-0.1-0.1-0.1c-0.2-1,0.3-2.2,0.8-3.1
			c0.8-1.4,1.6-2.7,2.5-4.1c1.7-2.6,3.6-5.2,5.4-7.7c1.8-2.6,3.6-5.1,5.3-7.8c0.8-1.3,1.6-2.6,2.4-4c0.4-0.7,0.8-1.3,1.4-1.8
			c0.5-0.4,1-0.8,1.5-1.3C135.7,127.2,135.9,125.7,135.2,124.5z"/>
		<path class="st1" d="M117.5,162.8c0.6,0.1,1.1,0.3,1.7,0.5c0.6,0.2,1.4,0.4,2,0.8c0.3,0.2,0.3,0.5,0.4,0.9c0,0.3,0,0.7,0,1
			c0,0.6,0,1.3,0,1.9c-0.1,1.2-0.3,2.5-0.8,3.6c-0.1,0.3-0.3,0.5-0.4,0.8c-0.1,0.1-0.2,0.3-0.2,0.4c-0.2,0.2-0.3,0.2-0.5,0
			c0,0-0.1-0.1-0.1-0.1c0,0,0,0,0,0c-0.2-0.1-0.4-0.3-0.6-0.5c0,0,0,0,0,0c-0.3-0.2-0.6-0.5-0.8-0.7c-0.6-0.5-1.1-1-1.6-1.6
			c-0.5-0.4-1.1-0.7-1.6-1c0.9,1.1,1.9,2.1,2.9,3.1c0.3,0.2,0.5,0.5,0.8,0.7c0,0,0.1,0.1,0.1,0.1c-0.1,0.2-0.2,0.4-0.3,0.5
			c-0.3,0.4-0.7,0.8-1.2,0.9c-1,0.1-1.8-1-2.4-1.7c-1.3-1.5-2.2-3.2-2.9-5.1c0-0.2,0.1-0.4,0.1-0.6c0.1,0.4,0.3,0.8,0.4,1.2
			c0.1,0.2,0.4-0.1,0.4-0.2c0.5-1.4,0.8-2.9,1-4.4c1.2,0.2,2.4,0,3.6-0.5C117.4,162.9,117.4,162.9,117.5,162.8z"/>
		<path class="st1" d="M113.1,168.5c0.4-0.8,0.7-1.7,1.5-2.3c0.8-0.6,1.8-0.6,2.7-0.2c1.8,0.7,2.8,2.4,4.1,3.8
			c0.1-0.6,0.2-1.2,0.2-1.8c0-0.6,0-1.3,0-1.9c0-0.3,0-0.7,0-1c0-0.4,0-0.7-0.4-0.9c-0.6-0.4-1.3-0.6-2-0.8
			c-0.6-0.2-1.1-0.4-1.7-0.5c0,0-0.1,0.1-0.1,0.1c-1.1,0.5-2.4,0.7-3.6,0.5c-0.2,1.5-0.5,3-1,4.4c0,0.1-0.4,0.5-0.4,0.2
			c-0.1-0.4-0.3-0.8-0.4-1.2c0,0.2-0.1,0.4-0.1,0.6c0.2,0.7,0.5,1.3,0.8,1.9C112.8,169,112.9,168.7,113.1,168.5z"/>
		<path class="st1" d="M118.6,172.7C118.6,172.7,118.5,172.6,118.6,172.7c-0.4-0.3-0.6-0.5-0.9-0.8c-0.8-0.7-1.6-1.5-2.3-2.4
			c0.4,0.8,0.8,1.6,1.2,2.4c0.4,0.6,0.7,1.3,1.2,1.9c0.2-0.2,0.4-0.4,0.5-0.6C118.4,173.1,118.5,172.9,118.6,172.7z"/>
		<path class="st3" d="M135.1,126.9c-0.1,0.7-0.6,1.2-1.1,1.7c-0.5,0.4-1,0.8-1.5,1.3c-0.5,0.5-0.8,1.2-1.2,1.8
			c-0.8,1.4-1.6,2.7-2.4,4c-3.4,5.2-7.2,10.1-10.6,15.3c-0.9,1.4-1.9,2.9-2.7,4.4c-0.7,1.3-1,2.9,0,4.1c0,0,0,0,0.1,0
			c0.5,1,0.9,2.1,1.3,3.1c-1,0.4-2.2,0.5-3.3,0.3c-0.2,0-0.4,0.1-0.4,0.3c-0.1,1.3-0.4,2.6-0.8,3.9l-0.3-1.1c-0.1,0-0.2-0.1-0.2-0.2
			c0-0.1,0-0.2-0.1-0.2c0,0,0,0,0-0.1c0,0,0,0,0,0c0,0,0-0.1,0-0.1c0-0.1-0.1-0.2-0.2-0.3c-0.1,0.1-0.2,0.2-0.2,0.3
			c0,0.6,0,1.2-0.1,1.8c-0.1,0.1-0.1,0.2-0.1,0.3c0,0,0,0,0,0.1c-0.1,0.3-0.2,0.6-0.3,0.8c-0.4-1.4-1-2.8-1.7-4.2
			c-0.8-1.5-1.5-3-1.7-4.7c-0.2-1.7,0-3.4,0.4-5.1c0.4-1.6,0.8-3.1,1.4-4.6c2.1-6,5.2-11.5,8.9-16.6c1-1.4,2-2.7,3.2-4
			c0.4-0.6,0.9-1.1,1.4-1.6c0.6-0.5,1.2-0.9,1.8-1.4c-1,0.4-1.9,1.1-2.7,1.9c-6.9-1.1-13.8-2.8-20.5-5c-3.5-1.2-6.8-2.7-9.5-5.2
			c-2.4-2.1-4.2-4.8-5-7.8c-0.2-0.7-0.4-1.4-0.5-2.1c-0.3-2,0-4.1,0.9-5.9c0.4-0.9,1-1.8,1.8-2.4c0,0,0,0,0,0
			c0.1-0.1,0.2-0.1,0.2-0.2c0,0,0,0,0,0c0.1,0,0.2-0.1,0.3-0.1c1.6-0.7,3.4-0.6,5-0.1c1.7,0.6,3.3,1.5,4.9,2.4
			c1.6,0.9,3.2,1.8,4.8,2.7c3.3,1.8,6.5,3.7,9.7,5.7c3.2,2,6.3,4.2,9.4,6.4c3.1,2.2,6.1,4.5,9.2,6.7c-0.3,0-0.7,0-1,0.2
			c0,0-0.1,0-0.1,0c0.4,0,0.8,0.1,1.1,0.3c0.4,0,0.7,0.2,1.1,0.3l0,0c0,0,0,0,0,0c0.4,0.2,0.8,0.6,1,1
			C135.1,125.6,135.2,126.3,135.1,126.9z"/>
		<path class="st3" d="M135.1,126.9c-0.1,0.7-0.6,1.2-1.1,1.7c-0.5,0.4-1,0.8-1.5,1.3c-0.5,0.5-0.8,1.2-1.2,1.8
			c-0.8,1.4-1.6,2.7-2.4,4c-3.4,5.2-7.2,10.1-10.6,15.3c-0.9,1.4-1.9,2.9-2.7,4.4c-0.7,1.3-1,2.9,0,4.1c0,0,0,0,0.1,0
			c0.5,1,0.9,2.1,1.3,3.1c-1,0.4-2.2,0.5-3.3,0.3c-0.2,0-0.4,0.1-0.4,0.3c-0.1,1.3-0.4,2.6-0.8,3.9l-0.3-1.1c-0.1,0-0.2-0.1-0.2-0.2
			c0-0.1,0-0.2-0.1-0.2c0,0,0,0,0-0.1c0,0,0,0,0,0c0,0,0-0.1,0-0.1c0-0.1-0.1-0.2-0.2-0.3c-0.1,0.1-0.2,0.2-0.2,0.3
			c0,0.6,0,1.2-0.1,1.8c-0.1,0.1-0.1,0.2-0.1,0.3c0,0,0,0,0,0.1c-0.1,0.3-0.2,0.6-0.3,0.8c-0.4-1.4-1-2.8-1.7-4.2
			c-0.8-1.5-1.5-3-1.7-4.7c-0.2-1.7,0-3.4,0.4-5.1c0.4-1.6,0.8-3.1,1.4-4.6c2.1-6,5.2-11.5,8.9-16.6c1-1.4,2-2.7,3.2-4
			c0.4-0.6,0.9-1.1,1.4-1.6c0.6-0.5,1.2-0.9,1.8-1.4c-1,0.4-1.9,1.1-2.7,1.9c-6.9-1.1-13.8-2.8-20.5-5c-3.5-1.2-6.8-2.7-9.5-5.2
			c-2.4-2.1-4.2-4.8-5-7.8c-0.2-0.7-0.4-1.4-0.5-2.1c-0.3-2,0-4.1,0.9-5.9c0.4-0.9,1-1.8,1.8-2.4c0,0,0,0,0,0
			c0.1-0.1,0.2-0.1,0.2-0.2c0,0,0,0,0,0c0.1,0,0.2-0.1,0.3-0.1c1.6-0.7,3.4-0.6,5-0.1c1.7,0.6,3.3,1.5,4.9,2.4
			c1.6,0.9,3.2,1.8,4.8,2.7c3.3,1.8,6.5,3.7,9.7,5.7c3.2,2,6.3,4.2,9.4,6.4c3.1,2.2,6.1,4.5,9.2,6.7c-0.3,0-0.7,0-1,0.2
			c0,0-0.1,0-0.1,0c0.4,0,0.8,0.1,1.1,0.3c0.4,0,0.7,0.2,1.1,0.3l0,0c0,0,0,0,0,0c0.4,0.2,0.8,0.6,1,1
			C135.1,125.6,135.2,126.3,135.1,126.9z"/>
		<path class="st3" d="M109.3,124.7c-2.9-1.1-5.8-2.4-8.5-3.9c-2.7-1.5-5.2-3.2-7.4-5.2c-2.2-2-4-4.3-5.4-6.9
			c-0.6-1.2-1.1-2.5-1.5-3.8c-0.2,1-0.2,2.1-0.1,3.1c0.1,0.7,0.3,1.4,0.5,2.1c0.8,3,2.6,5.7,5,7.8c2.8,2.4,6.1,4,9.5,5.2
			c4.6,1.6,9.4,2.8,14.2,3.9C113.5,126.2,111.4,125.5,109.3,124.7z"/>
		<path class="st3" d="M112,145.4c0.9-1.6,2-3.2,3-4.8c1-1.5,1.9-3,2.9-4.5c1.8-2.6,3.9-5,5.4-7.7c-0.9,0.5-1.9,1.2-2.7,1.8
			c-0.8,0.9-1.5,1.9-2.2,2.9c-3.7,5.1-6.9,10.7-8.9,16.6c-0.1,0.4-0.2,0.7-0.4,1.1c0.1-0.2,0.2-0.3,0.3-0.5
			C110.1,148.7,111,147,112,145.4z"/>
		<path class="st4" d="M121.5,129.1c-1.1,1.3-2.2,2.6-3.2,4c-1.9,2.5-3.6,5.2-5.1,7.9c1.3-1.6,2.6-3.2,3.9-4.7
			c2.6-3.2,5.5-6.3,7.4-10c-0.6,0.4-1.1,0.8-1.7,1.3C122.4,128,121.9,128.5,121.5,129.1z"/>
		<path class="st4" d="M124.6,126.3c0.1-0.1,0.1-0.2,0.2-0.3c-2.5,0-5.1,0.4-7.6,0.1c-2.5-0.3-5-0.8-7.4-1.4c-2.4-0.6-4.8-1.3-7.2-2
			c-1.5-0.4-3-0.7-4.5-1c1.1,0.5,2.3,0.9,3.4,1.3c6.7,2.3,13.6,3.9,20.5,5C122.7,127.4,123.6,126.7,124.6,126.3z"/>
		<path class="st4" d="M134.8,125c-0.2-0.4-0.6-0.8-1-1c0,0,0,0,0,0l0,0c-0.3-0.2-0.7-0.3-1.1-0.3c-0.3-0.2-0.7-0.3-1.1-0.3
			c0,0,0.1,0,0.1,0c0.3-0.1,0.7-0.2,1-0.2c-3-2.2-6.1-4.5-9.2-6.7c-3.1-2.2-6.2-4.4-9.4-6.4c-3.2-2-6.4-3.9-9.7-5.7
			c-1.6-0.9-3.2-1.8-4.8-2.7c-1.6-0.9-3.2-1.8-4.9-2.4c-1.6-0.5-3.4-0.7-5,0.1c-0.1,0-0.2,0.1-0.3,0.1c0,0,0,0,0,0
			c-0.1,0.1-0.2,0.1-0.2,0.2c0,0,0,0,0,0c-0.8,0.5-1.3,1.3-1.7,2.1c0.4-0.4,0.9-0.7,1.5-1c1.4-0.6,3-0.3,4.4,0.2
			c4.3,1.4,7.9,4.2,11.5,6.8c3.8,2.7,7.6,5.2,11.6,7.5c4.1,2.3,8.3,4.4,12.6,6.2c0.3,0.1,0.3,0.5-0.1,0.5c-1.6,0-3.3,0.1-4.9,0.4
			c0.8,0.1,1.6,0.2,2.3,0.5c1,0.3,1.8,0.9,2.2,1.9c0.4,1.2,0.1,2.6-0.6,3.7c-1.3,2.2-3.6,3.5-5.6,4.9c0.6-0.2,1.2-0.5,1.8-0.8
			c0.8-0.5,1.6-1,2.4-1.6c0.2-0.1,0.5,0.1,0.4,0.3c-0.9,2.3-2.1,4.4-3.4,6.5c-2.4,3.8-5.1,7.3-7.4,11.1c-0.9,1.6-2,3.2-2.5,5.1
			c-0.5,1.8-0.2,3.7,0.4,5.5c0.1,0.2-0.2,0.5-0.4,0.3c-1.1-0.8-2-1.7-2.9-2.6c0.3,1.8,0.9,3.5,0.8,5.4c0,0.2-0.3,0.4-0.5,0.2
			c-0.6-0.5-1-1.1-1.4-1.8c0.1,1.4,0.2,2.8,0.1,4.2c0.4,1,0.8,2,1.1,3c0.1-0.3,0.2-0.6,0.3-0.8c0,0,0,0,0-0.1c0-0.1,0-0.2,0.1-0.3
			c0.1-0.6,0.2-1.2,0.1-1.8c0-0.1,0.1-0.2,0.2-0.3c0.1,0.1,0.1,0.2,0.2,0.3c0,0,0,0.1,0,0.1c0,0,0,0,0,0c0,0,0,0,0,0.1
			c0,0.1,0,0.1,0.1,0.2c0,0.1,0.1,0.2,0.2,0.2l0.3,1.1c0.4-1.3,0.7-2.6,0.8-3.9c0-0.2,0.2-0.4,0.4-0.3c1.1,0.2,2.2,0.1,3.3-0.3
			c-0.4-1.1-0.8-2.1-1.3-3.1c0,0,0,0-0.1,0c-1-1.2-0.6-2.8,0-4.1c0.8-1.5,1.8-3,2.7-4.4c3.4-5.2,7.2-10.1,10.6-15.3
			c0.8-1.3,1.7-2.6,2.4-4c0.4-0.6,0.7-1.2,1.2-1.8c0.4-0.5,1-0.9,1.5-1.3c0.5-0.5,1-1,1.1-1.7C135.2,126.3,135.1,125.6,134.8,125z"
			/>
		<path class="st4" d="M134.8,125c-0.2-0.4-0.6-0.8-1-1c0,0,0,0,0,0l0,0c-0.3-0.2-0.7-0.3-1.1-0.3c-0.3-0.2-0.7-0.3-1.1-0.3
			c0,0,0.1,0,0.1,0c0.1,0,0.3-0.1,0.5-0.1c-0.4,0-0.9,0.1-1.3,0.2c0.7,0.2,1.4,0.7,1.5,1.6c0.1,1.2-0.6,2.5-1,3.6l-2.4,5.7
			c-0.7,1.6-1.4,3.2-2.1,4.8c0.8-1.1,1.5-2.2,2.2-3.4c0.8-1.3,1.7-2.6,2.4-4c0.4-0.6,0.7-1.2,1.2-1.8c0.4-0.5,1-0.9,1.5-1.3
			c0.5-0.5,1-1,1.1-1.7C135.2,126.3,135.1,125.6,134.8,125z"/>
	</g>
	<g>
		<g>
			<path class="st0" d="M74,88.7c1-2.6,0.9-5.4,0.5-8.1c0.2-0.2,0.2-0.5-0.2-0.4c-4.8,0.7-9.8,0.6-14.5-0.4
				c-0.3-0.1-0.9,0.4-0.4,0.5c0,0,0.1,0,0.1,0c0,0.1,0,0.1,0,0.2c2,1.9,2.1,4.9,1.8,7.5c-0.4,3.4-1.7,6.6-3.5,9.4
				c-0.3,0.4,0.4,0.3,0.6,0.2c0.6-0.4,1.1-0.9,1.6-1.4c-1.9,2.8-4.3,5.5-5.5,8.6c-0.6,1.5-0.9,3.1-0.8,4.7c0,0.4,0.7,0.1,0.7-0.1
				c0.5-1.3,1-2.6,1.6-3.8c-0.9,2.4-1.2,5.1-0.8,7.7c0,0,0,0,0,0c0.1-0.5,0.4-0.9,0.6-1.3c0.3-0.4,0.5-0.9,0.8-1.3
				c0.2-0.5,0.3-1,0.6-1.5c0.6-1.3,1.5-2.2,2.6-3.1c1.9-1.6,3.9-3.1,5.8-4.7c1.9-1.7,3.6-3.5,4.9-5.6c0.7-1.1,1.3-2.2,1.8-3.4
				C73,91.2,73.6,90,74,88.7z"/>
			<path class="st3" d="M71.9,92.1c-0.6,1.2-1.2,2.5-1.9,3.6c-2.7,4.3-7,7.1-10.8,10.3c-1.1,0.9-2,1.9-2.6,3.1
				c-0.3,0.6-0.5,1.1-0.7,1.7c0-2.1,0.4-4.1,1.2-6c0.2-0.9,0.4-1.9,0.7-2.8c-1.5,1.5-2.5,3.4-3.3,5.4c0.6-4.7,4.3-8.3,6.8-12.3
				c0.4-0.8,0.8-1.6,1.1-2.5c0.4-1.3,0.5-2.7,0.5-4c0,0,0,0,0,0c-0.1,1.8-0.7,3.4-1.4,4.9c-0.7,0.9-1.5,1.8-2.3,2.6
				c1.5-2.6,2.5-5.4,2.8-8.4c0.3-2.5,0.2-5.3-1.5-7.3c4.4,0.8,8.8,0.9,13.2,0.3c0,0,0,0.1,0,0.1c0.4,2.5,0.4,5.1-0.4,7.5
				C73,89.6,72.4,90.8,71.9,92.1z"/>
			<path class="st4" d="M73.4,88.4c0.8-2.4,0.8-5,0.4-7.5c0,0,0-0.1,0-0.1c-4.4,0.6-8.8,0.5-13.2-0.3c1,1.1,1.4,2.5,1.6,3.9
				c0.4,0.5,0.5,1.2,0.5,1.9c0,1.7-0.4,3.5-0.9,5.1c-0.5,1.5-1.1,3-2,4.3c0.7-0.7,1.3-1.4,1.9-2.2c0.8-1.5,1.3-3.1,1.4-4.9
				c0,0,0,0,0,0c0,1.4-0.1,2.7-0.5,4c0,0,0,0,0,0.1c0.3-0.5,0.5-0.9,0.8-1.4c0.5-1,1.1-2.1,1.4-3.2c0.2-0.7,0.4-1.7,1-2.1
				c0.1-0.1,0.4-0.1,0.4,0.1c0.4,1.7,0.1,3.4-0.5,4.9c-1.3,3.2-3.7,5.6-5.9,8.2c-2,2.4-3.9,4.9-5,7.8c0,0.1,0,0.2-0.1,0.3
				c0.8-1.9,1.8-3.8,3.3-5.4c-0.1,0.2-0.1,0.4-0.2,0.6c0.6-0.8,1.2-1.6,1.8-2.4c1.3-1.6,2.7-3.1,4-4.7c1.3-1.6,2.6-3.3,3.5-5.1
				c0.9-1.9,1.3-3.9,1.8-6c0.1-0.2,0.3-0.3,0.4-0.2c0.6,0.4,0.8,1.2,0.8,1.9c0,0.9-0.1,1.8-0.3,2.7c-0.4,1.9-1.1,3.6-2,5.3
				c-1.4,2.4-3.2,4.5-5.1,6.5c-1.9,2.1-4,4.1-5.3,6.6c-0.3,0.6-0.5,1.1-0.7,1.7c0.6-1.2,1.5-2.1,2.5-3c3.8-3.2,8-6.1,10.8-10.3
				c0.7-1.1,1.3-2.4,1.9-3.6C72.4,90.8,73,89.6,73.4,88.4z"/>
			<path class="st4" d="M62.1,83.7c0.8,0.3,1.6,0.4,2.4,0.5c2.2,0.2,4.4-0.2,6.6-0.5c1-0.1,2-0.3,2.9-0.7c0-0.8-0.1-1.5-0.2-2.3
				c0,0,0-0.1,0-0.1c-4.4,0.6-8.8,0.5-13.2-0.3C61.4,81.4,61.8,82.5,62.1,83.7z"/>
		</g>
		<g>
			<path class="st7" d="M144.8,17.3c-1.8-0.9-3.7-1.3-5.6-1.6c-1.7-0.3-3.4-0.5-5.1-0.6c-3.4-0.2-6.9,0-10.3,0.5
				c-6.7,1.1-13,3.9-18.2,8.2c-2.2,1.8-4.2,4-5.9,6.3c-0.1,0-0.2,0.1-0.3,0.2c-0.3,0.5-0.6,0.9-0.8,1.4c-0.1,0.2-0.3,0.4-0.4,0.6
				c-0.1,0.1-0.1,0.2,0,0.3c-0.7,2-0.7,4.1,1,5.7c0.5,0.5,1.1,0.9,1.7,1.2c0.7,0.4,1.5,0.9,2.3,1.2c1,0.4,2,0.5,3,0.2
				c0,0-0.1,0.1-0.1,0.1c-0.3,0.4,0.5,0.4,0.6,0.1c0.2-0.3,0.3-0.5,0.5-0.7c0,0,0,0,0,0c3.2-4.7,7.1-8.8,11.6-12.2
				c4.7-3.6,10.1-6.4,15.7-8.2c3.2-1,6.5-1.8,9.9-2.1C144.6,17.8,145.2,17.5,144.8,17.3z"/>
			<path class="st8" d="M127.3,22.4c-5.5,2.7-10.5,6.3-14.8,10.7c-2.2,2.2-4.1,4.6-5.8,7.1c-1.2,0.7-2.6,0.3-3.7-0.3
				c-1.2-0.6-2.4-1.3-3.3-2.2c-1.6-1.7-1.3-4-0.4-5.9c3.4-5.3,8.3-9.5,13.9-12.2c6-3,12.7-4.2,19.3-4c1.9,0.1,3.8,0.2,5.6,0.5
				c1.9,0.3,3.7,0.7,5.5,1.4C137.9,18.2,132.4,19.9,127.3,22.4z"/>
			<path class="st8" d="M112.6,29.9c-1-1.4-2.1-2.7-3.5-3.7c-1-0.7-2.1-1.4-3.3-1.9c-0.2,0.2-0.5,0.4-0.7,0.6
				c1.5,0.6,2.9,1.5,4.1,2.5c1.7,1.4,3.1,3,4.1,4.9c0.2-0.2,0.3-0.3,0.5-0.5C113.4,31.2,113,30.5,112.6,29.9z"/>
			<path class="st8" d="M124.6,23.9c0.2-0.1,0.5-0.3,0.7-0.4c-0.7-2.5-1.8-4.9-3.2-7c-0.4,0.1-0.9,0.2-1.3,0.3
				C122.4,18.9,123.6,21.3,124.6,23.9z"/>
			<path class="st8" d="M140.1,16.4c-0.7-0.1-1.4-0.3-2.1-0.4c0,0-0.1,0-0.1,0c0.2,0.8,0.3,1.6,0.4,2.4c0.6-0.1,1.1-0.2,1.7-0.4
				C140.1,17.5,140.1,17,140.1,16.4z"/>
			<path class="st8" d="M130.5,18c0.5,0.8,0.8,1.7,1,2.5c0.2-0.1,0.4-0.2,0.7-0.3c-0.1-1-0.4-2-1-2.9c-0.4-0.6-0.9-1.3-1.4-1.9
				c-0.4,0-0.8,0-1.2,0.1C129.4,16.3,130,17.2,130.5,18z"/>
			<path class="st8" d="M119.7,27c0.2-0.2,0.5-0.4,0.7-0.5c-1-2.6-2.6-4.7-4.8-6.3c-0.5-0.4-1.1-0.7-1.6-1.1c0,0,0,0,0,0
				C116.5,21.2,118.5,23.9,119.7,27z"/>
			<path class="st8" d="M117,29c0.1-0.1,0.2-0.2,0.3-0.2c-1-1.7-2.1-3.3-3.5-4.6c-1.2-1.1-2.6-2-4-2.8c-0.1,0.1-0.2,0.1-0.3,0.2
				C112.4,23.5,115,26.1,117,29z"/>
			<path class="st8" d="M104,27.3c5.2-5.1,11.7-8.8,18.8-10.6c2.2-0.6,4.5-0.9,6.7-1.2c-5.7,0.2-11.4,1.4-16.5,4
				c-5.6,2.8-10.5,7-13.9,12.2c-0.3,0.7-0.6,1.5-0.7,2.3C100,31.6,102,29.3,104,27.3z"/>
			<path class="st8" d="M138.8,17.5c-2,0-3.9,0.2-5.9,0.6c-3.4,0.8-6.7,1.8-9.9,3.2c-3.1,1.4-6,3.1-8.8,5.1
				c-1.2,0.8-2.3,1.7-3.5,2.5c-0.9,0.6-2.1,1.4-3.3,1.2c-1.5-0.2-1.4-1.9-2.3-2.8c-0.4-0.4-1-0.7-1.6-1c-1.6,1.7-3.1,3.5-4.4,5.4
				c-0.9,1.9-1.2,4.2,0.4,5.9c0.9,1,2.2,1.6,3.3,2.2c1.1,0.6,2.6,1,3.7,0.3c1.7-2.5,3.7-4.9,5.8-7.1c4.3-4.4,9.3-8,14.8-10.7
				c4.9-2.4,10.1-4,15.4-4.8C141.4,17.5,140.1,17.5,138.8,17.5z"/>
		</g>
		<g>
			<path class="st7" d="M125.8,5.2c-1.9-0.6-3.9-0.7-5.8-0.8c-1.7,0-3.4,0-5.1,0.2c-3.4,0.3-6.8,1-10.1,2.1
				C98.3,8.9,92.5,12.6,88,17.7c-1.9,2.2-3.6,4.6-4.9,7.2c-0.1,0-0.2,0.1-0.3,0.2c-0.2,0.5-0.4,1-0.6,1.6c-0.1,0.2-0.2,0.4-0.3,0.6
				c-0.1,0.1,0,0.2,0.1,0.3c-0.4,2.1-0.1,4.2,1.8,5.5c0.6,0.4,1.3,0.7,1.9,1c0.8,0.3,1.6,0.6,2.4,0.8c1,0.2,2.1,0.2,3-0.3
				c0,0,0,0.1-0.1,0.1c-0.2,0.4,0.5,0.3,0.7,0c0.1-0.3,0.3-0.5,0.4-0.8c0,0,0,0,0,0c2.4-5.1,5.6-9.8,9.6-13.9
				c4.1-4.3,9-7.9,14.3-10.6c3-1.5,6.2-2.7,9.4-3.6C125.6,5.7,126.2,5.3,125.8,5.2z"/>
			<path class="st8" d="M109.2,12.9c-5,3.5-9.4,7.9-13,12.8c-1.8,2.5-3.3,5.2-4.7,8c-1.1,0.8-2.5,0.7-3.7,0.3
				c-1.2-0.4-2.6-0.9-3.6-1.7c-1.8-1.4-1.9-3.7-1.3-5.8c2.5-5.7,6.7-10.6,11.8-14.2c5.4-3.8,11.9-6.1,18.5-6.9
				c1.9-0.2,3.8-0.4,5.7-0.4c1.9,0,3.8,0.1,5.6,0.5C119.1,7.2,113.9,9.7,109.2,12.9z"/>
			<path class="st8" d="M95.9,22.6c-1.2-1.2-2.5-2.4-4-3.1c-1.1-0.6-2.3-1-3.6-1.4c-0.2,0.2-0.4,0.4-0.6,0.7
				c1.6,0.4,3.1,1.1,4.4,1.9c1.9,1.1,3.5,2.5,4.8,4.2c0.1-0.2,0.3-0.3,0.4-0.5C96.9,23.8,96.4,23.2,95.9,22.6z"/>
			<path class="st8" d="M106.8,14.8c0.2-0.2,0.4-0.4,0.7-0.5c-1.1-2.3-2.5-4.5-4.3-6.4c-0.4,0.2-0.8,0.3-1.3,0.5
				C103.8,10.3,105.4,12.5,106.8,14.8z"/>
			<path class="st8" d="M121,5.1c-0.7,0-1.4-0.1-2.1-0.1c0,0-0.1,0-0.1,0c0.3,0.7,0.5,1.5,0.7,2.3c0.5-0.2,1.1-0.4,1.6-0.6
				C121.1,6.2,121.1,5.6,121,5.1z"/>
			<path class="st8" d="M111.7,8.1c0.6,0.7,1,1.5,1.4,2.4c0.2-0.1,0.4-0.3,0.6-0.4c-0.3-1-0.7-1.9-1.4-2.7c-0.5-0.6-1.1-1.1-1.7-1.6
				c-0.4,0.1-0.8,0.2-1.1,0.2C110.4,6.6,111.1,7.4,111.7,8.1z"/>
			<path class="st8" d="M102.4,18.6c0.2-0.2,0.4-0.4,0.6-0.6c-1.4-2.4-3.3-4.2-5.7-5.5c-0.6-0.3-1.2-0.6-1.8-0.8c0,0,0,0,0,0
				C98.4,13.4,100.7,15.8,102.4,18.6z"/>
			<path class="st8" d="M100.1,21.1c0.1-0.1,0.2-0.2,0.2-0.3c-1.3-1.5-2.6-2.9-4.2-4.1c-1.4-0.9-2.9-1.5-4.4-2.1
				c-0.1,0.1-0.2,0.2-0.2,0.2C94.7,16.4,97.6,18.5,100.1,21.1z"/>
			<path class="st8" d="M87,21.4C91.4,15.6,97.3,10.9,104,8c2.1-0.9,4.3-1.6,6.5-2.2c-5.6,1.1-11,3.2-15.7,6.5
				c-5.1,3.6-9.3,8.5-11.8,14.2c-0.2,0.8-0.4,1.6-0.3,2.4C83.7,26.2,85.3,23.7,87,21.4z"/>
			<path class="st8" d="M119.9,6.4c-2,0.3-3.8,0.8-5.7,1.5c-3.2,1.3-6.4,2.8-9.3,4.7c-2.9,1.8-5.5,4-7.9,6.4c-1,1-2,2-3.1,3
				c-0.8,0.7-1.9,1.7-3.1,1.7c-1.5,0-1.7-1.7-2.7-2.4c-0.5-0.3-1.1-0.6-1.7-0.7c-1.4,1.9-2.5,3.9-3.5,6.1c-0.6,2.1-0.5,4.4,1.3,5.8
				c1,0.8,2.4,1.3,3.6,1.7c1.2,0.4,2.7,0.6,3.7-0.3c1.3-2.8,2.9-5.4,4.7-8c3.5-5,8-9.3,13-12.8c4.4-3.1,9.3-5.5,14.5-7.2
				C122.4,5.9,121.1,6.2,119.9,6.4z"/>
		</g>
		<g>
			<path class="st0" d="M85,31.8c-6.4-1.4-10.4-7.1-14.5-11.6c-2.2-2.4-4.6-4.7-7.6-6.1c-2.4-1.1-5.1-1.6-7.8-1.5
				c-3,0.1-6,1.1-8.5,2.8c-0.3,0.2,0.3,0.4,0.4,0.4c0.6-0.1,1.2-0.1,1.7,0c-0.5,0.1-1,0.3-1.5,0.5c-0.3,0.2,0,0.4,0.3,0.4
				c0.8,0.1,1.6,0.1,2.3,0.4c0.9,0.4,1.4,1.1,1.8,1.9c0.7,1.5,1.2,3,1.8,4.5c1.1,3,2.2,6,4.4,8.4c2,2.1,4.6,3.6,7.5,4.2
				c3,0.6,6.1,0.1,9.2-0.4c3.6-0.7,7.3-1.5,10.6-3.4c0,0,0.1,0,0.1-0.1C85.3,32.1,85.3,31.9,85,31.8z"/>
			<path class="st3" d="M65.8,35.7c-2.9-0.6-5.7-2.2-7.6-4.4c-2.1-2.4-3.1-5.5-4.2-8.5c-0.3-0.8-0.6-1.7-0.9-2.5
				c-0.3-0.8-0.7-1.6-1.2-2.3c-0.8-1.1-2-1.5-3.2-1.7c0.5-0.2,1-0.2,1.5-0.2c0.3,0,0.6-0.3,0.2-0.4c-0.8-0.3-1.6-0.5-2.4-0.5
				c4.3-2.6,10-2.9,14.6-0.7c5.8,2.9,9.2,8.8,13.8,13.1c2.2,2,4.8,3.8,7.7,4.5c-2.8,1.5-5.8,2.2-8.9,2.9
				C72.1,35.6,68.9,36.3,65.8,35.7z"/>
			<path class="st4" d="M65.2,16.1c-0.8-0.6-1.7-1.2-2.7-1.6c-1.4-0.7-2.9-1.1-4.4-1.3C60.7,13.8,63.1,14.8,65.2,16.1z"/>
			<path class="st4" d="M76.4,27.6c-0.6-0.6-1.2-1.2-1.8-1.8c0.1,0.3,0.2,0.6,0.2,1c0,0.3-0.2,0.6-0.5,0.5c-1.6-0.6-3-1.7-4.3-2.9
				c-1.2-1.2-2.2-2.4-3.4-3.6c-1.1-1.1-2.3-2.1-3.7-2.9c-2.3-1.4-4.9-2.1-7.6-1.9c1.7,1.1,3.4,2.2,4.6,3.8c0.2,0.3,0,0.8-0.4,0.6
				c-1-0.3-1.9-0.7-2.8-1.1c1.5,1.4,3.1,2.8,4.2,4.5c0.2,0.3-0.2,0.6-0.5,0.6c-1.1-0.2-2.1-0.8-3.1-1.2c0.8,2.3,2.2,4.5,4,6.1
				c1,0.9,2.1,1.9,3.4,2.4c1.2,0.4,2.5,0.5,3.5,1.2c0.2,0.1,0.3,0.4,0.1,0.6c-0.7,0.9-1.9,1.2-3,1.4c-0.6,0.1-1.2,0.2-1.8,0.2
				c0.7,0.3,1.5,0.5,2.2,0.6c3.1,0.6,6.4-0.1,9.4-0.7c3.1-0.6,6.1-1.4,8.9-2.9C81.2,31.3,78.6,29.6,76.4,27.6z"/>
			<path class="st0" d="M79.3,31.8c-2.1-0.5-4.2-1.2-5.9-2.6c-1.7-1.4-3.1-3.3-4.5-5c-2.5-3.1-5.3-6.1-9-7.7
				c-1.3-0.4-2.6-0.6-3.9-0.6c3.1,0.4,5.9,2,8.1,4.1c1.6,1.5,3.1,3.2,4.5,4.9c1.3,1.6,2.6,3.4,4.3,4.7c0.3,0.2,0.6,0.5,1,0.7
				c-3.1,1.4-6.6,1.6-9.8,0.7c0.7,0.3,1.5,0.6,2.2,0.7c0.9,0.1,1.8,0.2,2.6,0.2c1.9-0.1,3.7-0.5,5.5-1.3c0,0,0,0,0,0
				c1.5,0.8,3.1,1.3,4.7,1.7C79.4,32.3,79.8,31.9,79.3,31.8z"/>
		</g>
		<g>
			<path class="st0" d="M139,45.9c-1.8-2-4-3.6-6.5-4.5c-3.1-1.1-6.5-1.2-9.7-1.1c-5.8,0.2-12.2,1.3-17.5-1.6
				c0.4,0.5,0.8,0.9,1.2,1.4c0.9,0.9,1.7,1.9,2.6,2.9c0.2,0.2,0,0.6-0.3,0.5c-0.2-0.1-0.3-0.2-0.4-0.3c0.2,0.8,0.7,1.6,1.1,2.3
				c0.6,1,1.1,2.1,1.6,3.1c0.1,0.2,0,0.5-0.3,0.4c-1.3-0.4-2.3-1.6-3.1-2.6c0.4,0.7,0.9,1.4,1.3,2c1.7,2.6,3.5,5.1,6.1,6.8
				c2.4,1.6,5.3,2.4,8.2,2.4c3.2-0.1,6.2-1.4,9-2.7c1.5-0.7,2.9-1.4,4.5-1.9c0.9-0.3,1.7-0.4,2.6-0.1c0.7,0.3,1.3,0.9,1.9,1.4
				c0.2,0.1,0.6,0.2,0.5-0.1c-0.2-0.5-0.4-1-0.7-1.4c0.5,0.3,0.9,0.7,1.2,1.2c0.1,0.1,0.6,0.4,0.6,0C142.4,50.9,141,48.1,139,45.9z"
				/>
			<path class="st3" d="M108.9,47.3c-1.7-2.6-3.3-5.4-4.2-8.4c2.6,1.5,5.6,2.1,8.6,2.3c6.3,0.3,12.9-1.5,19,0.7
				c4.8,1.7,8.5,5.9,9.7,10.9c-0.6-0.6-1.3-1-2-1.4c-0.4-0.2-0.3,0.3-0.1,0.5c0.4,0.4,0.7,0.8,0.9,1.2c-1-0.8-2.1-1.4-3.5-1.1
				c-0.9,0.1-1.7,0.5-2.5,0.8c-0.8,0.3-1.6,0.7-2.4,1.1c-2.9,1.3-5.8,2.7-9,3c-3,0.2-6-0.6-8.5-2.3C112.4,52.7,110.6,50,108.9,47.3z
				"/>
			<path class="st4" d="M129.3,41.2c1,0.2,2,0.4,3,0.8c1.5,0.5,2.8,1.3,4,2.2C134.1,42.8,131.7,41.8,129.3,41.2z"/>
			<path class="st4" d="M113.3,41.3c0.8,0,1.7,0,2.5,0c-0.3,0.2-0.6,0.3-0.9,0.5c-0.2,0.2-0.3,0.6,0,0.7c1.6,0.8,3.3,1,5.1,1
				c1.6,0,3.3-0.1,4.9-0.1c1.6,0,3.1,0.2,4.6,0.6c2.6,0.7,4.9,2.1,6.7,4.1c-2-0.5-3.9-0.9-5.9-0.6c-0.4,0.1-0.5,0.6-0.2,0.8
				c0.9,0.5,1.8,0.8,2.8,1.2c-2.1-0.1-4.1-0.2-6.1,0.2c-0.4,0.1-0.3,0.6-0.1,0.7c0.9,0.6,2,1,3.1,1.4c-2.2,1-4.7,1.6-7.1,1.5
				c-1.3-0.1-2.9-0.2-4.1-0.8c-1.1-0.5-2.1-1.4-3.3-1.6c-0.2,0-0.5,0.1-0.5,0.3c-0.1,1.1,0.4,2.2,1.1,3.1c0.3,0.5,0.7,1,1.1,1.5
				c-0.7-0.3-1.4-0.7-2-1.1c-2.6-1.8-4.4-4.6-6.1-7.2c-1.7-2.6-3.3-5.4-4.2-8.4C107.3,40.5,110.3,41.1,113.3,41.3z"/>
			<path class="st0" d="M108.3,42.2c1.9,1.1,3.8,2.1,6,2.4c2.2,0.2,4.5-0.1,6.7-0.3c4-0.3,8.1-0.5,11.8,1c1.2,0.6,2.3,1.4,3.2,2.4
				c-2.4-1.9-5.6-2.8-8.6-2.9c-2.2-0.1-4.4,0-6.6,0.2c-2.1,0.2-4.3,0.5-6.4,0.2c-0.4,0-0.8-0.1-1.1-0.2c1.2,3.1,3.5,5.8,6.3,7.5
				c-0.7-0.3-1.4-0.6-2.1-1.1c-0.7-0.5-1.4-1.1-2-1.7c-1.2-1.4-2.2-3-2.9-4.8c0,0,0,0,0,0c-1.6-0.5-3.1-1.3-4.5-2.1
				C107.8,42.5,107.8,41.9,108.3,42.2z"/>
		</g>
		<path class="st0" d="M110.9,56.2c1-3.5,1.2-7.1,0.9-10.7c-0.2-2.5-0.6-5.1-1.7-7.3c0.4,0.1,0.8,0.3,1.2,0.5
			c0.2,0.1,0.7-0.1,0.7-0.3c-0.2-1.9-1.3-3.5-2.9-4.4c0.7-0.2,1.4-0.3,2.1-0.3c0.2,0,0.7-0.2,0.5-0.5c-1.7-1.6-4.1-2.4-6.4-2.3
			c0.4-1,0.8-2,1.2-2.9c0.1-0.3-0.3-0.3-0.5-0.2c-0.9,0.3-1.7,0.7-2.4,1.3c-0.3-1.5-1.4-2.7-2.9-3.1c-0.2,0-0.7,0.2-0.6,0.4
			c0.4,0.7,0.6,1.4,0.6,2.2c-1.2-1-2.5-1.9-4-2.5c0.5-0.2,1.1-0.4,1.6-0.5c0.2-0.1,0.4-0.3,0.2-0.5c-1.1-0.6-2.4-0.9-3.7-1
			c0.4-0.3,0.7-0.5,1.1-0.8c0.1-0.1,0.2-0.3,0-0.4c-2.2-1.2-4.8-0.8-7.2-0.2c-0.4-1.1-1.4-1.8-2.5-2.1c-0.2,0-0.8,0.2-0.5,0.5
			c0.3,0.3,0.4,0.7,0.5,1.1c-1.2-0.9-3.1-0.9-4.3,0.1c-0.2,0.1-0.2,0.3,0.1,0.4c0.6,0.1,1.2,0.4,1.7,0.8c-3.3,1.1-6.3,3-8.7,5.5
			c-3.2,3.5-5.9,7.6-7.8,11.9c-0.9,2.1-1.6,4.3-2,6.5C63,48.4,61,49.6,59,50.8c-2.8,1.7-5.5,3.5-7.8,5.7c-2.3,2.2-4.4,4.8-4.9,8
			c-0.3,2.3,0.1,4.6,0.9,6.8c0,0,0,0,0,0c-0.1,0.3-0.6,0.4-0.9,0.5c-0.3,0.1-0.6,0.3-0.8,0.6c-0.4,0.9,1.1,1.7,1.8,2
			c0,0,0.1,0,0.2,0c0,0,0,0.1,0,0.1c0.8,1.1,0.9,2.5,0.9,3.9c0.1,1.5,0,3.1,0.1,4.6c0.1,1.3,0.3,2.6,1,3.7c0.6,1.1,1.5,2,2.5,2.7
			c2.3,1.6,5.3,2.1,8.1,2.1c1.4,0,2.8-0.2,4.1-0.7c1.2-0.5,2.2-1.3,3.2-2.2c1.1-1.1,1.9-2.3,2.7-3.6c7-1.4,13.6-4.5,19.3-8.9
			c1-0.8,2-1.6,2.9-2.5c5.3-0.5,10.3-3.2,13.5-7.4c1.1-1.5,2.1-3.1,3-4.7C109.6,59.8,110.4,58,110.9,56.2z"/>
		<path class="st3" d="M106.1,64.5c-1.7,2.6-3.9,4.9-6.6,6.4c-2.1,1.2-4.4,1.9-6.7,2.1c0.4-0.3,0.7-0.7,1.1-1
			c0.3-0.3-0.2-0.3-0.4-0.2c-5,5.1-11.2,8.9-17.9,11.3c-1.8,0.6-3.5,1.1-5.4,1.5c0.4-0.7,0.8-1.4,1.2-2.1c0.4-0.6,0.7-1.6,1.5-1.9
			c0.3-0.1,0.2-0.4-0.1-0.3c-0.5,0.2-0.9,0.6-1.2,1.1c-0.4,0.6-0.7,1.2-1,1.8c-0.8,1.4-1.5,2.7-2.5,4c-0.8,1-1.7,2-2.9,2.7
			c-1.2,0.8-2.5,1.1-3.9,1.2c-2.9,0.2-5.9-0.1-8.4-1.6c-2.2-1.4-3.7-3.6-3.9-6.2c-0.1-1.6,0-3.3-0.1-4.9c-0.1-1.3-0.2-2.5-0.8-3.7
			c0,0,0,0,0,0c1.8,1.6,2,4.2,2.4,6.4c0.2,1.1,0.5,2.3,1.2,3.3c0.6,0.9,1.5,1.6,2.5,2.1c4.4,2.2,9.2-0.5,12.5-3.5
			c1.1-1,2-2.2,2.8-3.5c0.7-1.1,1.3-2.3,1.9-3.4c0.8-0.7,1.5-1.5,2-2.5c0.1,0.2,0.2,0.3,0.4,0.4c0.1,0.1,0.2,0.1,0.4,0.2
			c0.1,0,0.3,0,0.4,0c-0.4-0.3-0.7-0.7-0.9-1.1c-0.1-0.2-0.1-0.5-0.2-0.8c-0.7,1.7-1.7,3.4-3.3,4.2c-0.3,0.2-0.6,0.3-0.9,0.5
			c-2.1,0.9-4.5,0.9-6.7,0.5c-2.6-0.5-4.9-1.6-7.3-2.7c-0.7-0.3-1.4-0.8-2.2-0.9c-0.1,0-0.2,0-0.3-0.1c0,0-0.1,0-0.1,0c0,0,0,0,0,0
			c0,0,0,0,0,0c-0.2-0.2-0.3-0.4-0.3-0.7c0-0.3,0-0.5,0-0.8c0-0.1,0-0.3,0-0.4c0-0.2,0-0.5,0-0.7c0-0.4,0.2-0.8,0.3-1.2
			c0-0.1,0.1-0.2,0.1-0.2c0-0.1,0.1-0.2,0.1-0.3c0.1-0.3,0.2-0.6,0.4-0.9c0,0,0,0,0,0c-0.5,0.2-0.7,0.7-0.9,1.1
			c-0.2,0.4-0.4,0.9-0.4,1.3c-0.2,0.9-0.1,1.9,0.3,2.8c-0.1,0-0.2,0-0.3,0c-0.5,0.1-1,0.3-1.5,0.4c-0.5,0.1-1.1,0.2-1.7,0.1
			c-0.1,0-0.2,0-0.3,0c0,0,0,0,0,0c-0.5-0.1-1-0.2-1.4-0.4c-0.4-0.2-1.2-0.8-1.1-1.3c0.1-0.3,0.7-0.4,0.9-0.5
			c0.3-0.1,0.7-0.3,0.8-0.7c0-0.1,0-0.1,0-0.1c0-0.1,0.1-0.1,0.1-0.2c0-0.1,0-0.2,0-0.3c-0.4-1.4-0.7-2.8-0.8-4.2
			c-0.1-1.5,0.1-2.9,0.7-4.3c0.6-1.5,1.6-2.9,2.8-4.1c2.1-2.3,4.7-4.3,7.3-5.9c1.8-1.1,3.7-2.2,5.5-3.2c0.4-0.3,0.8-0.6,1.2-0.8
			c0.8-0.5,1.6-1,2.5-1.5c0.4-0.3,0.9-0.6,1.3-0.9c0,0,0,0,0,0c-0.8,0.4-1.5,0.8-2.3,1.2c0.9-4,2.5-7.8,4.7-11.3
			c2.3-3.6,5-7.3,8.6-9.7c1.5-0.9,3.1-1.7,4.8-2.2c0.2,0.2,0.4,0.4,0.6,0.7c0,0,0,0,0.1,0c0-0.1,0-0.3,0-0.4c0,0,0,0,0-0.1
			c0-0.1,0-0.1,0-0.2c0-0.1,0-0.2,0-0.3c0,0,0,0,0-0.1c0,0,0,0,0,0c0,0,0,0,0,0c0,0,0-0.1,0-0.1c0,0,0,0,0,0c0,0,0,0,0,0
			c0,0,0,0,0,0c0,0,0,0,0,0c-0.1-0.1-0.1-0.1-0.1-0.2c-0.5-0.4-1-0.7-1.5-0.8c0.7-0.3,1.5-0.3,2.2,0c0.1,0,0.2,0,0.3,0.1
			c0,0,0,0,0,0.1c0.4,0.2,0.7,0.5,0.9,0.8c0.2,0.3,0.7-0.1,0.7-0.3c0.1-0.5,0.1-1-0.1-1.4c0.6,0.4,1,0.9,1.2,1.6
			c0,0.1,0.3,0.1,0.4,0.1c2.2-0.6,4.5-1,6.6,0c-0.5,0.3-0.9,0.6-1.4,1c-0.2,0.2-0.1,0.4,0.1,0.4c1.2-0.1,2.5,0.1,3.6,0.7
			c-0.5,0.2-1,0.3-1.5,0.5c-1.2-0.4-2.4-0.7-3.8-0.7c-0.1,0-0.1,0-0.2,0c1,0.3,2.1,0.5,3,0.9c0.7,0.3,1.3,0.6,1.9,1
			c0.7,0.4,1.3,0.8,1.9,1.2c0.9,0.6,1.8,1.3,2.7,2c0.7,0.6,1.3,1.2,2,1.7c0.1-0.1,0.1-0.2,0.1-0.3c-0.7-0.8-1.5-1.7-2.4-2.4
			c0.1-0.8,0.1-1.5-0.2-2.3c1,0.6,1.7,1.7,1.7,2.9c0,0.4,0.6,0.1,0.7,0c0.6-0.6,1.2-1,1.9-1.3c-0.4,0.9-0.8,1.8-1.1,2.8
			c-0.1,0.2,0.1,0.3,0.3,0.3c2.1-0.2,4.2,0.5,5.9,1.8c-0.7,0.1-1.5,0.3-2.2,0.6c-0.2,0.1-0.5,0.3-0.2,0.5c1.5,0.7,2.6,2.1,3,3.7
			c-0.4-0.2-0.9-0.3-1.3-0.4c-0.3-0.6-0.7-1.2-1.1-1.7c0.2,0.9,0.6,1.8,0.8,2.7c0,0.1,0.1,0.3,0.1,0.4c0.8,1.8,1.1,3.7,1.3,5.6
			c0.3,3.4,0.3,6.8-0.4,10.1C109.8,58.2,108.1,61.4,106.1,64.5z"/>
		<path class="st3" d="M48,62.1c1.1-2,2.9-3.4,4.6-4.9c0.9-0.7,1.7-1.5,2.7-2.2c0.9-0.7,1.9-1.4,2.9-2.1c0.8-0.6,1.7-1.3,2.5-1.9
			c0.6-0.4,1.3-0.9,1.9-1.3c0.7-0.5,1.4-0.9,2-1.5c0.2-0.2,0.5-0.5,0.7-0.8c-0.3,0.2-0.6,0.4-0.9,0.6c-0.4,0.3-0.8,0.6-1.2,0.8
			c-1.9,1-3.7,2.1-5.5,3.2c-2.7,1.7-5.2,3.6-7.3,5.9c-1.1,1.2-2.1,2.6-2.8,4.1c-0.3,0.7-0.5,1.4-0.6,2.1
			C47.3,63.5,47.6,62.8,48,62.1z"/>
		<path class="st4" d="M110.6,54.6c0.7-3.3,0.7-6.7,0.4-10.1c-0.2-1.9-0.6-3.8-1.3-5.6c0-0.1-0.1-0.3-0.1-0.4
			c-0.3-0.9-0.6-1.8-0.8-2.7c0.4,0.5,0.8,1.1,1.1,1.7c0.5,0.1,0.9,0.2,1.3,0.4c-0.4-1.6-1.5-2.9-3-3.7c-0.3-0.1,0-0.4,0.2-0.5
			c0.7-0.3,1.4-0.5,2.2-0.6c-1.7-1.3-3.8-2-5.9-1.8c-0.2,0-0.3-0.1-0.3-0.3c0.3-0.9,0.7-1.8,1.1-2.8c-0.7,0.3-1.4,0.7-1.9,1.3
			c-0.1,0.1-0.7,0.4-0.7,0c0-1.2-0.7-2.3-1.7-2.9c0.3,0.7,0.3,1.5,0.2,2.3c0.8,0.8,1.6,1.6,2.4,2.4c0.1,0.1,0,0.2-0.1,0.3
			c-0.7-0.6-1.3-1.2-2-1.7c-0.8-0.7-1.7-1.3-2.7-2c-0.6-0.5-1.3-0.9-1.9-1.2c-0.6-0.4-1.3-0.7-1.9-1c-1-0.4-2-0.6-3-0.9
			c0.1,0,0.1,0,0.2,0c1.3,0,2.6,0.3,3.8,0.7c0.5-0.2,1-0.3,1.5-0.5c-1.1-0.5-2.3-0.8-3.6-0.7c-0.3,0-0.4-0.2-0.1-0.4
			c0.5-0.3,0.9-0.6,1.4-1c-2.1-1-4.5-0.6-6.6,0c-0.1,0-0.3,0-0.4-0.1c-0.2-0.7-0.6-1.2-1.2-1.6c0.2,0.4,0.2,0.9,0.1,1.4
			c-0.1,0.2-0.5,0.5-0.7,0.3c-0.2-0.3-0.6-0.6-0.9-0.8c0,0,0,0,0-0.1c-0.1-0.1-0.2-0.1-0.3-0.1c-0.7-0.3-1.5-0.3-2.2,0
			c0.6,0.2,1.1,0.5,1.5,0.8c0,0.1,0.1,0.2,0.1,0.2c0,0,0,0,0,0c0,0,0,0,0,0c0,0,0,0,0,0c0,0,0,0,0,0c0,0,0,0.1,0,0.1c0,0,0,0,0,0
			c0,0,0,0,0,0c0,0,0,0,0,0.1c0,0.1,0,0.2,0,0.3c0,0.1,0,0.1,0,0.2c0,0,0,0,0,0.1c0,0.1,0,0.3,0,0.4c0,0,0,0-0.1,0
			c-0.2-0.2-0.4-0.5-0.6-0.7c-1.5,0.5-2.9,1.1-4.2,1.9c1.8-0.6,3.7-0.8,5.6-0.3c0.3,0.1,0.3,0.4,0.1,0.5c-0.3,0.2-0.7,0.4-1,0.6
			c0.8-0.3,1.6-0.4,2.4-0.4c0.9,0,1.8,0.2,2.7,0.5c0.7,0.3,1.5,0.6,2.2,0.8c-0.2-0.3-0.4-0.5-0.7-0.7c-0.4-0.3-0.8-0.5-1.1-0.9
			c-0.1-0.2,0-0.4,0.2-0.4c0.8-0.1,1.5,0.3,2.1,0.6c0.8,0.4,1.7,0.7,2.5,1.1c1.3,0.6,2.4,1.3,3.4,2.3c0.9,0.9,1.7,1.8,2.4,2.8
			c0.4,0.6,0.8,1.3,1.2,2c0.3-0.5,0.6-1,0.9-1.5c0.1-0.2,0.3-0.2,0.5-0.1c1,1.2,0.8,2.8,0.4,4.3c0.7-0.8,1.2-1.7,2-2.4
			c0.2-0.2,0.5,0.1,0.4,0.3c-0.6,1.3-1,2.7-1.5,4.1c1.4-0.5,3.1-0.6,4.2,0.6c0.2,0.2,0.1,0.4-0.1,0.5c-1.1,0.3-2.1,0.7-3.1,1.1
			c0.4,0.1,0.7,0.2,1,0.4c0.5,0.4,0.8,1,1,1.6c0.4,1.3,0.3,2.8,0.1,4.1c-0.2,1.1-0.5,2.2-0.9,3.3c-0.1,0.3-0.2,0.7-0.3,1
			c-0.8,2.9-1.9,5.7-3.6,8.2c-1.4,2.2-3.1,4.3-5.3,5.8c-0.1,0.1-0.4,0.1-0.4-0.1c-0.3-0.9-0.4-1.8-0.6-2.7c-0.2,1.2-0.5,2.3-1.1,3.4
			c-0.1,0.2-0.4,0.2-0.5,0c-0.8-1.5-1-3.3-2.1-4.5c0.1,1,0.2,1.9,0.2,2.9c0,1.1-0.3,2.1-0.7,3.1c-0.1,0.3-0.3,0.6-0.5,0.9
			c-0.2,0.5-0.5,0.9-0.8,1.3c-1,1.4-2.3,2.7-3.7,3.8c-1.4,1.2-2.8,2.2-4.3,3.3c-1.6,1.1-3.3,2.1-5,2.9c-0.8,0.4-1.6,0.8-2.4,1.2
			c-0.7,0.4-1.5,0.8-2.3,0.8c-0.2,0-0.4-0.1-0.3-0.3c0.4-1.6,1.4-2.9,2-4.4c-1.1,0.9-2.1,1.9-3.3,2.7c-0.2,0.1-0.5,0-0.4-0.3
			c0.2-0.9,0.8-1.8,1-2.7c0.2-0.7,0.1-1.4,0.8-1.7c0.6-0.3,1.4-0.3,2-0.5c0.5-0.2,1.1-0.5,1.6-0.8c-0.4,0-0.8-0.1-1.2-0.2
			c-0.6-0.3-1-0.7-1.3-1.2c-0.6-1-0.9-2.3-1.2-3.4c-0.3,0.4-0.5,0.9-0.7,1.3c-0.3,0.6-0.5,1.3-0.9,1.8c-0.5,0.9-1.4,1.7-2.3,2.2
			c-1,0.5-2,0.8-3.1,0.8c-2.7,0.2-5.5-0.3-8-1.4c-0.2-0.1-0.2-0.4,0-0.5c1.3-0.5,2.6-1.1,3.8-1.9c0.7-0.5,2.3-1.6,1.3-2.5
			c-0.7-0.7-1.9-0.6-2.8-0.7c-1.4-0.2-2.8-0.4-4.1-0.9c-1.4-0.5-2.7-1.1-3.9-1.8c-0.6-0.4-1.3-0.7-1.9-1.1c-0.6-0.3-1.1-0.7-1.7-1
			c-0.6-0.2-1.1-0.1-1.6,0.1c-0.2,0.9-0.3,1.9-0.3,2.9c0.1,1.4,0.4,2.8,0.8,4.1c0.6-0.2,1.3-0.4,1.9-0.2c0.4,0.1,0.8,0.4,0.9,0.8
			c0.1,0.4,0,0.9-0.3,1.3c-0.6,0.8-1.7,1.1-2.7,1.1c-0.3,0-0.6,0-0.9,0c0.2,0.1,0.3,0.2,0.4,0.3c0.4,0.2,0.9,0.4,1.4,0.4
			c0,0,0,0,0,0c0.1,0,0.2,0,0.3,0c0.6,0,1.1,0,1.7-0.1c0.5-0.1,1-0.3,1.5-0.4c0.1,0,0.2,0,0.3,0c-0.4-0.9-0.5-1.9-0.3-2.8
			c0.1-0.5,0.2-0.9,0.4-1.3c0.2-0.4,0.5-0.9,0.9-1.1c0,0,0,0,0,0c-0.2,0.3-0.3,0.6-0.4,0.9c0,0.1-0.1,0.2-0.1,0.3
			c0,0.1-0.1,0.2-0.1,0.2c-0.2,0.4-0.3,0.8-0.3,1.2c0,0.2,0,0.5,0,0.7c0,0.1,0,0.3,0,0.4c0,0.3,0,0.5,0,0.8c0,0.3,0.1,0.5,0.3,0.7
			c0,0,0,0,0,0c0,0,0,0,0,0c0,0,0.1,0,0.1,0c0.1,0,0.2,0.1,0.3,0.1c0.8,0.2,1.5,0.6,2.2,0.9c2.4,1.1,4.7,2.2,7.3,2.7
			c2.2,0.4,4.6,0.4,6.7-0.5c0.3-0.1,0.6-0.3,0.9-0.5c1.6-0.8,2.7-2.5,3.3-4.2c0,0.3,0.1,0.5,0.2,0.8c0.2,0.4,0.5,0.8,0.9,1.1
			c-0.1,0-0.3,0-0.4,0c-0.1-0.1-0.3-0.1-0.4-0.2c-0.2-0.1-0.3-0.2-0.4-0.4c-0.5,1-1.2,1.8-2,2.5c-0.6,1.1-1.2,2.3-1.9,3.4
			c-0.8,1.3-1.7,2.4-2.8,3.5c-3.3,3-8.1,5.6-12.5,3.5c-1-0.5-1.9-1.2-2.5-2.1c-0.6-1-1-2.1-1.2-3.3c-0.4-2.2-0.6-4.8-2.4-6.4
			c0,0,0,0,0,0c0.6,1.1,0.7,2.4,0.8,3.7c0.1,1.5,0,2.9,0.1,4.4c1.2,1.9,2.7,3.5,4.8,4.5c1.2,0.6,2.5,0.9,3.9,1c1,0.1,2,0.1,3-0.3
			c0.8-0.3,1.7-0.6,2.5-0.8c0.6-0.2,1.5-0.5,2.1-0.2c0.7,0.3,0.6,1.2,0.3,1.7c-0.4,0.7-0.9,1.3-1.5,1.9c0.4-0.2,0.8-0.3,1.2-0.6
			c1.1-0.7,2.1-1.6,2.9-2.7c1-1.2,1.7-2.6,2.5-4c0.3-0.6,0.7-1.2,1-1.8c0.3-0.5,0.7-0.9,1.2-1.1c0.3-0.1,0.4,0.2,0.1,0.3
			c-0.7,0.3-1.1,1.3-1.5,1.9c-0.4,0.7-0.8,1.4-1.2,2.1c1.8-0.4,3.6-0.9,5.4-1.5c6.7-2.3,12.9-6.2,17.9-11.3c0.2-0.2,0.6-0.1,0.4,0.2
			c-0.3,0.3-0.7,0.7-1.1,1c2.3-0.3,4.6-1,6.7-2.1c2.8-1.5,4.9-3.8,6.6-6.4C108.1,61.4,109.8,58.2,110.6,54.6z"/>
		<path class="st3" d="M83.9,22.7c0.3-0.2,0.7-0.4,1-0.5c-0.7-0.3-1.4-0.3-2.1,0C83.2,22.3,83.6,22.5,83.9,22.7z"/>
		<path class="st3" d="M67.6,46c-0.1,0-0.3,0-0.4,0c-0.2,0-0.3-0.1-0.3-0.3c0.4-2.2,1.6-4.3,2.7-6.2c1.1-1.8,2.3-3.7,3.5-5.5
			c0.7-1,1.5-2,2.2-3c0.7-0.9,1.4-1.8,2.2-2.7c1-1.1,2.1-2.2,3.3-3.2c-0.5,0.3-1,0.5-1.5,0.9c-3.7,2.3-6.4,6-8.6,9.7
			c-2.2,3.5-3.9,7.3-4.7,11.3C66.5,46.6,67,46.3,67.6,46z"/>
		<path class="st4" d="M74.5,46.7c0.9-1.1,1.7-2.1,2.5-3.3c0.8-1.3,1.4-2.7,1.4-4.2c0-1-0.1-2.2-0.7-3c-1.2-1.6-3.6-1.7-5.3-1.1
			c-0.9,0.4-1.8,0.9-2.5,1.6c-1.8,3.2-3.3,6.6-4,10.2c0.8-0.4,1.5-0.8,2.3-1.2c0,0,0,0,0,0c-0.4,0.3-0.8,0.6-1.3,0.9
			c-0.8,0.5-1.6,0.9-2.3,1.4c1,0.1,1.9,0.3,2.8,0.6c0.9,0.3,1.8,0.7,2.6,1.3c0.8,0.6,1.4,1.3,2.2,1.8c0.1-0.8-0.3-1.5-0.7-2.1
			c-0.1-0.1-0.1-0.4,0.1-0.4C72.8,48.7,73.7,47.6,74.5,46.7z"/>
		<path class="st4" d="M80,35.8c0.9-1.6,0.3-4.1-1.6-4.7c-1.7-0.6-3.5,0.3-4.8,1.5c1-0.1,2,0,3,0.3c0.8,0.3,1.4,0.8,2,1.4
			C79.1,34.7,79.5,35.3,80,35.8z"/>
		<path class="st4" d="M90.6,37.3c1.5-0.2,3,0,4.5,0.4c0.9,0.2,1.6,0.7,2.3,1.3c0.6,0.5,1.2,1.1,1.8,1.5c0.3-0.9,0-1.8-0.4-2.6
			c-0.4-0.8-1.1-1.6-1.9-2.1c-0.8-0.6-1.7-0.8-2.6-0.8c-2,0-4.2,1.1-5.3,2.8C89.5,37.5,90,37.4,90.6,37.3z"/>
		<path class="st4" d="M93.1,58.1c-0.1-0.1-0.1-0.3,0-0.4c0.5-0.9,1.3-1.6,2-2.4c0.7-0.8,1.3-1.7,1.8-2.7c0.6-0.9,1.1-1.9,1.3-3
			c0.2-0.9,0.2-1.9,0.1-2.9c-0.2-1.7-0.8-3.4-1.9-4.7c-1-1.3-2.6-2.1-4.2-2.3c-2.9-0.4-5.6,1.2-7.6,3.2c-1,1-1.9,2.1-2.7,3.3
			c-0.7,1.1-1.3,2.3-1.6,3.6c-0.6,2.6,0,6.1,2.7,7.3c0.2,0.1,0.2,0.3,0.1,0.4c-0.4,0.4-0.7,0.8-1,1.3c0.5-0.2,1.1-0.4,1.7-0.6
			c2.1-0.5,4.4-0.4,6.6,0c1.8,0.4,3.7,1.1,5.2,2.4C95.4,59.6,94,58.8,93.1,58.1z"/>
		<path class="st0" d="M77.7,36.5c-0.2-0.2-0.4-0.4-0.5-0.5c-0.4-0.4-0.9-0.7-1.4-0.8c-0.3-0.1-0.6-0.1-0.9,0
			c-1,0.2-1.9,0.8-2.7,1.4c-1.1,0.9-2.1,2-2.9,3.2c-0.8,1.2-1.4,2.5-1.8,3.9c-0.3,1.1-0.5,2.3,0.1,3.3c0.7,1,2,1.3,3.1,1.1
			c1.2-0.2,2.2-0.9,3-1.7c1-1,2-2.1,2.8-3.3c0.8-1.2,1.4-2.6,1.7-4.1C78.2,38.1,78,37.3,77.7,36.5z"/>
		<path class="st9" d="M76.2,42.5c-0.5,0.8-1.1,1.5-1.7,2.2c-0.8,0.9-1.6,1.9-2.7,2.5c-1,0.6-2.3,0.8-3.3,0.1
			c-1.8-1.4-0.4-4.4,0.4-5.9c0.6-1.1,1.3-2.1,2.1-3c0.8-0.9,1.7-1.8,2.7-2.3c1.2-0.6,2.7-0.4,3.4,0.9c0,0,0,0.1,0,0.1
			c0.5,0.8,0.5,1.9,0.3,2.8C77.3,40.7,76.9,41.7,76.2,42.5z"/>
		<path class="st0" d="M84,57.9c-0.1,0-0.1,0.1-0.2,0.1c1.8-0.4,3.7-0.6,5.6-0.3c1.9,0.3,3.7,1,5.5,1.6c0,0,0-0.1-0.1-0.1
			c-0.9-0.6-1.9-1.1-3-1.4c1.7-1,3-2.8,3.9-4.4c1-1.8,1.6-3.9,1.7-6c0.1-1.8-0.3-3.7-1.7-4.9c0,0-0.1,0-0.1,0
			c-1-1.1-2.4-1.6-3.9-1.6c-1.6,0-3.2,0.8-4.5,1.8c-1.4,1.2-2.5,2.7-3.4,4.3c-0.9,1.6-1.4,3.4-1.3,5.3c0.1,2.1,1.1,4.2,2.7,5.4
			C84.7,57.6,84.3,57.7,84,57.9z"/>
		<path class="st9" d="M83.4,53.3c-0.7-3.3,0.8-6.6,2.8-9.1c1.1-1.4,2.6-2.6,4.4-2.9c1.8-0.3,3.6,0.5,4.7,2c0,0.1,0.1,0.1,0.2,0.1
			c1.7,2.1,1.1,5.8,0.2,8.1c-0.6,1.5-1.4,2.9-2.4,4.1c-0.6,0.8-1.4,1.5-2.3,2c-1.6-0.4-3.3-0.5-5-0.2C84.8,56.4,83.8,54.9,83.4,53.3
			z"/>
		<g>
			<path class="st2" d="M62.6,69.6c-0.1-0.6-1-0.7-1.5-0.8c-1.5-0.2-2.9-0.5-4.4-0.9c-1.6-0.4-3.1-0.9-4.5-1.6
				c-1.3-0.7-2.5-1.6-3.7-2.4c-0.3-0.2-1.3-1.1-1.5-0.4c0,0.1,0,0.1,0,0.2c0,0,0,0,0,0c0.5,2.3,1.7,4.3,3.5,5.8
				c2,1.6,4.6,2.3,7.1,2.3c1.3,0,2.6-0.2,3.7-0.7c0.1-0.1,0.2-0.1,0.4-0.2C62.1,70.6,62.6,70.2,62.6,69.6z"/>
		</g>
		<g>
			<path class="st2" d="M62.5,69.4c-1,0.5-2.1,0.8-3.2,0.9c-2.9,0.4-6-0.5-8.5-2c-1.2-0.7-2.1-1.6-2.9-2.7c-0.3-0.5-0.6-0.9-0.9-1.4
				c0.5,2.1,1.7,3.9,3.4,5.3c2,1.6,4.6,2.3,7.1,2.3c1.3,0,2.6-0.2,3.7-0.7c0.1-0.1,0.2-0.1,0.4-0.2c0.4-0.4,1-0.8,0.9-1.3
				C62.6,69.6,62.5,69.5,62.5,69.4z"/>
		</g>
		<path class="st10" d="M79.5,32.6c0.3,0.3,0.5,0.7,0.6,1.1c0,0.1,0.1,0.3,0.1,0.4c0.2-0.3,0.4-0.7,0.5-1.1c0.1-0.4,0.1-0.9,0-1.3
			c-0.2-0.9-0.7-1.6-1.5-1.9c-1.9-0.9-3.7,0.7-4.8,2c-0.1,0.1,0,0.2,0.1,0.2c0.1,0,0.3,0,0.4-0.1c0,0,0,0,0,0c1-0.7,2.4-0.9,3.5-0.3
			C78.7,31.8,79.1,32.2,79.5,32.6C79.4,32.6,79.5,32.6,79.5,32.6z"/>
		<path class="st7" d="M75.5,31.2c1-1,2.2-1.7,3.6-0.9c1,0.6,1.2,1.6,1.2,2.6c-0.3-0.7-1-1.4-1.7-1.7C77.5,30.8,76.4,30.8,75.5,31.2
			z"/>
		<path class="st10" d="M99.6,38.3c-0.4-1.6-1.2-3.1-3-3.6c-1.7-0.5-3.7-0.1-5.2,0.8c-0.6,0.3-1.1,0.8-1.5,1.2c0,0,0,0.1,0,0.1
			c0,0,0,0,0,0c0,0,0,0,0,0.1c0,0,0.1,0.1,0.1,0.1c0,0,0,0,0,0c0,0,0,0,0,0c0,0,0,0,0,0c0,0,0,0,0,0c0,0,0,0,0,0c0,0,0.1,0,0.1,0
			c0,0,0,0,0,0c1.5-0.6,3.2-0.7,4.8-0.4c1.7,0.3,3.7,1.2,4.2,3c0,0,0,0.1,0.1,0.1C99.4,39.2,99.5,38.7,99.6,38.3z"/>
		<path class="st7" d="M95.2,36.2c-1.6-0.3-3.3-0.1-4.9,0.4c1.2-1.2,2.8-1.9,4.5-1.9c1.2,0,2.3,0.4,3.1,1.3c0.5,0.6,0.8,1.2,1,1.9
			C98,37,96.5,36.5,95.2,36.2z"/>
		<g>
			<defs>
				<path id="SVGID_1_" d="M76.2,42.5c-0.5,0.8-1.1,1.5-1.7,2.2c-0.8,0.9-1.6,1.9-2.7,2.5c-1,0.6-2.3,0.8-3.3,0.1
					c-1.8-1.4-0.4-4.4,0.4-5.9c0.6-1.1,1.3-2.1,2.1-3c0.8-0.9,1.7-1.8,2.7-2.3c1.2-0.6,2.7-0.4,3.4,0.9c0,0,0,0.1,0,0.1
					c0.5,0.8,0.5,1.9,0.3,2.8C77.3,40.7,76.9,41.7,76.2,42.5z"/>
			</defs>
			<clipPath id="SVGID_00000106846490778785606800000008324269138239161264_">
				<use xlink:href="#SVGID_1_"  style="overflow:visible;"/>
			</clipPath>
			<g style="clip-path:url(#SVGID_00000106846490778785606800000008324269138239161264_);">
				<g>
					<path class="st12" d="M78.5,45.7c-1,2.5-3.9,3.6-6.4,2.6c-2.5-1-3.6-3.9-2.6-6.4c1-2.5,3.9-3.6,6.4-2.6
						C78.3,40.3,79.5,43.2,78.5,45.7z"/>
					<path class="st13" d="M76.9,45c-0.7,1.6-2.6,2.4-4.2,1.7c-1.6-0.7-2.4-2.6-1.7-4.2c0.7-1.6,2.6-2.4,4.2-1.7
						C76.8,41.5,77.6,43.4,76.9,45z"/>
				</g>
				<path class="st9" d="M73.7,41.9c-0.3,0.6-1,0.9-1.6,0.6c-0.6-0.3-0.9-1-0.6-1.6c0.3-0.6,1-0.9,1.6-0.6
					C73.7,40.5,74,41.2,73.7,41.9z"/>
			</g>
		</g>
		<g>
			<defs>
				<path id="SVGID_00000049207119701895160830000016040677612392143001_" d="M83.4,53.3c-0.7-3.3,0.8-6.6,2.8-9.1
					c1.1-1.4,2.6-2.6,4.4-2.9c1.8-0.3,3.6,0.5,4.7,2c0,0.1,0.1,0.1,0.2,0.1c1.7,2.1,1.1,5.8,0.2,8.1c-0.6,1.5-1.4,2.9-2.4,4.1
					c-0.6,0.8-1.4,1.5-2.3,2c-1.6-0.4-3.3-0.5-5-0.2C84.8,56.4,83.8,54.9,83.4,53.3z"/>
			</defs>
			<clipPath id="SVGID_00000095317709047386932910000002551668886063578753_">
				<use xlink:href="#SVGID_00000049207119701895160830000016040677612392143001_"  style="overflow:visible;"/>
			</clipPath>
			<g style="clip-path:url(#SVGID_00000095317709047386932910000002551668886063578753_);">
				<g>
					<path class="st12" d="M96.2,53.1c-1,2.5-3.9,3.6-6.4,2.6c-2.5-1-3.6-3.9-2.6-6.4c1-2.5,3.9-3.6,6.4-2.6
						C96,47.8,97.2,50.6,96.2,53.1z"/>
					<path class="st13" d="M94.6,52.4c-0.7,1.6-2.6,2.4-4.2,1.7c-1.6-0.7-2.4-2.6-1.7-4.2c0.7-1.6,2.6-2.4,4.2-1.7
						C94.5,48.9,95.3,50.8,94.6,52.4z"/>
				</g>
				<path class="st9" d="M91.4,49.3c-0.3,0.6-1,0.9-1.6,0.6c-0.6-0.3-0.9-1-0.6-1.6c0.3-0.6,1-0.9,1.6-0.6
					C91.4,48,91.7,48.7,91.4,49.3z"/>
			</g>
		</g>
		<path class="st9" d="M48.9,74.6c0.5,0,1.1-0.1,1.6-0.2c0.6-0.1,1.2-0.4,1.8-0.4c0.7,0.1,1.4,0.4,2,0.7c4.5,2.1,9.8,4.6,14.8,2.6
			c0.5-0.2,1-0.4,1.4-0.7c-0.4,0.7-0.8,1.4-1.2,2.1C68.6,79.9,67.9,81,67,82c-1.6,1.7-3.6,3.2-5.7,4c-2.1,0.8-4.4,1-6.5,0.1
			c-1-0.4-1.9-1.1-2.5-2c-0.7-0.9-1-2-1.2-3.1C50.6,78.8,50.5,76.3,48.9,74.6z"/>
		<path class="st15" d="M69.1,77.3c-5,2-10.3-0.5-14.8-2.6c-0.6-0.3-1.3-0.7-2-0.7c-0.6-0.1-1.2,0.2-1.8,0.4c-0.5,0.1-1,0.2-1.6,0.2
			c0.4,0.4,0.7,0.8,0.9,1.3c0.3-0.2,0.6-0.3,0.9-0.3c1.3-0.1,2.6,0.3,3.8,0.8c2.4,0.9,4.9,1.5,7,2.8c0.8,0.5,1.8,1.2,1.9,2.3
			c0.1,0.9-0.5,1.7-1.1,2.3c-1.6,1.6-3.9,2.3-6.1,2.3c-0.8,0-1.5-0.1-2.3-0.3c0.3,0.2,0.5,0.3,0.8,0.4c2.1,0.9,4.4,0.8,6.5-0.1
			c2.2-0.9,4.1-2.4,5.7-4c0.9-1,1.6-2.1,2.3-3.3c0.4-0.7,0.8-1.4,1.2-2.1C70,76.9,69.6,77.1,69.1,77.3z"/>
		<path class="st16" d="M67.2,80.2c0.2-0.3,0.5-0.5,0.7-0.8c-0.7,0.4-1.5,0.8-2.3,1.1l0.2-0.8c0-0.1-0.2-0.1-0.3-0.1
			c-0.1,0-0.3,0.1-0.3,0.2c-0.1,0.3-0.1,0.6-0.2,0.9c-1.2,0.4-2.5,0.7-3.8,0.8c-0.4,0-0.7,0-1.1,0.1c0-0.9,0.1-1.7,0.1-2.6
			c0,0,0,0,0,0c0,0-0.1,0.1-0.1,0.1c-0.2,0.2-0.3,0.4-0.4,0.7c0,0,0,0,0,0c0,0.6,0,1.2,0,1.9c-0.8,0-1.7,0-2.5-0.1
			c-1.3-0.1-2.6-0.4-3.8-0.8c-0.2-0.9-0.3-1.7-0.3-2.6c-0.2-0.5-0.4-1-0.6-1.5c0,0,0,0.1,0,0.1c0,1.3,0.1,2.5,0.3,3.8
			c-0.6-0.3-1.2-0.6-1.6-1.1c0.3,0.4,0.6,0.9,0.9,1.3c0.3,0.1,0.5,0.3,0.8,0.4c0.1,0.4,0.2,0.9,0.3,1.3c0.2,0.3,0.5,0.7,0.8,1
			c-0.2-0.7-0.3-1.3-0.5-2c0.9,0.3,1.8,0.5,2.8,0.6c1.1,0.2,2.3,0.2,3.4,0.2c0,0.3,0,0.5,0,0.8c0,0,0,0,0,0c0,0,0,0.1,0,0.1
			c0,0.1,0.1,0.3,0.2,0.4c0,0.1,0.1,0.2,0.1,0.2c0,0,0,0.1,0.1,0.1c0,0,0,0,0,0c0,0,0,0,0,0c0,0,0,0,0,0c0,0,0.1-0.1,0.1-0.1
			c0-0.5,0.1-1.1,0.1-1.6c1.6,0,3.1-0.3,4.6-0.7c0.1,0,0.2-0.1,0.3-0.1c-0.1,0.3-0.1,0.7-0.2,1c0,0.1,0.1,0.1,0.1,0.1c0,0,0,0,0,0
			c0,0,0,0,0,0c0,0,0,0,0,0c0.1-0.1,0.1-0.1,0.2-0.2c0.1-0.1,0.1-0.1,0.2-0.2c0.1-0.3,0.1-0.6,0.2-0.9
			C66.2,80.7,66.7,80.5,67.2,80.2z"/>
	</g>
</g>
</svg>
