<?xml version="1.0" encoding="utf-8"?>
<!-- Generator: Adobe Illustrator 25.4.1, SVG Export Plug-In . SVG Version: 6.00 Build 0)  -->
<svg version="1.1" id="Layer_1" xmlns="http://www.w3.org/2000/svg" xmlns:xlink="http://www.w3.org/1999/xlink" x="0px" y="0px"
	 viewBox="0 0 240.8 207.2" style="enable-background:new 0 0 240.8 207.2;" xml:space="preserve">
<style type="text/css">
	.st0{fill:#95766D;}
	.st1{fill:#F7F0EA;}
	.st2{fill:#E4DFDA;}
	.st3{fill:#523839;}
	.st4{fill:#79695D;}
	.st5{fill:#DBBDA5;}
	.st6{fill:#FFFFFF;}
	.st7{fill:#5E4B44;}
	.st8{clip-path:url(#SVGID_00000101094437455537267730000002956243839917298060_);}
	.st9{fill:#885A54;}
	.st10{fill:#3A0000;}
	.st11{clip-path:url(#SVGID_00000070113069675054327670000003777512270899943320_);}
	.st12{fill:#58453F;}
</style>
<g>
	<g>
		<g>
			<path class="st0" d="M199.8,165.4c-0.1-1.8-0.9-3.4-2.1-4.7c-1.2-1.2-2.8-1.9-4.5-2.1c0.1-0.5,0.2-0.9,0.5-1.4
				c0.1-0.2,0.2-0.6-0.1-0.7c-0.1,0-0.1,0-0.2-0.1c0.1,0,0.1,0,0.2,0c0.3,0,0.3-0.6,0.1-0.8c-2-1.6-4.2-2.7-6.4-3.9
				c-2.3-1.3-4.5-2.7-6.5-4.4c-3.3-2.9-6.1-6.5-8.6-10.2c-0.3-0.4-0.6-0.8-0.9-1.3c-0.9-1.4-1.9-2.8-2.8-4.2
				c-0.8-1.4-1.2-2.8-1.6-4.3c-0.2-0.8-0.4-1.7-0.5-2.5c-0.1-0.2-0.3-0.4-0.5-0.6c-0.7-0.4-1.6-0.3-2.4-0.3c0,0,0,0,0,0
				c0.2-0.3,0.4-0.6,0.5-0.9c-0.3,0-0.7,0-1,0c-0.4,0.1-0.8,0.2-1.2,0.2c-1.2,0.1-2.4,0.1-3.5-0.4c-0.2-0.1-0.4-0.2-0.6-0.3
				c-0.3-0.1-0.6-0.3-0.9-0.5c-4.1-4.7-5.5-10.9-7.1-16.8c-0.4-1.6-0.9-3.2-1.4-4.8c-0.5-1.5-1.1-3.1-1.8-4.5c-0.9-1.7-2.2-3-3.8-4
				c0,0,0,0,0,0c-0.3-0.2-0.6-0.4-0.8-0.5c0,0,0,0.1,0,0.1c-0.5-0.2-0.9-0.5-1.4-0.6c-5.5-2-11.6,0.1-16,3.7
				c-4.2,3.4-7.4,8.2-8.5,13.5c-1,4.6-0.4,9.6,1.8,13.8c0,0,0,0,0,0c0.3,0.5,0.6,1.1,0.9,1.6c0.5,0.8,1.2,1.5,1.8,2.3c0,0,0,0,0,0
				c0.2,0.2,0.4,0.4,0.6,0.6c1.9,1.8,4,3.3,6.4,4.4c2.5,1.1,5.1,2,7.7,2.7c1.9,0.5,3.9,0.9,5.9,1.1c1.7,0.4,3.5,0.7,5.2,0.8
				c3.3,0.3,6.6,0,9.8-0.8c2.2-0.2,4.1,2.1,5.5,3.5c2.2,2.3,4.3,4.8,6.3,7.3c4,5,8,9.9,12,14.9c2,2.5,4,5,6,7.4c0,0,0,0,0,0
				c0.3,0.7,0.6,1.3,0.8,2c0,0,0.1,0.1,0.1,0.1c0.3,0,0.5-0.2,0.6-0.4c0.1-0.3,0.2-0.6,0.3-1c0.1-0.3,0.1-0.6,0.2-0.9
				c0.1,0.3,0.2,0.6,0.4,1c0,0.1,0.2,0.1,0.4,0c0.5,0.3,1,0.5,1.5,0.6c0,0,0,0,0,0c0,0,0,0,0,0c1.9,0.7,3.8,1.2,5.7,1.5
				c0.5,0.1,1.1,0.2,1.6,0.2c0.4,0,0.8,0,1.1-0.4c0.4-0.6,0.4-1.5,0.2-2.2c0.2-0.1,0.3-0.2,0.4-0.4
				C199.9,167.1,199.9,166.1,199.8,165.4z"/>
			<path class="st1" d="M188.8,167.6c-0.2-0.5-0.4-0.9-0.6-1.4c-0.1-0.2-0.5,0.1-0.5,0.2c0,0.5-0.1,1-0.2,1.5
				c-0.1,0.2-0.1,0.5-0.2,0.7c0,0.1,0,0.1-0.1,0.2c-0.1-0.2-0.2-0.5-0.3-0.7c-0.1-0.2-0.1-0.4-0.2-0.6c0-0.1-0.1-0.1-0.1-0.2
				c0,0,0-0.1,0-0.1c0,0,0,0,0,0c-0.2-0.3-0.3-0.5-0.5-0.8l-11.2-14c-2.1-2.6-4.1-5.1-6.2-7.7c-2.1-2.6-4.1-5.1-6.4-7.5
				c-1.4-1.5-3.2-3.6-5.4-3.8c-0.1-0.1-0.1-0.1-0.2-0.1c-0.1,0-0.3,0.1-0.4,0.1c-0.2,0-0.4,0-0.6,0.1c0,0-0.1,0-0.1,0.1
				c-3.6,0.8-7.2,0.9-10.8,0.4c-1.6-0.1-3.3-0.3-4.9-0.4c-1.7-0.2-3.5-0.3-5-1.1c-2-0.5-3.9-1.2-5.8-2c-2.5-1-4.7-2.4-6.7-4.2
				c-0.6-0.6-1.2-1.2-1.8-1.8c-0.2-0.1-0.3-0.3-0.4-0.5c-3-4.1-4.4-9.4-3.8-14.4c0.6-5.4,3.4-10.4,7.4-14c4.2-3.8,10-6.4,15.7-4.9
				c0.9,0.2,1.7,0.6,2.5,1c0.8,0.2,1.6,0.8,2.2,1.4c0.1,0.1,0.1,0.2,0.1,0.2c0.6,0.5,1.1,1.1,1.5,1.7c0.9,1.3,1.5,2.8,2,4.3
				c0.5,1.5,1,3.1,1.4,4.7c1.1,4.1,2.1,8.4,3.8,12.3c0.7,1.3,1.4,2.7,2.2,3.9c0.8,1.1,1.7,2.2,2.8,3c0.4,0.2,0.8,0.3,1.2,0.4
				c1.4,0.2,2.8-0.1,4.2-0.4c-0.3,0.3-0.7,0.6-1.1,0.8c-0.3,0.1-0.6,0.2-0.9,0.3c-0.1,0-0.1,0.1-0.2,0.2c0.6,0.1,1.1,0.2,1.7,0.2
				c0.3,0,0.5-0.1,0.8-0.1c0.7,0,1.5-0.1,2.2,0.2c0.7,0.3,0.8,1.6,1,2.2l0.2,0.6c0,0.1,0,0.1,0,0.2c0.3,2.4,1.6,4.4,2.9,6.3
				c1.4,2.2,2.9,4.5,4.5,6.6c3.2,4.3,6.9,8.1,11.5,10.8c2.2,1.3,4.5,2.4,6.6,3.9c-0.5,0-0.9,0-1.4,0c-0.1,0-0.1,0-0.2,0.1
				c0.3,0.3,0.5,0.6,0.8,0.9c0,0,0,0,0,0c0,0,0.1,0,0.1,0.1c0,0,0,0,0,0c0.1,0,0.2,0.1,0.3,0.1c0.3,0.1,0.6,0.2,1,0.3
				c-0.1,0.3-0.2,0.6-0.3,1c0,0,0,0,0,0c-0.1,0.5-0.1,1.1-0.1,1.6c0,0.4,0.1,0.8,0.2,1.3c0,0,0,0,0,0c0,0.3,0.1,0.6,0.2,0.9
				c0.1,0.2,0.2,0.3,0.1,0.5c-0.1,0.2-0.4,0.3-0.6,0.5c-0.8,0.6-1.8,0.9-2.8,1c-0.2,0-0.3,0.3-0.3,0.4c0,0.3,0,0.5,0,0.7
				c0,0,0,0.1,0,0.1c0,0.2,0,0.3-0.1,0.5c-0.1,0.2-0.1,0.5-0.2,0.7c0,0.1,0,0.2,0,0.2C189.1,166.9,189,167.2,188.8,167.6z"/>
			<path class="st2" d="M188.8,167.6c-0.2-0.5-0.4-0.9-0.6-1.4c-0.1-0.2-0.5,0.1-0.5,0.2c0,0.5-0.1,1-0.2,1.5
				c-0.1,0.2-0.1,0.5-0.2,0.7c0,0.1,0,0.1-0.1,0.2c-0.1-0.2-0.2-0.5-0.3-0.7c-0.1-0.2-0.1-0.4-0.2-0.6c0-0.1-0.1-0.1-0.1-0.2
				c0,0,0-0.1,0-0.1c0,0,0,0,0,0c-0.2-0.3-0.3-0.5-0.5-0.8l-11.2-14c-2.1-2.6-4.1-5.1-6.2-7.7c-2.1-2.6-4.1-5.1-6.4-7.5
				c-1.4-1.5-3.2-3.6-5.4-3.8c-0.1-0.1-0.1-0.1-0.2-0.1c-0.1,0-0.3,0.1-0.4,0.1c-0.2,0-0.4,0-0.6,0.1c0,0-0.1,0-0.1,0.1
				c-3.6,0.8-7.2,0.9-10.8,0.4c-1.6-0.1-3.3-0.3-4.9-0.4c-1.7-0.2-3.5-0.3-5-1.1c-2-0.5-3.9-1.2-5.8-2c-2.5-1-4.7-2.4-6.7-4.2
				c-0.6-0.6-1.2-1.2-1.8-1.8c-0.2-0.1-0.3-0.3-0.4-0.5c-3-4.1-4.4-9.4-3.8-14.4c0.6-5.4,3.4-10.4,7.4-14c4.2-3.8,10-6.4,15.7-4.9
				c0.9,0.2,1.7,0.6,2.5,1c0.8,0.2,1.6,0.8,2.2,1.4c0.1,0.1,0.1,0.2,0.1,0.2c0.6,0.5,1.1,1.1,1.5,1.7c0.9,1.3,1.5,2.8,2,4.3
				c0.5,1.5,1,3.1,1.4,4.7c1.1,4.1,2.1,8.4,3.8,12.3c0.7,1.3,1.4,2.7,2.2,3.9c0.8,1.1,1.7,2.2,2.8,3c0.4,0.2,0.8,0.3,1.2,0.4
				c1.4,0.2,2.8-0.1,4.2-0.4c-0.3,0.3-0.7,0.6-1.1,0.8c-0.3,0.1-0.6,0.2-0.9,0.3c-0.1,0-0.1,0.1-0.2,0.2c0.6,0.1,1.1,0.2,1.7,0.2
				c0.3,0,0.5-0.1,0.8-0.1c0.7,0,1.5-0.1,2.2,0.2c0.7,0.3,0.8,1.6,1,2.2l0.2,0.6c0,0.1,0,0.1,0,0.2c0.3,2.4,1.6,4.4,2.9,6.3
				c1.4,2.2,2.9,4.5,4.5,6.6c3.2,4.3,6.9,8.1,11.5,10.8c2.2,1.3,4.5,2.4,6.6,3.9c-0.5,0-0.9,0-1.4,0c-0.1,0-0.1,0-0.2,0.1
				c0.3,0.3,0.5,0.6,0.8,0.9c0,0,0,0,0,0c0,0,0.1,0,0.1,0.1c0,0,0,0,0,0c0.1,0,0.2,0.1,0.3,0.1c0.3,0.1,0.6,0.2,1,0.3
				c-0.1,0.3-0.2,0.6-0.3,1c0,0,0,0,0,0c-0.1,0.5-0.1,1.1-0.1,1.6c0,0.4,0.1,0.8,0.2,1.3c0,0,0,0,0,0c0,0.3,0.1,0.6,0.2,0.9
				c0.1,0.2,0.2,0.3,0.1,0.5c-0.1,0.2-0.4,0.3-0.6,0.5c-0.8,0.6-1.8,0.9-2.8,1c-0.2,0-0.3,0.3-0.3,0.4c0,0.3,0,0.5,0,0.7
				c0,0,0,0.1,0,0.1c0,0.2,0,0.3-0.1,0.5c-0.1,0.2-0.1,0.5-0.2,0.7c0,0.1,0,0.2,0,0.2C189.1,166.9,189,167.2,188.8,167.6z"/>
			<path class="st2" d="M193.1,161.9c-0.1-0.3-0.2-0.6-0.2-0.9c0,0,0,0,0,0c-0.1-0.4-0.2-0.8-0.2-1.3c0-0.5,0.1-1.1,0.1-1.6
				c0,0,0,0,0,0c0.1-0.3,0.2-0.6,0.3-1c-0.3-0.1-0.6-0.2-1-0.3c-0.1-0.1-0.2-0.1-0.3-0.1c0,0,0,0,0,0c0,0-0.1,0-0.1-0.1c0,0,0,0,0,0
				c-0.3-0.3-0.5-0.6-0.8-0.9c0-0.1,0.1-0.1,0.2-0.1c0.5,0,0.9,0,1.4,0c-2.1-1.5-4.4-2.6-6.6-3.9c-4.6-2.7-8.3-6.5-11.5-10.8
				c-1.6-2.1-3.1-4.4-4.5-6.6c-1.3-2-2.6-4-2.9-6.3c0-0.1,0-0.1,0-0.2l-0.2-0.6c-0.2-0.7-0.3-1.9-1-2.2c-0.6-0.3-1.5-0.2-2.2-0.2
				c-0.3,0-0.5,0.1-0.8,0.1c-0.6-0.1-1.1-0.1-1.7-0.2c0-0.1,0.1-0.2,0.2-0.2c0.3-0.1,0.6-0.2,0.9-0.3c0.4-0.2,0.8-0.5,1.1-0.8
				c-1.4,0.4-2.8,0.6-4.2,0.4c-0.4-0.1-0.8-0.2-1.2-0.4c-1.1-0.8-2-1.9-2.8-3c-0.8-1.2-1.5-2.6-2.2-3.9c-1.7-3.9-2.7-8.2-3.8-12.3
				c-0.4-1.6-0.9-3.1-1.4-4.7c-0.5-1.5-1.1-3-2-4.3c-0.4-0.6-1-1.2-1.5-1.7c0-0.1,0-0.2-0.1-0.2c-0.7-0.5-1.4-1.1-2.2-1.4
				c-0.8-0.4-1.6-0.8-2.5-1c-5.6-1.5-11.5,1.1-15.7,4.9c-4,3.6-6.7,8.6-7.4,14c-0.6,5.1,0.7,10.3,3.8,14.4c0.1,0.1,0.3,0.3,0.4,0.5
				c0.6,0.6,1.2,1.2,1.8,1.8c2,1.8,4.2,3.1,6.7,4.2c1.2,0.5,2.5,1,3.8,1.4c2,0.1,4,0.2,6,0.2c4.2,0.1,8.4-0.1,12.6-0.6
				c2-0.2,4-0.6,5.9-1.1c0.9-0.3,1.8-0.6,2.7-1.1c0.8-0.4,1.6-1,2.5-1.2c0.2-0.1,0.4,0.1,0.3,0.3c-0.3,1.2-1.2,2.1-2.2,2.9
				c1.3-0.4,2.5-0.9,3.9-0.9c0.3,0,0.3,0.3,0.2,0.5c-0.8,1-1.9,1.7-2.6,2.8c2.2,2.6,4.4,5.2,6.6,7.8c3.9,4.7,7.7,9.4,11.1,14.4
				c2.2,3.3,4.2,6.7,6,10.2l0.3,0.3c0.2,0.3,0.3,0.5,0.5,0.8c0,0,0,0,0,0c0,0,0,0.1,0,0.1c0,0.1,0.1,0.1,0.1,0.2
				c0.1,0.2,0.2,0.4,0.2,0.6c0.1,0.2,0.2,0.5,0.3,0.7c0-0.1,0-0.1,0.1-0.2c0.1-0.2,0.1-0.5,0.2-0.7c0.1-0.5,0.2-1,0.2-1.5
				c0-0.2,0.4-0.5,0.5-0.2c0.2,0.4,0.4,0.9,0.6,1.4c0.2-0.3,0.3-0.7,0.4-1.1c0-0.1,0-0.2,0-0.2c0.1-0.2,0.1-0.5,0.2-0.7
				c0-0.2,0-0.3,0.1-0.5c0,0,0-0.1,0-0.1c0-0.2,0-0.5,0-0.7c0-0.2,0.1-0.4,0.3-0.4c1-0.1,2-0.4,2.8-1c0.2-0.1,0.5-0.3,0.6-0.5
				C193.3,162.2,193.2,162.1,193.1,161.9z"/>
			<path class="st2" d="M166.8,127.5l-0.1-0.3c-0.2-0.7-0.3-1.9-1-2.2c-0.6-0.3-1.5-0.2-2.2-0.2c-0.3,0-0.5,0.1-0.8,0.1
				c-0.6-0.1-1.1-0.1-1.7-0.2c0-0.1,0.1-0.2,0.2-0.2c0.3-0.1,0.6-0.2,0.9-0.3c0.4-0.2,0.8-0.5,1.1-0.8c-1.4,0.4-2.8,0.6-4.2,0.4
				c-0.4-0.1-0.8-0.2-1.2-0.4c-1.1-0.8-2-1.9-2.8-3c-0.8-1.2-1.5-2.6-2.2-3.9c-1.7-3.9-2.7-8.2-3.8-12.3c-0.4-1.6-0.9-3.1-1.4-4.7
				c-0.5-1.5-1.1-3-2-4.3c-0.4-0.6-1-1.2-1.5-1.7c0-0.1,0-0.2-0.1-0.2c-0.7-0.5-1.4-1.1-2.2-1.4c-0.8-0.4-1.6-0.8-2.5-1
				c-5.6-1.5-11.5,1.1-15.7,4.9c-4,3.6-6.7,8.6-7.4,14c-0.6,5.1,0.7,10.3,3.8,14.4c0.1,0.1,0.3,0.3,0.4,0.5c0.6,0.6,1.2,1.2,1.8,1.8
				c2,1.8,4.2,3.1,6.7,4.2c1.2,0.5,2.5,1,3.8,1.4c0.2,0,0.5,0,0.7,0c1.6-0.6,3.1-1.3,4.7-1.9c3-1.1,6.1-2,9.3-2.6
				c3.2-0.5,6.5-0.8,9.8-0.8C160.5,126.7,163.8,126.8,166.8,127.5C166.8,127.6,166.8,127.5,166.8,127.5z"/>
			<path class="st2" d="M193.1,161.9c-0.1-0.3-0.2-0.6-0.2-0.9c0,0,0,0,0,0c-0.1-0.4-0.2-0.8-0.2-1.3c0-0.5,0.1-1.1,0.1-1.6
				c0,0,0,0,0,0c0.1-0.3,0.2-0.6,0.3-1c-0.3-0.1-0.6-0.2-1-0.3c-0.1-0.1-0.2-0.1-0.3-0.1c0,0,0,0,0,0c0,0-0.1,0-0.1-0.1c0,0,0,0,0,0
				c-0.3-0.3-0.5-0.6-0.8-0.9c0-0.1,0.1-0.1,0.2-0.1c0.5,0,0.9,0,1.4,0c-2.1-1.5-4.4-2.6-6.6-3.9c-4.6-2.7-8.3-6.5-11.5-10.8
				c-1.6-2.1-3.1-4.4-4.5-6.6c-0.8-1.2-1.6-2.4-2.1-3.7c0.2,1,0.4,2.1,0.8,3.1c2,5.5,5.9,10.3,10.2,14.2c4.2,3.9,9.1,7.4,12.2,12.3
				c0.1,0.2-0.1,0.5-0.3,0.4c-1.5-0.6-3-1.4-4.5-2.1c1.1,1,2,2,2.8,3.3c0.1,0.2-0.1,0.5-0.3,0.4c-0.8-0.3-1.4-0.8-2-1.3
				c0.7,1.3,1.4,2.5,2,3.8c0.2,0.6,0.5,1.2,0.7,1.8c0,0,0-0.1,0-0.1c0-0.1,0-0.2,0-0.2c0.1-0.2,0.1-0.5,0.2-0.7c0-0.2,0-0.3,0.1-0.5
				c0,0,0-0.1,0-0.1c0-0.2,0-0.5,0-0.7c0-0.2,0.1-0.4,0.3-0.4c1-0.1,2-0.4,2.8-1c0.2-0.1,0.5-0.3,0.6-0.5
				C193.3,162.2,193.2,162.1,193.1,161.9z"/>
			<path class="st3" d="M199.1,166.2c0,0.2-0.1,0.4-0.1,0.6c0,0.4-0.2,0.7-0.6,0.9c-0.5,0.2-1.1,0.2-1.6,0.1
				c-1.5-0.3-2.9-0.5-4.4-0.7c1.6,0.6,3.3,1,5,1.3c0.1,0,0.3,0,0.5,0c0,0,0.1,0,0.1,0c0,0,0.1,0,0.1,0c0.2,0,0.4,0.2,0.4,0.4
				c0,0,0,0.1,0,0.1c0,0,0,0.1,0,0.1c0,0.1,0,0.1,0,0.2c0,0,0,0.1,0,0.1c0,0.1,0,0.2-0.1,0.2c0,0,0,0,0,0c0,0.1-0.1,0.1-0.1,0.2
				c0,0,0,0,0,0.1c0,0-0.1,0.1-0.1,0.1c0,0,0,0-0.1,0c0,0-0.1,0.1-0.1,0.1c0,0,0,0-0.1,0c-0.1,0-0.2,0-0.2,0.1
				c-0.4,0-0.9-0.1-1.3-0.1c-0.5-0.1-1-0.2-1.5-0.2c-1.5-0.3-2.9-0.7-4.3-1.2c0,0,0,0,0,0c-0.1,0-0.2-0.1-0.2-0.1
				c-0.1,0-0.1,0-0.2-0.1c-0.2-0.1-0.4-0.2-0.6-0.3c0,0,0,0,0,0c-0.2-0.1-0.3-0.4-0.2-0.6c0-0.1,0.1-0.1,0.1-0.2
				c0-0.1,0.1-0.2,0.1-0.3c0.1-0.1,0.1-0.3,0.1-0.4c0-0.1,0.1-0.2,0.1-0.3c0,0,0-0.1,0-0.1c0-0.1,0.1-0.3,0.1-0.4c0,0,0-0.1,0-0.1
				c0-0.2,0.1-0.4,0.1-0.5c0-0.1,0-0.1,0-0.2c0,0,0,0,0,0c0-0.1,0-0.1,0-0.2c1.1-0.2,2.2-0.6,3.1-1.3c0.3-0.2,0.5-0.5,0.6-0.8
				c-0.2-0.8-0.5-1.6-0.6-2.5c0-0.2,0-0.4,0-0.6c0,0,0-0.1,0-0.1c0,0,0-0.1,0-0.1c0.2,0,0.4,0,0.5,0.1c0,0,0,0,0,0
				c0.2,0,0.5,0.1,0.7,0.1c0,0,0,0,0,0c0.2,0.1,0.4,0.1,0.7,0.2c0,0,0,0,0.1,0c0.2,0.1,0.4,0.2,0.6,0.3c0,0,0.1,0,0.1,0
				c0.1,0.1,0.3,0.1,0.4,0.2c0.7,0.4,1.3,1,1.8,1.8c0.4,0.6,0.7,1.3,0.9,1.9c0,0,0,0,0,0c0,0.2,0.1,0.4,0.1,0.6c0,0.1,0,0.2,0,0.2
				c0,0.2,0,0.3,0,0.5c0,0.1,0,0.2,0,0.2C199.1,165.7,199.1,165.9,199.1,166.2z"/>
		</g>
		<g>
			<path class="st0" d="M40.5,189.5c0.6-1.3,0.4-2.7,0.2-4.1l0.1-0.2c0.1-0.1,0.2-0.3,0.3-0.4c0,0,0,0,0,0.1c0.2,0.2,0.5,0.1,0.7,0
				c0.2-0.1,0.2-0.3,0.2-0.4c0.1-0.1,0.1-0.1,0.1-0.2c0,0,0-0.1,0-0.1c0.1,0.2,0.2,0.4,0.3,0.6c0.2-0.5,0.4-0.9,0.5-1.4
				c0.1-1.4,0.2-2.9,0.5-4.3c0-0.1,0-0.1,0.1-0.1c0.8-8.1,3.1-15.9,5.8-23.6c0.7-1.9,1.3-3.8,2-5.7c0,0,0.1-0.1,0.1-0.1
				c1.6-2,3.2-4.1,3.7-6.7c0.2-1.1,0.2-2.2,0.2-3.3c1-0.2,2-0.5,3.1-0.8c3.1-0.8,6.3-1.7,9.1-3.3c0.8-0.4,1.5-0.9,2.1-1.4
				c-0.3,0.5-0.5,1-0.8,1.5c-0.2,0.3,0.5,0.4,0.7,0.3c1.5-0.6,3-1.5,4.2-2.5c0,0,0,0.1-0.1,0.1c-0.2,0.3,0.4,0.5,0.6,0.4
				c3.6-1.6,6.8-4.2,9.1-7.4c1.6-1.6,3.2-3.2,3.8-5.5c0.6-2.3,0.4-4.6-0.3-6.8c-1.3-4.4-3.9-8.8-8.5-10.4c-1.8-0.6-4.9-1-5.8,1.2
				c-1.3,2.1-2.8,4-4.5,5.9c-1.9,2-9,9.6-9,9.6c-2.2,2.1-4.4,4.1-6.6,6.2c-2.1,2-4.3,4.1-6.3,6.2c-0.5,0.5-0.9,1-1.3,1.6
				c0,0,0,0,0,0c0,0-0.1,0.1-0.1,0.1c-0.2,0.3-0.5,0.7-0.7,1c0,0,0,0,0,0c0,0.1-0.1,0.2-0.1,0.2c0,0,0,0,0,0c0,0,0,0,0,0
				c-0.3,0.5-0.6,1-0.8,1.4c-0.1,0.2-0.2,0.3-0.3,0.5c0,0,0,0,0,0c0,0,0,0,0,0c-0.2,0.3-0.4,0.7-0.6,1c-0.5,1-1,2-1.2,3.1
				c-0.3,1.5,0.2,4.6,0.2,4.7c-1.3,11.9-6.6,22.9-10.7,34c-0.2,0.7-0.5,1.3-0.7,2c-0.2,0.8-0.3,1.5-0.3,2.3c0.1,0,0.2,0,0.4,0
				c0.1,0,0.2,0,0.3,0c0.2-0.1,0.3-0.1,0.5-0.2c0,0.1,0,0.2-0.1,0.4c0,0.2-0.1,0.4-0.1,0.6c0.1,1.5,0.2,3,0.3,4.5
				c0.1,0.5,0.1,0.9,0.2,1.4c0,0.2,0.1,0.4,0.1,0.6c0.1,0.5,0.2,1.1,0.4,1.6c0.1,0.4,0.4,0.6,0.9,0.7c0.5,0,1-0.3,1.5-0.5
				c0.4-0.2,0.7-0.4,1.1-0.6c0.5,0.2,1-0.1,1.5-0.4C38.2,192.1,39.9,191.1,40.5,189.5z"/>
			<path class="st1" d="M32.3,184.2l0.5-1c-0.4,0.2-0.9,0.5-1.3,0.6c0,0-0.1,0-0.1,0c0,0-0.1,0-0.1,0.1c-0.2,0.1-0.8,0.6-1,0.4
				c3.2-9.4,7.5-18.4,10.2-28c0.8-3,1.4-6,1.8-9c0.2,0.3,0.4,0.6,0.6,0.9c-0.1-0.4-0.3-0.8-0.4-1.2c-0.3-1.3-0.6-2.7-0.5-4
				c0.1-1.8,0.6-3.5,1.6-5c0,0,0-0.1,0.1-0.1c0.1-0.3,0.3-0.6,0.5-0.9c0.4-0.7,1-1.2,1.5-1.8c-0.2,0.2-0.3,0.3-0.5,0.5c0,0,0,0,0,0
				c1.2-2.1,3.1-3.7,4.7-5.4c2.1-2.1,4.2-4.1,6.4-6.2c1.1-1.1,2.3-2.2,3.4-3.2c3.1-2.8,6-5.9,8.8-8.9c1.8-2,3.6-4,5-6.3
				c0.1,0,0.1-0.1,0.1-0.1c0-0.1,0.1-0.2,0.1-0.2c0.1-0.2,0.3-0.4,0.4-0.6c0,0,0,0,0,0c1-1.3,3.4-0.8,4.8-0.3
				c1.9,0.7,3.5,2.1,4.7,3.7c1.4,1.8,2.3,4,2.9,6.2c0.5,2,0.8,4.2,0.3,6.2c-0.2,0.7-0.4,1.3-0.7,1.9c-0.8,2.1-2.4,3.7-4.2,5.2
				c-1.8,2.1-4,3.9-6.5,5.2l1.7-2.8c-0.6,0.4-1.2,0.8-1.8,1.1c-1.4,1.6-3,2.9-4.9,3.8c0.4-0.9,0.9-1.8,1.3-2.6c-1,0.7-2,1.5-3.1,2
				c-0.1,0-0.2,0.1-0.2,0.1c-1.5,1-3.3,1.7-5,2.3c-2.5,0.9-5.1,1.6-7.7,2.2c0-0.2,0-0.3,0-0.5c-0.7,0.9-0.6,2.2-0.6,3.3
				c0,0.1,0,0.2-0.1,0.2c0,0.3-0.1,0.5-0.1,0.8c-0.3,2-1.4,3.7-2.6,5.3c0.1-0.2,0.2-0.5,0.3-0.7c0,0,0,0,0,0
				c-0.4,0.7-0.9,1.4-1.4,2.1c0,0.1-0.1,0.1-0.1,0.2c-3.2,8.7-6.2,17.6-7.5,26.8c-0.2,1.1-0.3,2.3-0.4,3.4c0,0.1,0,0.2,0,0.2
				c0,0,0,0,0,0c0,0.4-0.1,0.7-0.1,1.1c0,0.1,0,0.1,0,0.2c0,0.6-0.1,1.1-0.1,1.7c-0.1-0.1-0.1-0.3-0.1-0.4c-0.1,0.3-0.2,0.6-0.4,0.9
				c-0.4,0.5-0.8,1-1.3,1.4c-0.3,0.3-0.7,0.6-1.2,0.6c-0.2,0-0.4-0.1-0.5-0.3c0,0-0.1-0.1-0.1-0.1c-0.7-0.5-1.2-1.2-1.5-2
				c-0.1-0.3-0.5,0-0.6,0.1c-0.5,0.5-1,0.8-1.7,1c-0.1,0-0.3,0.1-0.5,0.1c-0.2,0-0.2,0-0.1-0.3c0.1-0.4,0.3-0.7,0.4-1.1
				c0.2-0.4-0.4-0.3-0.5-0.2C33.8,183.4,33.1,183.9,32.3,184.2z"/>
			<path class="st2" d="M86.4,114.4c-0.6-2.2-1.5-4.4-2.9-6.2c-1.2-1.6-2.8-3-4.7-3.7c-1.4-0.6-3.8-1-4.8,0.3c0,0,0,0,0,0
				c-0.1,0.2-0.2,0.4-0.4,0.6c0,0.1-0.1,0.2-0.1,0.2c0,0.1-0.1,0.1-0.1,0.1c-1.4,2.3-3.2,4.3-5,6.3c-0.6,0.6-1.1,1.2-1.7,1.8
				c0.3,0.2,0.7,0.4,1,0.7c3.4,2.8,4.2,7.9,3,12c-0.1,0.2-0.4,0.3-0.5,0.1c-0.6-1.2-1.2-2.5-2-3.6c0.5,2,0.6,4.2-0.1,6.2
				c-0.1,0.2-0.5,0.3-0.5,0c-0.2-1.4-0.6-2.7-1.2-4c-0.1,1-0.3,2.1-0.7,3.1c-1,2.3-2.8,4.1-4.8,5.6c-2.1,1.6-4.4,2.9-6.6,4.3
				c-0.1,0.1-0.3,0-0.4-0.1c-0.6-1.4-1.5-2.8-2.5-4c0.3,3,0.5,6.1-1.1,8.9c-0.7,1.3-1.8,2.6-3.1,3.3c-1.1,0.6-2.4,0.6-3.5,0
				c-0.9-0.5-1.5-1.3-1.8-2.2c0,1.1,0.3,2.2,0.5,3.3c0,0.2,0.1,0.4,0.1,0.5c0.3,0.4,0.6,0.7,1.1,1c0.6,0.3,1.3,0.5,1.9,0.8
				c0.8,0.4,1.3,1,1.3,1.9c0,1-0.3,2-0.6,2.9c-0.4,1-0.8,2-1.2,3.1c-0.5,1.1-0.8,2.2-1.2,3.3c-1.1,3.4-2.1,6.8-2.7,10.3
				c-0.3,1.8-0.4,3.6-0.5,5.4c-0.1,1.7-0.1,3.5-0.4,5.2c0,0.3-0.4,0.2-0.5,0.1c-1-1.3-1.6-2.9-2.1-4.5c0,1.1,0,2.2,0.1,3.3
				c0,0.3-0.3,0.3-0.5,0.2c-1-0.9-1.3-2.2-1.8-3.4c-0.2,0.5-0.3,1-0.6,1.4c-0.7,1.3-1.6,2.6-2.9,3.3c-0.3,0.1-0.5,0.2-0.8,0.3
				c-0.3,0.8-0.6,1.5-0.8,2.3c0.2,0.2,0.8-0.3,1-0.4c0,0,0.1,0,0.1-0.1c0,0,0.1,0,0.1,0c0.4-0.2,0.9-0.4,1.3-0.6l-0.5,1
				c0.8-0.4,1.6-0.8,2.2-1.4c0.2-0.1,0.7-0.2,0.5,0.2c-0.1,0.4-0.3,0.7-0.4,1.1c-0.1,0.3-0.1,0.3,0.1,0.3c0.2,0,0.3-0.1,0.5-0.1
				c0.6-0.2,1.2-0.5,1.7-1c0.1-0.1,0.5-0.4,0.6-0.1c0.3,0.8,0.8,1.5,1.5,2c0,0,0.1,0.1,0.1,0.1c0.1,0.2,0.3,0.3,0.5,0.3
				c0.5,0,0.8-0.4,1.2-0.6c0.5-0.4,0.9-0.9,1.3-1.4c0.2-0.3,0.3-0.6,0.4-0.9c0,0.1,0.1,0.3,0.1,0.4c0-0.6,0.1-1.1,0.1-1.7
				c0-0.1,0-0.1,0-0.2c0-0.4,0.1-0.7,0.1-1.1c0,0,0,0,0,0c0-0.1,0-0.2,0-0.2c0.1-1.1,0.2-2.3,0.4-3.4c1.3-9.2,4.4-18.1,7.5-26.8
				c0-0.1,0.1-0.1,0.1-0.2c0.5-0.7,1-1.4,1.4-2.1c0,0,0,0,0,0c-0.1,0.2-0.2,0.5-0.3,0.7c1.2-1.6,2.2-3.3,2.6-5.3
				c0-0.3,0.1-0.5,0.1-0.8c0,0,0.1-0.1,0.1-0.2c0-1.1,0-2.4,0.6-3.3c0,0.2,0,0.3,0,0.5c2.6-0.6,5.2-1.3,7.7-2.2
				c1.7-0.6,3.5-1.3,5-2.3c0.1,0,0.2,0,0.2-0.1c1.1-0.5,2.2-1.2,3.1-2c-0.4,0.9-0.9,1.8-1.3,2.6c1.9-0.9,3.6-2.2,4.9-3.8
				c0.6-0.4,1.2-0.7,1.8-1.1l-1.7,2.8c2.5-1.3,4.7-3.1,6.5-5.2c1.8-1.4,3.4-3.1,4.2-5.2c0.3-0.6,0.6-1.2,0.7-1.9
				C87.2,118.5,87,116.4,86.4,114.4z"/>
			<path class="st2" d="M55,139.4c-0.4-0.6-0.9-1.2-1.4-1.7c-0.1,1.1-0.2,2.2-0.4,3.2c-0.8,4-2.8,7.5-5.5,10.4
				c0.4-0.1,0.7-0.3,1-0.5c0.2-0.1,0.4,0.1,0.4,0.3c-0.2,1.4-0.4,2.7-0.6,4.1c0,0.3-0.1,0.6-0.1,0.9c0.7-2.2,1.5-4.3,2.3-6.5
				c0-0.1,0.1-0.1,0.1-0.2c0.5-0.7,1-1.4,1.4-2.1c0,0,0,0,0,0c-0.1,0.2-0.2,0.5-0.3,0.7c1.2-1.6,2.2-3.3,2.6-5.3
				c0-0.3,0.1-0.5,0.1-0.8c0,0,0.1-0.1,0.1-0.2C54.8,141,54.8,140.1,55,139.4z"/>
			<path class="st2" d="M86.4,114.4c-0.6-2.2-1.5-4.4-2.9-6.2c-1.2-1.6-2.8-3-4.7-3.7c-1.4-0.6-3.8-1-4.8,0.3c0,0,0,0,0,0
				c-0.1,0.2-0.2,0.4-0.4,0.6c0,0.1-0.1,0.2-0.1,0.2c0,0.1-0.1,0.1-0.1,0.1c-1.4,2.2-3.1,4.2-4.8,6.1c0.4,0.5,0.9,0.9,1.3,1.4
				c3.6,4.3,5.8,9.4,6.1,15c0,0.3-0.5,0.4-0.5,0.1c-0.4-1.2-0.9-2.3-1.5-3.4c0,1-0.1,2-0.6,3c-0.6,1.2-1.5,2.1-2.4,3
				c-1.3,1.2-2.6,2.3-4,3.4c-1,0.8-2,1.5-3,2.2c1.5-0.5,2.9-1.2,4.2-2.1c0.1,0,0.2,0,0.2-0.1c1.1-0.5,2.2-1.2,3.1-2
				c-0.4,0.9-0.9,1.8-1.3,2.6c1.9-0.9,3.6-2.2,4.9-3.8c0.6-0.4,1.2-0.7,1.8-1.1l-1.7,2.8c2.5-1.3,4.7-3.1,6.5-5.2
				c1.8-1.4,3.4-3.1,4.2-5.2c0.3-0.6,0.6-1.2,0.7-1.9C87.2,118.5,87,116.4,86.4,114.4z"/>
			<path class="st3" d="M37,192.2c-0.3,0.2-0.6,0.5-1,0.5c0,0,0,0,0,0c0,0,0,0-0.1,0.1c-0.3,0.2-0.7,0-0.8-0.3
				c-0.3-0.6-0.4-1.2-0.6-1.9c-0.2-0.6-0.3-1.3-0.5-1.9c-0.2-0.6-0.4-1.2-0.6-1.8c0,0.2-0.1,0.3-0.1,0.5c0.2,1.3,0.5,2.6,0.8,3.9
				c0.1,0.6,0.4,1.2,0.8,1.7c-0.2,0.1-0.4,0.2-0.6,0.3c-0.4,0.2-0.9,0.5-1.3,0.4c-0.6,0-0.6-0.7-0.8-1.1c-0.1-0.5-0.3-1-0.4-1.6
				c-0.3-1.4-0.5-2.8-0.5-4.2c0-0.4,0-0.8,0.1-1.3c0-0.2,0-0.3,0.1-0.5c0.1,0,0.1,0,0.2,0c0.8-0.3,1.6-0.7,2.3-1.2
				c0,0.1-0.1,0.1-0.1,0.2c-0.1,0.2-0.2,0.4-0.2,0.6c0.1,0.4,0.6,0.3,0.9,0.2c0.8-0.2,1.6-0.6,2.2-1.1c0.4,0.9,1.2,1.9,2.2,2.2
				c0.1,0,0.2,0,0.3,0.1c0.3-0.1,0.5-0.2,0.8-0.3c0.2,1.6,0.4,3.3-0.9,4.6C38.6,191.1,37.8,191.7,37,192.2z"/>
			<path class="st3" d="M35.9,186.8c1,0.6,1.7,1.3,2.1,2.4c0.3,0.6,0.4,1.3,0.5,2c0.3-0.2,0.6-0.5,0.9-0.8c1.3-1.3,1.1-3,0.9-4.6
				c-0.3,0.1-0.5,0.2-0.8,0.3c-0.1,0-0.2,0-0.3-0.1c-1-0.3-1.8-1.3-2.2-2.2c-0.7,0.5-1.4,0.9-2.2,1.1c-0.3,0.1-0.9,0.2-0.9-0.2
				c0-0.2,0.1-0.5,0.2-0.6c0-0.1,0.1-0.1,0.1-0.2c-0.7,0.5-1.5,0.9-2.3,1.2c-0.1,0-0.1,0-0.2,0c0,0.2-0.1,0.3-0.1,0.5
				c0,0.4-0.1,0.7-0.1,1.1C32.8,185.9,34.5,186,35.9,186.8z"/>
		</g>
		<g>
			<path class="st0" d="M193.7,85.9c0-0.4,0-0.7,0-1.1c0,0,0,0,0,0c-2,0.8-4.2,1-6.3,0.7c0.6-0.5,1.1-1.3,1.4-2.1
				c0.1-0.2,0-0.4-0.2-0.3c-3.5,1-6.9-1.1-9.4-3.4c-2.5-2.3-4.8-5-7.8-6.7c-1.5-0.9-3.1-1.5-4.9-1.8c0.2,0.7,0.4,1.4,0.6,2.1
				c2.5,4.8,3.9,10.1,6.7,14.8c1.4,2.3,3.1,4.5,5.5,5.9c2.4,1.3,5.1,1.4,7.6,0.6c1.4-0.5,2.7-1.3,3.9-2.2c0.6-0.5,1.4-1.2,1.9-2
				c0.1-0.6,0.2-1.2,0.2-1.8c-1.1,0.6-2.3,1-3.5,1.1C191.3,88.9,192.9,87.7,193.7,85.9z"/>
			<path class="st1" d="M187.5,89.7C187.5,89.7,187.5,89.7,187.5,89.7c1.2,0.5,2.6,0.5,3.9,0.1c0.1,0,0.1,0,0.1,0
				c0.4-0.1,0.8-0.3,1.2-0.5c-0.2,1.2-1.5,2.3-2.4,2.9c-1,0.8-2.2,1.4-3.5,1.8c-2.5,0.8-5.1,0.4-7.3-1c-2.2-1.4-3.9-3.6-5.2-5.9
				c-1.4-2.4-2.4-4.9-3.4-7.5c-1-2.6-2.1-5.2-3.5-7.6c2.8,0.8,5.3,2.5,7.5,4.5c2.6,2.4,4.8,5.3,8.1,6.7c1.6,0.7,3.3,0.9,5,0.6
				c-0.3,0.6-0.8,1.3-1.3,1.5c-0.7-0.2-1.3-0.4-2-0.7c0.1,0.2,0.2,0.3,0.4,0.5c0.1,0.1,0.2,0.1,0.2,0.2c0.3,0.2,0.5,0.4,0.8,0.5
				c0.1,0.1,0.2,0.1,0.3,0.1c0,0,0,0,0,0c2.2,0.5,4.6,0.3,6.7-0.5C192.4,87.9,189.9,89.2,187.5,89.7z"/>
			<path class="st1" d="M189.2,87.5c-1,0.3-2.1,0.4-3.1,0.3c-0.9-0.1-1.8-0.4-2.7-0.6c0.3,0.6,0.8,1.1,1.4,1.4
				c0.7,0.4,1.4,0.8,2.2,1c0.2,0.1,0.4,0.1,0.5,0.2c0,0,0,0,0,0c2.4-0.5,4.8-1.8,5.7-4.2C192,86.4,190.6,87.1,189.2,87.5z"/>
			<path class="st1" d="M184.8,85.5c0.8,0.3,1.8,0.6,2.7,0.6c-0.3,0-0.7-0.1-1-0.2c0,0,0,0,0,0c-0.1,0-0.2-0.1-0.3-0.1
				c-0.3-0.2-0.5-0.3-0.8-0.5c-0.1-0.1-0.2-0.1-0.2-0.2c-0.2-0.2-0.3-0.3-0.4-0.5c0.6,0.3,1.3,0.5,2,0.7c0.6-0.3,1-0.9,1.3-1.5
				c-1,0.2-1.9,0.2-2.9,0c-0.3,0-0.6-0.1-0.8-0.1c-1-0.2-2-0.5-3-0.9C182.1,84.1,183.5,85,184.8,85.5z"/>
			<path class="st1" d="M187.2,92.6c-1.1-0.1-2.3-0.5-3.2-1.1c-1-0.7-1.8-1.6-2.5-2.5c-1.4-1.9-2.5-4.1-3.6-6.3
				c-1.5-2.8-3-5.6-5.1-8c-1.6-1.2-3.4-2.1-5.3-2.7c1.4,2.4,2.4,5,3.5,7.6c1,2.5,2,5.1,3.4,7.5c1.3,2.3,2.9,4.4,5.2,5.9
				c2.2,1.4,4.8,1.7,7.3,1c1.1-0.3,2.1-0.9,3.1-1.5C189,92.7,188.1,92.7,187.2,92.6z"/>
		</g>
		<path class="st0" d="M237.1,166.6c-0.1-1.8-0.9-3.4-2.1-4.7c-1.2-1.2-2.8-1.9-4.5-2.1c0.1-0.5,0.2-0.9,0.5-1.4
			c0.1-0.2,0.2-0.6-0.1-0.7c-0.1,0-0.1,0-0.2-0.1c0.1,0,0.1,0,0.2,0c0.3,0,0.3-0.6,0.1-0.8c-2-1.6-4.2-2.7-6.4-3.9
			c-2.3-1.3-4.5-2.7-6.5-4.4c-3.3-2.9-6.1-6.5-8.6-10.2c-0.3-0.4-0.6-0.8-0.9-1.3c-0.9-1.4-1.9-2.8-2.8-4.2
			c-0.8-1.4-1.2-2.8-1.6-4.3c-0.2-0.8-0.4-1.7-0.5-2.5c-0.1-0.2-0.3-0.4-0.5-0.6c-0.7-0.4-1.6-0.3-2.4-0.3c0,0,0,0,0,0
			c0.2-0.3,0.4-0.6,0.5-0.9c-0.3,0-0.7,0-1,0c-0.4,0.1-0.8,0.2-1.2,0.2c-1.2,0.1-2.4,0.1-3.5-0.4c-0.2-0.1-0.4-0.2-0.6-0.3
			c-1-0.5-1.8-1.2-2.6-2c-2.1-2-4.1-4.1-6.1-6.2c-0.9-1.2-1.8-2.4-2.6-3.8c-0.9-1.6-1.5-3.4-2-5.2c-0.5-2-0.8-4.1-1-6.1
			c0-3.3-0.4-6.7-1.2-9.9c-1-4-2.5-7.8-4.6-11.4c-1.1-1.9-2.5-3.7-4-5.4c-1.2-1.4-2.6-2.6-4.2-3.5c-5.1-3.5-11.2-5.1-17.4-5.5
			c-7.2-0.4-14.4,0.9-21.3,2.8c-7.7,2.1-15.3,4.7-23.1,6.2c-4.1,0.8-8.2,1.2-12.3,0.1c-3.5-1-6.8-2.7-9.9-4.5
			C77,65.7,71.7,61,67.6,55.4c-0.5-0.7-1-1.4-1.5-2.1c-0.2-0.3-0.8,0.3-0.6,0.6c0.2,0.4,0.5,0.7,0.7,1c-4.1,6.2-7.5,12.9-10,19.9
			c-0.7,1.8-1.3,3.7-1.8,5.6c-0.2,0.1-0.3,0.4-0.2,0.5c0,0,0,0,0,0c0,0.2,0,0.2,0.1,0.2c3.6,5,5.3,11.1,6.3,17.1
			c0.3,1.8,0.5,3.6,0.7,5.4c0,0.4,0.5,0,0.6-0.1c0.2-0.5,0.4-1.1,0.6-1.6c0.3,2.5,0.9,5,1.8,7.3c0.1,0.3,0.7-0.2,0.7-0.4
			c0-0.5,0-1.1,0-1.6c0.8,3,2.2,5.8,4.2,8.2c1.2,1.5,2.6,2.8,4.2,3.9c1.2,1.6,2.5,3.2,4,4.6c3.8,3.7,8.3,6.5,13.2,8.5
			c2.9,1.1,5.9,2,8.9,2.8c1.9,0.9,3.8,1.6,5.8,2.2c1.2,0.4,2.5,0.7,3.7,0.9c0.8,0.2,1.6,0.3,2.4,0.4c2.6,0,5.2-0.2,7.7-0.8
			c0.7-0.2,1.3-0.3,2-0.6c4.6-1.5,8.8-4.1,13-6.5c4.2-2.4,8.5-4.7,13.2-5.7c2.9-0.6,5.7-0.4,8.7-0.3c0.1,0,0.2,0,0.2,0
			c0.7,0.9,1.5,1.7,2.3,2.5c1.9,1.8,4,3.3,6.4,4.4c2.5,1.1,5.1,2,7.7,2.7c1.9,0.5,3.9,0.9,5.9,1.1c1.7,0.4,3.5,0.7,5.2,0.8
			c3.3,0.3,6.6,0,9.8-0.8c2.2-0.2,4.1,2.1,5.5,3.5c2.2,2.3,4.3,4.8,6.3,7.3c4,5,8,9.9,12,14.9c2,2.5,4,5,6,7.4c0,0,0,0,0,0
			c0.3,0.7,0.6,1.3,0.8,2c0,0,0.1,0.1,0.1,0.1c0.3,0,0.5-0.2,0.6-0.4c0.1-0.3,0.2-0.7,0.3-1c0.1-0.3,0.1-0.6,0.2-0.9
			c0.1,0.3,0.2,0.6,0.4,1c0,0.1,0.2,0.1,0.4,0c0.5,0.3,1,0.5,1.5,0.6c0,0,0,0,0,0c0,0,0,0,0,0c1.9,0.7,3.8,1.2,5.7,1.5
			c0.5,0.1,1.1,0.2,1.6,0.2c0.4,0,0.8,0,1.1-0.4c0.4-0.6,0.4-1.5,0.2-2.2c0.2-0.1,0.3-0.2,0.4-0.4
			C237.2,168.4,237.2,167.4,237.1,166.6z"/>
		<path class="st0" d="M226.1,168.9c-0.2-0.5-0.4-0.9-0.6-1.4c-0.1-0.2-0.5,0.1-0.5,0.2c0,0.5-0.1,1-0.2,1.5
			c-0.1,0.2-0.1,0.5-0.2,0.7c0,0.1,0,0.1-0.1,0.2c-0.1-0.2-0.2-0.5-0.3-0.7c-0.1-0.2-0.1-0.4-0.2-0.6c0-0.1-0.1-0.1-0.1-0.2
			c0,0,0-0.1,0-0.1c0,0,0,0,0,0c-0.2-0.3-0.3-0.5-0.5-0.8l-11.2-14c-2.1-2.6-4.1-5.1-6.2-7.7c-2.1-2.6-4.1-5.1-6.4-7.5
			c-1.4-1.5-3.2-3.6-5.4-3.8c-0.1-0.1-0.1-0.1-0.2-0.1c-0.1,0-0.3,0.1-0.4,0.1c-0.2,0-0.4,0-0.6,0.1c0,0-0.1,0-0.1,0.1
			c-3.6,0.8-7.2,0.9-10.8,0.4c-1.6-0.1-3.3-0.3-4.9-0.4c-1.7-0.2-3.5-0.3-5-1.1c-2-0.5-3.9-1.2-5.8-2c-2.5-1-4.7-2.4-6.7-4.2
			c-0.6-0.6-1.2-1.2-1.8-1.8c-2.7-2.6-4.8-5.8-6.6-9.1c1.2,2.8,2.7,5.3,4.6,7.7c-2.3-0.1-4.7-0.2-7,0.1c-4.7,0.6-9,2.7-13.1,5
			c-4.2,2.3-8.3,4.9-12.8,6.7c-2.3,0.9-4.8,1.6-7.3,1.8c-0.9,0.1-1.9,0.1-2.8,0.1c-2-0.2-4-0.6-6-1.1c-0.4-0.1-0.8-0.2-1.3-0.4
			c-1-0.1-2-0.3-2.9-0.6c-2.2-0.6-4.2-1.6-6.1-2.7c-1.6-0.9-3.1-1.8-4.6-2.7c0,0.1,0,0.1,0.1,0.2c1.3,0.9,2.7,1.8,4.1,2.6
			c-4-1.2-8-2.7-11.6-4.9c-3.5-2.2-6.7-4.9-9.3-8.1c1.6,0.9,3.4,1.5,5.2,1.8c2.5,0.4,5,0.1,7.1-1.3c-0.3,0.1-0.6,0.2-0.9,0.3
			c-0.5,0.1-1.1,0.2-1.6,0.3c-2.4,0.6-5.1,0.2-7.5-0.8c-1.3-0.3-2.5-1-3.5-1.8c0,0-0.1,0-0.1-0.1c0,0,0,0,0,0c0,0,0,0-0.1,0
			c-0.7-0.5-1.3-1-1.9-1.6c-0.1-0.1-0.3-0.2-0.4-0.4c0,0.1,0.1,0.2,0.1,0.2c-2.2-2-4-4.5-5.2-7.2c0-0.1-0.1-0.2-0.1-0.2
			c-1.1-2-1.7-4.2-2.2-6.4c0,1.3,0,2.5-0.1,3.8c-0.5-1.7-0.9-3.4-1.2-5.2c-0.3-0.8-0.6-1.6-0.8-2.4c0-0.2-0.1-0.3-0.1-0.5
			c0,1.1-0.1,2.1-0.4,3.1c-0.6-5.9-1.7-11.8-4.3-17.2C56.8,83.4,56,82,55,80.7c2-7.1,4.9-13.9,8.5-20.3c1-1.7,2-3.3,3.1-5
			c3.7,5.1,8.3,9.6,13.5,13.1c2.9,2,6,3.7,9.3,5c1.7,0.7,3.5,1.3,5.4,1.5c2,0.3,4.1,0.3,6.1,0c4-0.4,7.9-1.4,11.7-2.5
			c3.8-1,7.6-2.2,11.5-3.3c7.2-2.1,14.5-3.9,22-3.9c6.6-0.1,13.4,1.2,19.1,4.6c0,0.1,0,0.2,0.1,0.3c0.5,0.2,0.9,0.4,1.3,0.6
			c0.3,0.2,0.7,0.5,1,0.7c0,0,0.1,0,0.2,0c0.9,0.6,1.7,1.4,2.5,2.2c1.4,1.4,2.6,3,3.6,4.6c2.2,3.3,3.8,7,4.9,10.8
			c0.3,1,0.6,2,0.8,3.1c0.3,1.7,0.6,3.5,0.7,5.2c0.2,0.9,0.3,1.9,0.4,2.8c0.1,1.1,0.2,2.2,0.4,3.3c0.4,2.5,1,5,2.1,7.3
			c1,1.8,2.1,3.6,3.3,5.2c1.9,2,3.8,4,5.8,6c1.3,1.2,2.6,2.5,4.4,2.8c1.4,0.2,2.8-0.1,4.2-0.4c-0.3,0.3-0.7,0.6-1.1,0.8
			c-0.3,0.1-0.6,0.2-0.9,0.3c-0.1,0-0.1,0.1-0.2,0.2c0.6,0.1,1.1,0.2,1.7,0.2c0.3,0,0.5-0.1,0.8-0.1c0.7,0,1.5-0.1,2.2,0.2
			c0.7,0.3,0.8,1.6,1,2.2l0.2,0.6c0,0.1,0,0.1,0,0.2c0.3,2.4,1.6,4.4,2.9,6.3c1.4,2.2,2.9,4.5,4.5,6.6c3.2,4.3,6.9,8.1,11.5,10.8
			c2.2,1.3,4.5,2.4,6.6,3.9c-0.5,0-0.9,0-1.4,0c-0.1,0-0.1,0-0.2,0.1c0.3,0.3,0.5,0.6,0.8,0.9c0,0,0,0,0,0c0,0,0.1,0,0.1,0.1
			c0,0,0,0,0,0c0.1,0,0.2,0.1,0.3,0.1c0.3,0.1,0.6,0.2,1,0.3c-0.1,0.3-0.2,0.6-0.3,1c0,0,0,0,0,0c-0.1,0.5-0.1,1.1-0.1,1.6
			c0,0.4,0.1,0.8,0.2,1.3c0,0,0,0,0,0c0,0.3,0.1,0.6,0.2,0.9c0.1,0.2,0.2,0.3,0.1,0.5c-0.1,0.2-0.4,0.3-0.6,0.5
			c-0.8,0.6-1.8,0.9-2.8,1c-0.2,0-0.3,0.3-0.3,0.4c0,0.3,0,0.5,0,0.7c0,0,0,0.1,0,0.1c0,0.2,0,0.3-0.1,0.5c-0.1,0.2-0.1,0.5-0.2,0.7
			c0,0.1,0,0.2,0,0.2C226.4,168.2,226.3,168.5,226.1,168.9z"/>
		<path class="st0" d="M236.3,168.1c0,0.4-0.2,0.7-0.6,0.9c-0.5,0.2-1.1,0.2-1.6,0.1c-1.5-0.3-2.9-0.5-4.4-0.7c1.6,0.6,3.3,1,5,1.3
			c0.1,0,0.3,0,0.5,0c0,0,0.1,0,0.1,0c0,0,0.1,0,0.1,0c0.2,0,0.4,0.2,0.4,0.4c0,0,0,0.1,0,0.1c0,0,0,0.1,0,0.1c0,0.1,0,0.1,0,0.2
			c0,0,0,0.1,0,0.1c0,0.1,0,0.2-0.1,0.2c0,0,0,0,0,0c0,0.1-0.1,0.1-0.1,0.2c0,0,0,0,0,0.1c0,0-0.1,0.1-0.1,0.1c0,0,0,0-0.1,0
			c0,0-0.1,0.1-0.1,0.1c0,0,0,0-0.1,0c-0.1,0-0.2,0-0.2,0.1c-0.4,0-0.9-0.1-1.3-0.1c-0.5-0.1-1-0.2-1.5-0.2
			c-1.5-0.3-2.9-0.7-4.3-1.2c0,0,0,0,0,0c-0.1,0-0.2-0.1-0.2-0.1c-0.1,0-0.1,0-0.2-0.1c-0.2-0.1-0.4-0.2-0.6-0.3c0,0,0,0,0,0
			c-0.2-0.1-0.3-0.4-0.2-0.6c0-0.1,0.1-0.1,0.1-0.2c0-0.1,0.1-0.2,0.1-0.3c0.1-0.1,0.1-0.3,0.1-0.4c0-0.1,0.1-0.2,0.1-0.3
			c0,0,0-0.1,0-0.1c0-0.1,0.1-0.3,0.1-0.4c0,0,0-0.1,0-0.1c0-0.2,0.1-0.4,0.1-0.5c0-0.1,0-0.1,0-0.2c0,0,0,0,0,0c0-0.1,0-0.1,0-0.2
			c1.1-0.2,2.2-0.6,3.1-1.3c0.3-0.2,0.5-0.5,0.6-0.8c-0.2-0.8-0.5-1.6-0.6-2.5c0-0.2,0-0.4,0-0.6c0,0,0-0.1,0-0.1c0,0,0-0.1,0-0.1
			c0.2,0,0.4,0,0.5,0.1c0,0,0,0,0,0c0.2,0,0.5,0.1,0.7,0.1c0,0,0,0,0,0c0.2,0.1,0.4,0.1,0.7,0.2c0,0,0,0,0.1,0
			c0.2,0.1,0.4,0.2,0.6,0.3c0,0,0.1,0,0.1,0c0.1,0.1,0.3,0.1,0.4,0.2c0.7,0.4,1.3,1,1.8,1.8c0.4,0.6,0.7,1.3,0.9,1.9c0,0,0,0,0,0
			c0,0.2,0.1,0.4,0.1,0.6c0,0.1,0,0.2,0,0.2c0,0.2,0,0.3,0,0.5c0,0.1,0,0.2,0,0.2c0,0.2,0,0.5,0,0.7
			C236.4,167.7,236.3,167.9,236.3,168.1z"/>
		<path class="st0" d="M237.1,166.6c-0.1-1.8-0.9-3.4-2.1-4.7c-1.2-1.2-2.8-1.9-4.5-2.1c0.1-0.5,0.2-0.9,0.5-1.4
			c0.1-0.2,0.2-0.6-0.1-0.7c-0.1,0-0.1,0-0.2-0.1c0.1,0,0.1,0,0.2,0c0.3,0,0.3-0.6,0.1-0.8c-2-1.6-4.2-2.7-6.4-3.9
			c-2.3-1.3-4.5-2.7-6.5-4.4c-3.3-2.9-6.1-6.5-8.6-10.2c-0.3-0.4-0.6-0.8-0.9-1.3c-0.9-1.4-1.9-2.8-2.8-4.2
			c-0.8-1.4-1.2-2.8-1.6-4.3c-0.2-0.8-0.4-1.7-0.5-2.5c-0.1-0.2-0.3-0.4-0.5-0.6c-0.7-0.4-1.6-0.3-2.4-0.3c0,0,0,0,0,0
			c0.2-0.3,0.4-0.6,0.5-0.9c-0.3,0-0.7,0-1,0c-0.4,0.1-0.8,0.2-1.2,0.2c-1.2,0.1-2.4,0.1-3.5-0.4c-0.2-0.1-0.4-0.2-0.6-0.3
			c-1-0.5-1.8-1.2-2.6-2c-2.1-2-4.1-4.1-6.1-6.2c-0.9-1.2-1.8-2.4-2.6-3.8c-0.9-1.6-1.5-3.4-2-5.2c-0.5-2-0.8-4.1-1-6.1
			c0-3.3-0.4-6.7-1.2-9.9c-1-4-2.5-7.8-4.6-11.4c-1.1-1.9-2.5-3.7-4-5.4c-1.2-1.4-2.6-2.6-4.2-3.5c-5.1-3.5-11.2-5.1-17.4-5.5
			c-7.2-0.4-14.4,0.9-21.3,2.8c-7.7,2.1-15.3,4.7-23.1,6.2c-4.1,0.8-8.2,1.2-12.3,0.1c-3.5-1-6.8-2.7-9.9-4.5
			C77,65.7,71.7,61,67.6,55.4c-0.5-0.7-1-1.4-1.5-2.1c-0.2-0.3-0.8,0.3-0.6,0.6c0.2,0.4,0.5,0.7,0.7,1c-4.1,6.2-7.5,12.9-10,19.9
			c-0.7,1.8-1.3,3.7-1.8,5.6c-0.2,0.1-0.3,0.4-0.2,0.5c0,0,0,0,0,0c0,0.2,0,0.2,0.1,0.2c3.6,5,5.3,11.1,6.3,17.1
			c0.3,1.8,0.5,3.6,0.7,5.4c0,0.4,0.5,0,0.6-0.1c0.2-0.5,0.4-1.1,0.6-1.6c0.3,2.5,0.9,5,1.8,7.3c0.1,0.3,0.7-0.2,0.7-0.4
			c0-0.5,0-1.1,0-1.6c0.8,3,2.2,5.8,4.2,8.2c1.2,1.5,2.6,2.8,4.2,3.9c1.2,1.6,2.5,3.2,4,4.6c3.8,3.7,8.3,6.5,13.2,8.5
			c2.9,1.1,5.9,2,8.9,2.8c1.9,0.9,3.8,1.6,5.8,2.2c1.2,0.4,2.5,0.7,3.7,0.9c0.8,0.2,1.6,0.3,2.4,0.4c2.6,0,5.2-0.2,7.7-0.8
			c0.7-0.2,1.3-0.3,2-0.6c4.6-1.5,8.8-4.1,13-6.5c4.2-2.4,8.5-4.7,13.2-5.7c2.9-0.6,5.7-0.4,8.7-0.3c0.1,0,0.2,0,0.2,0
			c0.7,0.9,1.5,1.7,2.3,2.5c1.9,1.8,4,3.3,6.4,4.4c2.5,1.1,5.1,2,7.7,2.7c1.9,0.5,3.9,0.9,5.9,1.1c1.7,0.4,3.5,0.7,5.2,0.8
			c3.3,0.3,6.6,0,9.8-0.8c2.2-0.2,4.1,2.1,5.5,3.5c2.2,2.3,4.3,4.8,6.3,7.3c4,5,8,9.9,12,14.9c2,2.5,4,5,6,7.4c0,0,0,0,0,0
			c0.3,0.7,0.6,1.3,0.8,2c0,0,0.1,0.1,0.1,0.1c0.3,0,0.5-0.2,0.6-0.4c0.1-0.3,0.2-0.7,0.3-1c0.1-0.3,0.1-0.6,0.2-0.9
			c0.1,0.3,0.2,0.6,0.4,1c0,0.1,0.2,0.1,0.4,0c0.5,0.3,1,0.5,1.5,0.6c0,0,0,0,0,0c0,0,0,0,0,0c1.9,0.7,3.8,1.2,5.7,1.5
			c0.5,0.1,1.1,0.2,1.6,0.2c0.4,0,0.8,0,1.1-0.4c0.4-0.6,0.4-1.5,0.2-2.2c0.2-0.1,0.3-0.2,0.4-0.4
			C237.2,168.4,237.2,167.4,237.1,166.6z"/>
		<path class="st0" d="M226.1,168.9c-0.2-0.5-0.4-0.9-0.6-1.4c-0.1-0.2-0.5,0.1-0.5,0.2c0,0.5-0.1,1-0.2,1.5
			c-0.1,0.2-0.1,0.5-0.2,0.7c0,0.1,0,0.1-0.1,0.2c-0.1-0.2-0.2-0.5-0.3-0.7c-0.1-0.2-0.1-0.4-0.2-0.6c0-0.1-0.1-0.1-0.1-0.2
			c0,0,0-0.1,0-0.1c0,0,0,0,0,0c-0.2-0.3-0.3-0.5-0.5-0.8l-11.2-14c-2.1-2.6-4.1-5.1-6.2-7.7c-2.1-2.6-4.1-5.1-6.4-7.5
			c-1.4-1.5-3.2-3.6-5.4-3.8c-0.1-0.1-0.1-0.1-0.2-0.1c-0.1,0-0.3,0.1-0.4,0.1c-0.2,0-0.4,0-0.6,0.1c0,0-0.1,0-0.1,0.1
			c-3.6,0.8-7.2,0.9-10.8,0.4c-1.6-0.1-3.3-0.3-4.9-0.4c-1.7-0.2-3.5-0.3-5-1.1c-2-0.5-3.9-1.2-5.8-2c-2.5-1-4.7-2.4-6.7-4.2
			c-0.6-0.6-1.2-1.2-1.8-1.8c-2.7-2.6-4.8-5.8-6.6-9.1c1.2,2.8,2.7,5.3,4.6,7.7c-2.3-0.1-4.7-0.2-7,0.1c-4.7,0.6-9,2.7-13.1,5
			c-4.2,2.3-8.3,4.9-12.8,6.7c-2.3,0.9-4.8,1.6-7.3,1.8c-0.9,0.1-1.9,0.1-2.8,0.1c-2-0.2-4-0.6-6-1.1c-0.4-0.1-0.8-0.2-1.3-0.4
			c-1-0.1-2-0.3-2.9-0.6c-2.2-0.6-4.2-1.6-6.1-2.7c-1.6-0.9-3.1-1.8-4.6-2.7c0,0.1,0,0.1,0.1,0.2c1.3,0.9,2.7,1.8,4.1,2.6
			c-4-1.2-8-2.7-11.6-4.9c-3.5-2.2-6.7-4.9-9.3-8.1c1.6,0.9,3.4,1.5,5.2,1.8c2.5,0.4,5,0.1,7.1-1.3c-0.3,0.1-0.6,0.2-0.9,0.3
			c-0.5,0.1-1.1,0.2-1.6,0.3c-2.4,0.6-5.1,0.2-7.5-0.8c-1.3-0.3-2.5-1-3.5-1.8c0,0-0.1,0-0.1-0.1c0,0,0,0,0,0c0,0,0,0-0.1,0
			c-0.7-0.5-1.3-1-1.9-1.6c-0.1-0.1-0.3-0.2-0.4-0.4c0,0.1,0.1,0.2,0.1,0.2c-2.2-2-4-4.5-5.2-7.2c0-0.1-0.1-0.2-0.1-0.2
			c-1.1-2-1.7-4.2-2.2-6.4c0,1.3,0,2.5-0.1,3.8c-0.5-1.7-0.9-3.4-1.2-5.2c-0.3-0.8-0.6-1.6-0.8-2.4c0-0.2-0.1-0.3-0.1-0.5
			c0,1.1-0.1,2.1-0.4,3.1c-0.6-5.9-1.7-11.8-4.3-17.2C56.8,83.4,56,82,55,80.7c2-7.1,4.9-13.9,8.5-20.3c1-1.7,2-3.3,3.1-5
			c3.7,5.1,8.3,9.6,13.5,13.1c2.9,2,6,3.7,9.3,5c1.7,0.7,3.5,1.3,5.4,1.5c2,0.3,4.1,0.3,6.1,0c4-0.4,7.9-1.4,11.7-2.5
			c3.8-1,7.6-2.2,11.5-3.3c7.2-2.1,14.5-3.9,22-3.9c6.6-0.1,13.4,1.2,19.1,4.6c0,0.1,0,0.2,0.1,0.3c0.5,0.2,0.9,0.4,1.3,0.6
			c0.3,0.2,0.7,0.5,1,0.7c0,0,0.1,0,0.2,0c0.9,0.6,1.7,1.4,2.5,2.2c1.4,1.4,2.6,3,3.6,4.6c2.2,3.3,3.8,7,4.9,10.8
			c0.3,1,0.6,2,0.8,3.1c0.3,1.7,0.6,3.5,0.7,5.2c0.2,0.9,0.3,1.9,0.4,2.8c0.1,1.1,0.2,2.2,0.4,3.3c0.4,2.5,1,5,2.1,7.3
			c1,1.8,2.1,3.6,3.3,5.2c1.9,2,3.8,4,5.8,6c1.3,1.2,2.6,2.5,4.4,2.8c1.4,0.2,2.8-0.1,4.2-0.4c-0.3,0.3-0.7,0.6-1.1,0.8
			c-0.3,0.1-0.6,0.2-0.9,0.3c-0.1,0-0.1,0.1-0.2,0.2c0.6,0.1,1.1,0.2,1.7,0.2c0.3,0,0.5-0.1,0.8-0.1c0.7,0,1.5-0.1,2.2,0.2
			c0.7,0.3,0.8,1.6,1,2.2l0.2,0.6c0,0.1,0,0.1,0,0.2c0.3,2.4,1.6,4.4,2.9,6.3c1.4,2.2,2.9,4.5,4.5,6.6c3.2,4.3,6.9,8.1,11.5,10.8
			c2.2,1.3,4.5,2.4,6.6,3.9c-0.5,0-0.9,0-1.4,0c-0.1,0-0.1,0-0.2,0.1c0.3,0.3,0.5,0.6,0.8,0.9c0,0,0,0,0,0c0,0,0.1,0,0.1,0.1
			c0,0,0,0,0,0c0.1,0,0.2,0.1,0.3,0.1c0.3,0.1,0.6,0.2,1,0.3c-0.1,0.3-0.2,0.6-0.3,1c0,0,0,0,0,0c-0.1,0.5-0.1,1.1-0.1,1.6
			c0,0.4,0.1,0.8,0.2,1.3c0,0,0,0,0,0c0,0.3,0.1,0.6,0.2,0.9c0.1,0.2,0.2,0.3,0.1,0.5c-0.1,0.2-0.4,0.3-0.6,0.5
			c-0.8,0.6-1.8,0.9-2.8,1c-0.2,0-0.3,0.3-0.3,0.4c0,0.3,0,0.5,0,0.7c0,0,0,0.1,0,0.1c0,0.2,0,0.3-0.1,0.5c-0.1,0.2-0.1,0.5-0.2,0.7
			c0,0.1,0,0.2,0,0.2C226.4,168.2,226.3,168.5,226.1,168.9z"/>
		<path class="st0" d="M236.3,168.1c0,0.4-0.2,0.7-0.6,0.9c-0.5,0.2-1.1,0.2-1.6,0.1c-1.5-0.3-2.9-0.5-4.4-0.7c1.6,0.6,3.3,1,5,1.3
			c0.1,0,0.3,0,0.5,0c0,0,0.1,0,0.1,0c0,0,0.1,0,0.1,0c0.2,0,0.4,0.2,0.4,0.4c0,0,0,0.1,0,0.1c0,0,0,0.1,0,0.1c0,0.1,0,0.1,0,0.2
			c0,0,0,0.1,0,0.1c0,0.1,0,0.2-0.1,0.2c0,0,0,0,0,0c0,0.1-0.1,0.1-0.1,0.2c0,0,0,0,0,0.1c0,0-0.1,0.1-0.1,0.1c0,0,0,0-0.1,0
			c0,0-0.1,0.1-0.1,0.1c0,0,0,0-0.1,0c-0.1,0-0.2,0-0.2,0.1c-0.4,0-0.9-0.1-1.3-0.1c-0.5-0.1-1-0.2-1.5-0.2
			c-1.5-0.3-2.9-0.7-4.3-1.2c0,0,0,0,0,0c-0.1,0-0.2-0.1-0.2-0.1c-0.1,0-0.1,0-0.2-0.1c-0.2-0.1-0.4-0.2-0.6-0.3c0,0,0,0,0,0
			c-0.2-0.1-0.3-0.4-0.2-0.6c0-0.1,0.1-0.1,0.1-0.2c0-0.1,0.1-0.2,0.1-0.3c0.1-0.1,0.1-0.3,0.1-0.4c0-0.1,0.1-0.2,0.1-0.3
			c0,0,0-0.1,0-0.1c0-0.1,0.1-0.3,0.1-0.4c0,0,0-0.1,0-0.1c0-0.2,0.1-0.4,0.1-0.5c0-0.1,0-0.1,0-0.2c0,0,0,0,0,0c0-0.1,0-0.1,0-0.2
			c1.1-0.2,2.2-0.6,3.1-1.3c0.3-0.2,0.5-0.5,0.6-0.8c-0.2-0.8-0.5-1.6-0.6-2.5c0-0.2,0-0.4,0-0.6c0,0,0-0.1,0-0.1c0,0,0-0.1,0-0.1
			c0.2,0,0.4,0,0.5,0.1c0,0,0,0,0,0c0.2,0,0.5,0.1,0.7,0.1c0,0,0,0,0,0c0.2,0.1,0.4,0.1,0.7,0.2c0,0,0,0,0.1,0
			c0.2,0.1,0.4,0.2,0.6,0.3c0,0,0.1,0,0.1,0c0.1,0.1,0.3,0.1,0.4,0.2c0.7,0.4,1.3,1,1.8,1.8c0.4,0.6,0.7,1.3,0.9,1.9c0,0,0,0,0,0
			c0,0.2,0.1,0.4,0.1,0.6c0,0.1,0,0.2,0,0.2c0,0.2,0,0.3,0,0.5c0,0.1,0,0.2,0,0.2c0,0.2,0,0.5,0,0.7
			C236.4,167.7,236.3,167.9,236.3,168.1z"/>
		<path class="st0" d="M237.1,166.6c-0.1-1.8-0.9-3.4-2.1-4.7c-1.2-1.2-2.8-1.9-4.5-2.1c0.1-0.5,0.2-0.9,0.5-1.4
			c0.1-0.2,0.2-0.6-0.1-0.7c-0.1,0-0.1,0-0.2-0.1c0.1,0,0.1,0,0.2,0c0.3,0,0.3-0.6,0.1-0.8c-2-1.6-4.2-2.7-6.4-3.9
			c-2.3-1.3-4.5-2.7-6.5-4.4c-3.3-2.9-6.1-6.5-8.6-10.2c-0.3-0.4-0.6-0.8-0.9-1.3c-0.9-1.4-1.9-2.8-2.8-4.2
			c-0.8-1.4-1.2-2.8-1.6-4.3c-0.2-0.8-0.4-1.7-0.5-2.5c-0.1-0.2-0.3-0.4-0.5-0.6c-0.7-0.4-1.6-0.3-2.4-0.3c0,0,0,0,0,0
			c0.2-0.3,0.4-0.6,0.5-0.9c-0.3,0-0.7,0-1,0c-0.4,0.1-0.8,0.2-1.2,0.2c-1.2,0.1-2.4,0.1-3.5-0.4c-0.2-0.1-0.4-0.2-0.6-0.3
			c-1-0.5-1.8-1.2-2.6-2c-2.1-2-4.1-4.1-6.1-6.2c-0.9-1.2-1.8-2.4-2.6-3.8c-0.9-1.6-1.5-3.4-2-5.2c-0.5-2-0.8-4.1-1-6.1
			c0-3.3-0.4-6.7-1.2-9.9c-1-4-2.5-7.8-4.6-11.4c-1.1-1.9-2.5-3.7-4-5.4c-1.2-1.4-2.6-2.6-4.2-3.5c-5.1-3.5-11.2-5.1-17.4-5.5
			c-7.2-0.4-14.4,0.9-21.3,2.8c-7.7,2.1-15.3,4.7-23.1,6.2c-4.1,0.8-8.2,1.2-12.3,0.1c-3.5-1-6.8-2.7-9.9-4.5
			C77,65.7,71.7,61,67.6,55.4c-0.5-0.7-1-1.4-1.5-2.1c-0.2-0.3-0.8,0.3-0.6,0.6c0.2,0.4,0.5,0.7,0.7,1c-4.1,6.2-7.5,12.9-10,19.9
			c-0.7,1.8-1.3,3.7-1.8,5.6c-0.2,0.1-0.3,0.4-0.2,0.5c0,0,0,0,0,0c0,0.2,0,0.2,0.1,0.2c3.6,5,5.3,11.1,6.3,17.1
			c0.3,1.8,0.5,3.6,0.7,5.4c0,0.4,0.5,0,0.6-0.1c0.2-0.5,0.4-1.1,0.6-1.6c0.3,2.5,0.9,5,1.8,7.3c0.1,0.3,0.7-0.2,0.7-0.4
			c0-0.5,0-1.1,0-1.6c0.8,3,2.2,5.8,4.2,8.2c1.2,1.5,2.6,2.8,4.2,3.9c1.2,1.6,2.5,3.2,4,4.6c3.8,3.7,8.3,6.5,13.2,8.5
			c2.9,1.1,5.9,2,8.9,2.8c1.9,0.9,3.8,1.6,5.8,2.2c1.2,0.4,2.5,0.7,3.7,0.9c0.8,0.2,1.6,0.3,2.4,0.4c2.6,0,5.2-0.2,7.7-0.8
			c0.7-0.2,1.3-0.3,2-0.6c4.6-1.5,8.8-4.1,13-6.5c4.2-2.4,8.5-4.7,13.2-5.7c2.9-0.6,5.7-0.4,8.7-0.3c0.1,0,0.2,0,0.2,0
			c0.7,0.9,1.5,1.7,2.3,2.5c1.9,1.8,4,3.3,6.4,4.4c2.5,1.1,5.1,2,7.7,2.7c1.9,0.5,3.9,0.9,5.9,1.1c1.7,0.4,3.5,0.7,5.2,0.8
			c3.3,0.3,6.6,0,9.8-0.8c2.2-0.2,4.1,2.1,5.5,3.5c2.2,2.3,4.3,4.8,6.3,7.3c4,5,8,9.9,12,14.9c2,2.5,4,5,6,7.4c0,0,0,0,0,0
			c0.3,0.7,0.6,1.3,0.8,2c0,0,0.1,0.1,0.1,0.1c0.3,0,0.5-0.2,0.6-0.4c0.1-0.3,0.2-0.7,0.3-1c0.1-0.3,0.1-0.6,0.2-0.9
			c0.1,0.3,0.2,0.6,0.4,1c0,0.1,0.2,0.1,0.4,0c0.5,0.3,1,0.5,1.5,0.6c0,0,0,0,0,0c0,0,0,0,0,0c1.9,0.7,3.8,1.2,5.7,1.5
			c0.5,0.1,1.1,0.2,1.6,0.2c0.4,0,0.8,0,1.1-0.4c0.4-0.6,0.4-1.5,0.2-2.2c0.2-0.1,0.3-0.2,0.4-0.4
			C237.2,168.4,237.2,167.4,237.1,166.6z"/>
		<path class="st1" d="M226.1,168.9c-0.2-0.5-0.4-0.9-0.6-1.4c-0.1-0.2-0.5,0.1-0.5,0.2c0,0.5-0.1,1-0.2,1.5
			c-0.1,0.2-0.1,0.5-0.2,0.7c0,0.1,0,0.1-0.1,0.2c-0.1-0.2-0.2-0.5-0.3-0.7c-0.1-0.2-0.1-0.4-0.2-0.6c0-0.1-0.1-0.1-0.1-0.2
			c0,0,0-0.1,0-0.1c0,0,0,0,0,0c-0.2-0.3-0.3-0.5-0.5-0.8l-11.2-14c-2.1-2.6-4.1-5.1-6.2-7.7c-2.1-2.6-4.1-5.1-6.4-7.5
			c-1.4-1.5-3.2-3.6-5.4-3.8c-0.1-0.1-0.1-0.1-0.2-0.1c-0.1,0-0.3,0.1-0.4,0.1c-0.2,0-0.4,0-0.6,0.1c0,0-0.1,0-0.1,0.1
			c-3.6,0.8-7.2,0.9-10.8,0.4c-1.6-0.1-3.3-0.3-4.9-0.4c-1.7-0.2-3.5-0.3-5-1.1c-2-0.5-3.9-1.2-5.8-2c-2.5-1-4.7-2.4-6.7-4.2
			c-0.6-0.6-1.2-1.2-1.8-1.8c-2.7-2.6-4.8-5.8-6.6-9.1c1.2,2.8,2.7,5.3,4.6,7.7c-2.3-0.1-4.7-0.2-7,0.1c-4.7,0.6-9,2.7-13.1,5
			c-4.2,2.3-8.3,4.9-12.8,6.7c-2.3,0.9-4.8,1.6-7.3,1.8c-0.9,0.1-1.9,0.1-2.8,0.1c-2-0.2-4-0.6-6-1.1c-0.4-0.1-0.8-0.2-1.3-0.4
			c-1-0.1-2-0.3-2.9-0.6c-2.2-0.6-4.2-1.6-6.1-2.7c-1.6-0.9-3.1-1.8-4.6-2.7c0,0.1,0,0.1,0.1,0.2c1.3,0.9,2.7,1.8,4.1,2.6
			c-4-1.2-8-2.7-11.6-4.9c-3.5-2.2-6.7-4.9-9.3-8.1c1.6,0.9,3.4,1.5,5.2,1.8c2.5,0.4,5,0.1,7.1-1.3c-0.3,0.1-0.6,0.2-0.9,0.3
			c-0.5,0.1-1.1,0.2-1.6,0.3c-2.4,0.6-5.1,0.2-7.5-0.8c-1.3-0.3-2.5-1-3.5-1.8c0,0-0.1,0-0.1-0.1c0,0,0,0,0,0c0,0,0,0-0.1,0
			c-0.7-0.5-1.3-1-1.9-1.6c-0.1-0.1-0.3-0.2-0.4-0.4c0,0.1,0.1,0.2,0.1,0.2c-2.2-2-4-4.5-5.2-7.2c0-0.1-0.1-0.2-0.1-0.2
			c-1.1-2-1.7-4.2-2.2-6.4c0,1.3,0,2.5-0.1,3.8c-0.5-1.7-0.9-3.4-1.2-5.2c-0.3-0.8-0.6-1.6-0.8-2.4c0-0.2-0.1-0.3-0.1-0.5
			c0,1.1-0.1,2.1-0.4,3.1c-0.6-5.9-1.7-11.8-4.3-17.2C56.8,83.4,56,82,55,80.7c2-7.1,4.9-13.9,8.5-20.3c1-1.7,2-3.3,3.1-5
			c3.7,5.1,8.3,9.6,13.5,13.1c2.9,2,6,3.7,9.3,5c1.7,0.7,3.5,1.3,5.4,1.5c2,0.3,4.1,0.3,6.1,0c4-0.4,7.9-1.4,11.7-2.5
			c3.8-1,7.6-2.2,11.5-3.3c7.2-2.1,14.5-3.9,22-3.9c6.6-0.1,13.4,1.2,19.1,4.6c0,0.1,0,0.2,0.1,0.3c0.5,0.2,0.9,0.4,1.3,0.6
			c0.3,0.2,0.7,0.5,1,0.7c0,0,0.1,0,0.2,0c0.9,0.6,1.7,1.4,2.5,2.2c1.4,1.4,2.6,3,3.6,4.6c2.2,3.3,3.8,7,4.9,10.8
			c0.3,1,0.6,2,0.8,3.1c0.3,1.7,0.6,3.5,0.7,5.2c0.2,0.9,0.3,1.9,0.4,2.8c0.1,1.1,0.2,2.2,0.4,3.3c0.4,2.5,1,5,2.1,7.3
			c1,1.8,2.1,3.6,3.3,5.2c1.9,2,3.8,4,5.8,6c1.3,1.2,2.6,2.5,4.4,2.8c1.4,0.2,2.8-0.1,4.2-0.4c-0.3,0.3-0.7,0.6-1.1,0.8
			c-0.3,0.1-0.6,0.2-0.9,0.3c-0.1,0-0.1,0.1-0.2,0.2c0.6,0.1,1.1,0.2,1.7,0.2c0.3,0,0.5-0.1,0.8-0.1c0.7,0,1.5-0.1,2.2,0.2
			c0.7,0.3,0.8,1.6,1,2.2l0.2,0.6c0,0.1,0,0.1,0,0.2c0.3,2.4,1.6,4.4,2.9,6.3c1.4,2.2,2.9,4.5,4.5,6.6c3.2,4.3,6.9,8.1,11.5,10.8
			c2.2,1.3,4.5,2.4,6.6,3.9c-0.5,0-0.9,0-1.4,0c-0.1,0-0.1,0-0.2,0.1c0.3,0.3,0.5,0.6,0.8,0.9c0,0,0,0,0,0c0,0,0.1,0,0.1,0.1
			c0,0,0,0,0,0c0.1,0,0.2,0.1,0.3,0.1c0.3,0.1,0.6,0.2,1,0.3c-0.1,0.3-0.2,0.6-0.3,1c0,0,0,0,0,0c-0.1,0.5-0.1,1.1-0.1,1.6
			c0,0.4,0.1,0.8,0.2,1.3c0,0,0,0,0,0c0,0.3,0.1,0.6,0.2,0.9c0.1,0.2,0.2,0.3,0.1,0.5c-0.1,0.2-0.4,0.3-0.6,0.5
			c-0.8,0.6-1.8,0.9-2.8,1c-0.2,0-0.3,0.3-0.3,0.4c0,0.3,0,0.5,0,0.7c0,0,0,0.1,0,0.1c0,0.2,0,0.3-0.1,0.5c-0.1,0.2-0.1,0.5-0.2,0.7
			c0,0.1,0,0.2,0,0.2C226.4,168.2,226.3,168.5,226.1,168.9z"/>
		<path class="st2" d="M101.9,136c-0.9-1.1-1.8-2.2-2.7-3.2c-1.2-1.4-2.4-2.6-3.7-3.9c-1.1-1.1-2-2.2-3.1-3.3
			c-0.9-0.9-1.9-1.8-2.6-3c-0.3-0.4-0.5-0.9-0.5-1.5c0-0.6,0.3-1.1,0.7-1.6c0.9-1.1,2-1.9,2.9-3c0.9-1.2,1.8-2.5,2.5-3.9
			c0.6-1.1,1.1-2.3,1.3-3.6c-0.1,0.1-0.2,0.3-0.4,0.4c-2.6,2.8-5.4,5.6-8.8,7.4c-1.6,0.9-3.4,1.5-5.3,1.8c-1.9,0.2-3.9,0-5.7-0.7
			c-2.9-1.1-5.2-3.3-6.7-6c-1.5-2.7-2.3-5.9-2.7-9c-0.4-2.6-0.4-5.3-0.4-8c-0.9,1.9-1.1,4-1.7,6c-0.1,0.3-0.4,0.2-0.5,0
			c-1.1-3.1-0.4-6.3-0.3-9.5c-0.9,2.1-1.7,4.3-1.9,6.6c0,0.3-0.4,0.4-0.5,0.1c-0.4-1-0.7-2-1.1-3c0.5,2.3,0.8,4.7,1,7
			c0.3-1,0.4-2.1,0.4-3.1c0,0.2,0.1,0.3,0.1,0.5c0.2,0.8,0.5,1.6,0.8,2.4c0.2,1.8,0.6,3.5,1.2,5.2c0-1.3,0-2.5,0.1-3.8
			c0.5,2.2,1.1,4.4,2.2,6.4c0,0.1,0.1,0.2,0.1,0.2c1.2,2.7,3,5.2,5.2,7.2c0-0.1-0.1-0.2-0.1-0.2c0.1,0.1,0.3,0.2,0.4,0.4
			c0.6,0.6,1.2,1.1,1.9,1.6c0,0,0,0,0.1,0c0,0,0,0,0,0c0,0,0.1,0,0.1,0.1c1.1,0.8,2.2,1.5,3.5,1.8c2.4,0.9,5.1,1.4,7.5,0.8
			c0.5-0.1,1.1-0.2,1.6-0.3c0.3-0.1,0.6-0.2,0.9-0.3c-2.1,1.4-4.7,1.7-7.1,1.3c-1.8-0.3-3.6-0.9-5.2-1.8c2.6,3.2,5.8,5.9,9.3,8.1
			c3.6,2.2,7.5,3.7,11.6,4.9c-1.4-0.8-2.8-1.7-4.1-2.6c-0.1,0-0.1-0.1-0.1-0.2c1.5,1,3,1.9,4.6,2.7
			C98.4,134.5,100.1,135.4,101.9,136z"/>
		<path class="st2" d="M157.2,125.3c-0.3-0.5-0.6-0.9-0.9-1.4c-1.3-2.1-2.4-4.4-3.4-6.6c-0.6-1.4-1.1-2.7-1.6-4.1
			c-0.4-1.2-0.6-2.4-0.7-3.6c-0.1-1.3-0.2-2.5-0.3-3.8c-0.1-0.9-0.3-1.9-0.6-2.8c-0.2,0.3-0.4,0.7-0.5,1c-1.7,4-1,8.5-2.2,12.7
			c-1,3.4-4.6,4.7-7.6,5.9c-4,1.5-8,3.1-12.2,3.9c-1.8,0.4-4,0.7-5.8,0.1c-1.6-0.6-2.8-2.2-3.6-3.6c-0.8-1.5-1.3-3.2-2.1-4.7
			c-0.7-1.5-1.6-2.8-2.9-3.7c0.5,2.7,0.3,5.5-0.4,8.2c-0.7,2.3-1.7,4.6-3.1,6.5c-1.3,1.7-2.8,3.1-4.5,4.3c-1.2,0.8-2.4,1.6-3.7,2.2
			c0.6,0.2,1.2,0.5,1.9,0.7c1,0.3,1.9,0.5,2.9,0.6c0.4,0.1,0.8,0.3,1.3,0.4c2,0.5,4,0.9,6,1.1c0.9,0,1.9,0,2.8-0.1
			c2.5-0.3,4.9-0.9,7.3-1.8c4.5-1.8,8.6-4.4,12.8-6.7c4.1-2.3,8.4-4.4,13.1-5c2.3-0.3,4.7-0.2,7-0.1c-1.9-2.3-3.5-4.9-4.6-7.7
			C152.9,119.9,154.8,122.9,157.2,125.3z"/>
		<path class="st2" d="M230.4,163.2c-0.1-0.3-0.2-0.6-0.2-0.9c0,0,0,0,0,0c-0.1-0.4-0.2-0.8-0.2-1.3c0-0.5,0.1-1.1,0.1-1.6
			c0,0,0,0,0,0c0.1-0.3,0.2-0.6,0.3-1c-0.3-0.1-0.6-0.2-1-0.3c-0.1-0.1-0.2-0.1-0.3-0.1c0,0,0,0,0,0c0,0-0.1,0-0.1-0.1c0,0,0,0,0,0
			c-0.3-0.3-0.5-0.6-0.8-0.9c0-0.1,0.1-0.1,0.2-0.1c0.5,0,0.9,0,1.4,0c-2.1-1.5-4.4-2.6-6.6-3.9c-4.6-2.7-8.3-6.5-11.5-10.8
			c-1.6-2.1-3.1-4.4-4.5-6.6c-1.3-2-2.6-4-2.9-6.3c0-0.1,0-0.1,0-0.2l-0.2-0.6c-0.2-0.7-0.3-1.9-1-2.2c-0.6-0.3-1.5-0.2-2.2-0.2
			c-0.3,0-0.5,0.1-0.8,0.1c-0.6-0.1-1.1-0.1-1.7-0.2c0-0.1,0.1-0.2,0.2-0.2c0.3-0.1,0.6-0.2,0.9-0.3c0.4-0.2,0.8-0.5,1.1-0.8
			c-1.4,0.4-2.8,0.6-4.2,0.4c-1.8-0.3-3.2-1.5-4.4-2.8c-2-1.9-3.9-3.9-5.8-6c-1.2-1.7-2.3-3.4-3.3-5.2c-1.1-2.3-1.7-4.8-2.1-7.3
			c-0.1-1.1-0.2-2.2-0.4-3.3c-0.1-0.9-0.2-1.9-0.4-2.8c-0.2-1.8-0.4-3.5-0.7-5.2c-0.2-1-0.5-2.1-0.8-3.1c-1.1-3.8-2.7-7.5-4.9-10.8
			c-1.1-1.6-2.3-3.2-3.6-4.6c-0.8-0.8-1.6-1.5-2.5-2.2c-0.1,0-0.1,0-0.2,0c-0.3-0.3-0.7-0.5-1-0.7c-0.4-0.2-0.9-0.5-1.3-0.6
			c-0.1,0-0.1-0.2-0.1-0.3c-5.7-3.5-12.5-4.7-19.1-4.6c-7.5,0.1-14.8,1.9-22,3.9c-3.8,1.1-7.6,2.3-11.5,3.3c-3.9,1-7.8,2-11.7,2.5
			c-2,0.2-4.1,0.3-6.1,0c-1.8-0.3-3.6-0.8-5.4-1.5c-3.3-1.3-6.4-3.1-9.3-5c-5.2-3.5-9.8-8-13.5-13.1c-1.1,1.6-2.1,3.3-3.1,5
			C59.9,66.7,57,73.6,55,80.7c1,1.3,1.8,2.8,2.5,4.2c0.9-0.3,1.9-0.6,2.8-0.9c2.9-0.9,5.7-2,8.3-3.5c2.6-1.6,4.9-3.7,6.3-6.5
			c0.1-0.2,0.4-0.2,0.5,0.1c1,3.7,0.2,7.7-1.3,11.2c0.7-0.7,1.2-1.7,1.6-2.6c0.5-1.3,0.9-2.6,1.2-4c0.1-0.2,0.3-0.3,0.5-0.1
			c2,1.8,3.9,3.7,5.6,5.8c0.4,0.5,0.8,1,1.2,1.6c-0.6-1.8-1.2-3.6-1.7-5.4c-0.1-0.3,0.3-0.5,0.5-0.2c0.3,0.4,0.7,0.9,1,1.2
			c3,3.2,7.6,4.3,11.8,4.3c2.2,0,4.4-0.3,6.5-0.9c2.1-0.6,4.1-1.6,6.1-2.5c4.8-2.3,9.7-4.6,14.7-6.6c5-1.9,10.2-3.5,15.6-3.8
			c5.2-0.3,10.4,0.6,15,3.2c0.2,0.1,0.2,0.4-0.1,0.5c-1.3,0.5-2.7,0.4-4.1,0.4c2.1,1.4,4.1,2.8,5.6,4.8c0.1,0.1,0,0.4-0.2,0.4
			c-1.1,0.3-2.1,0.1-3.1-0.3c2.1,2,3.6,4.6,4.7,7.3c1.4,3.5,2.2,7.2,3,10.9c0.6,3,1.2,6.1,2.2,9c1.2,1.8,2.5,3.6,3.9,5.3
			c4,4.8,8.9,8.8,14.6,11.3c1.5,0.7,3.1,1.2,4.7,1.6c1.6,0.4,3.3,0.6,4.9,0.9c3.3,0.6,6.5,1.4,9.1,3.6c0.2,0.1,0.1,0.4-0.1,0.5
			c-0.6,0.1-1.2,0.2-1.8,0.2c2.3,0.8,4.2,3.1,5.6,5c-0.1-0.9-0.3-1.9-0.3-2.8c0-0.2,0.3-0.4,0.5-0.2c1.6,1.7,2.9,3.6,4.1,5.5
			c1.1,1.8,2.2,3.5,3.5,5.2c1.3,1.7,2.7,3.3,4.3,4.7c3.2,2.9,6.8,5.4,10.2,8c0.2,0.1,0.2,0.5-0.1,0.5c-1.4-0.1-2.7-0.6-4.1-0.9
			c1.4,1.4,2.8,2.6,3.7,4.4c0.1,0.2-0.1,0.6-0.4,0.4c-1.1-0.8-2.3-1.6-3.5-2.2c1,1.5,2,3.1,2.7,4.7c0.7,1.6,1.2,3.3,1.5,5.1
			c0.1-0.5,0.2-1,0.2-1.5c0-0.2,0.4-0.5,0.5-0.2c0.2,0.4,0.4,0.9,0.6,1.4c0.2-0.3,0.3-0.7,0.4-1.1c0-0.1,0-0.2,0-0.2
			c0.1-0.2,0.1-0.5,0.2-0.7c0-0.2,0-0.3,0.1-0.5c0,0,0-0.1,0-0.1c0-0.2,0-0.5,0-0.7c0-0.2,0.1-0.4,0.3-0.4c1-0.1,2-0.4,2.8-1
			c0.2-0.1,0.5-0.3,0.6-0.5C230.6,163.5,230.5,163.4,230.4,163.2z"/>
		<path class="st2" d="M72.8,72.7c0.8-1.1,1.8-2.7,3.4-2.4c0.9,0.2,1.6,0.7,2.3,1.1c1,0.6,2.1,1.2,3.2,1.7c2.1,1.1,4.4,1.9,6.7,2.6
			c5.1,1.5,10.3,1.9,15.6,1.6c10.4-0.7,20.4-4.2,30.4-7c4.6-1.3,9.2-2.3,14-2.3c4,0,8,0.7,11.7,2.2c6.2,2.6,11.9,7.6,13.1,14.4
			c0.7,2.6,0.8,5.3,0.7,8c-0.1,2.5-0.5,5-1,7.5c1.2-1.7,2.1-3.7,2.5-5.8c0.1-0.3,0.5-0.2,0.5,0.1c0.1,2.9-0.5,5.8-0.7,8.7
			c0.5-1.4,1-2.7,1.7-4c0.1-0.3,0.5-0.1,0.5,0.1c0.3,2.9,0.7,5.7,1.6,8.5c0.8,2.3,1.8,4.6,3.1,6.6c1.4,2.2,3.1,4.2,5,5.9
			c1.7,1.4,3.8,2.5,5.9,3c-0.4-0.3-0.8-0.7-1.1-1c-2-1.9-3.9-3.9-5.8-6c-1.2-1.7-2.3-3.4-3.3-5.2c-1.1-2.3-1.7-4.8-2.1-7.3
			c-0.1-1.1-0.2-2.2-0.4-3.3c-0.1-0.9-0.2-1.9-0.4-2.8c-0.2-1.8-0.4-3.5-0.7-5.2c-0.2-1-0.5-2.1-0.8-3.1c-1.1-3.8-2.7-7.5-4.9-10.8
			c-1.1-1.6-2.3-3.2-3.6-4.6c-0.8-0.8-1.6-1.5-2.5-2.2c-0.1,0-0.1,0-0.2,0c-0.3-0.3-0.7-0.5-1-0.7c-0.4-0.2-0.9-0.5-1.3-0.6
			c-0.1,0-0.1-0.2-0.1-0.3c-5.7-3.5-12.5-4.7-19.1-4.6c-7.5,0.1-14.8,1.9-22,3.9c-3.8,1.1-7.6,2.3-11.5,3.3c-3.9,1-7.8,2-11.7,2.5
			c-2,0.2-4.1,0.3-6.1,0c-1.8-0.3-3.6-0.8-5.4-1.5c-3.3-1.3-6.4-3.1-9.3-5c-5.2-3.5-9.8-8-13.5-13.1c-1.1,1.6-2.1,3.3-3.1,5
			C59.9,66.7,57,73.6,55,80.7c0.6,0.8,1.1,1.6,1.6,2.4c4.4-0.6,8.4-2.8,11.7-5.6C69.9,76,71.4,74.4,72.8,72.7z"/>
		<path class="st3" d="M236.3,168.1c0,0.4-0.2,0.7-0.6,0.9c-0.5,0.2-1.1,0.2-1.6,0.1c-1.5-0.3-2.9-0.5-4.4-0.7c1.6,0.6,3.3,1,5,1.3
			c0.1,0,0.3,0,0.5,0c0,0,0.1,0,0.1,0c0,0,0.1,0,0.1,0c0.2,0,0.4,0.2,0.4,0.4c0,0,0,0.1,0,0.1c0,0,0,0.1,0,0.1c0,0.1,0,0.1,0,0.2
			c0,0,0,0.1,0,0.1c0,0.1,0,0.2-0.1,0.2c0,0,0,0,0,0c0,0.1-0.1,0.1-0.1,0.2c0,0,0,0,0,0.1c0,0-0.1,0.1-0.1,0.1c0,0,0,0-0.1,0
			c0,0-0.1,0.1-0.1,0.1c0,0,0,0-0.1,0c-0.1,0-0.2,0-0.2,0.1c-0.4,0-0.9-0.1-1.3-0.1c-0.5-0.1-1-0.2-1.5-0.2
			c-1.5-0.3-2.9-0.7-4.3-1.2c0,0,0,0,0,0c-0.1,0-0.2-0.1-0.2-0.1c-0.1,0-0.1,0-0.2-0.1c-0.2-0.1-0.4-0.2-0.6-0.3c0,0,0,0,0,0
			c-0.2-0.1-0.3-0.4-0.2-0.6c0-0.1,0.1-0.1,0.1-0.2c0-0.1,0.1-0.2,0.1-0.3c0.1-0.1,0.1-0.3,0.1-0.4c0-0.1,0.1-0.2,0.1-0.3
			c0,0,0-0.1,0-0.1c0-0.1,0.1-0.3,0.1-0.4c0,0,0-0.1,0-0.1c0-0.2,0.1-0.4,0.1-0.5c0-0.1,0-0.1,0-0.2c0,0,0,0,0,0c0-0.1,0-0.1,0-0.2
			c1.1-0.2,2.2-0.6,3.1-1.3c0.3-0.2,0.5-0.5,0.6-0.8c-0.2-0.8-0.5-1.6-0.6-2.5c0-0.2,0-0.4,0-0.6c0,0,0-0.1,0-0.1c0,0,0-0.1,0-0.1
			c0.2,0,0.4,0,0.5,0.1c0,0,0,0,0,0c0.2,0,0.5,0.1,0.7,0.1c0,0,0,0,0,0c0.2,0.1,0.4,0.1,0.7,0.2c0,0,0,0,0.1,0
			c0.2,0.1,0.4,0.2,0.6,0.3c0,0,0.1,0,0.1,0c0.1,0.1,0.3,0.1,0.4,0.2c0.7,0.4,1.3,1,1.8,1.8c0.4,0.6,0.7,1.3,0.9,1.9c0,0,0,0,0,0
			c0,0.2,0.1,0.4,0.1,0.6c0,0.1,0,0.2,0,0.2c0,0.2,0,0.3,0,0.5c0,0.1,0,0.2,0,0.2c0,0.2,0,0.5,0,0.7
			C236.4,167.7,236.3,167.9,236.3,168.1z"/>
		<g>
			<path class="st0" d="M112.4,135.1c0.2-0.7,0.3-1.3,0.4-2c0.5-2.9,0.4-5.9-0.7-8.6c-0.9-2.3-2.6-4.4-4.9-5.6
				c-3.3-1.8-7.1-1.2-10.3,0.6c-0.3,0.3-0.5,0.6-0.8,0.9c-1.9,2-9,9.6-9,9.6c-2.2,2.1-4.4,4.1-6.6,6.2c-2.1,2-4.3,4.1-6.3,6.2
				c-0.5,0.5-0.9,1-1.3,1.6c0,0,0,0,0,0c0,0-0.1,0.1-0.1,0.1c-0.2,0.3-0.5,0.7-0.7,1c0,0,0,0,0,0c0,0.1-0.1,0.2-0.1,0.2c0,0,0,0,0,0
				c0,0,0,0,0,0c-0.3,0.5-0.6,1-0.8,1.4c-0.1,0.2-0.2,0.3-0.3,0.5c0,0,0,0,0,0c0,0,0,0,0,0c-0.2,0.3-0.4,0.7-0.6,1
				c-0.5,1-1,2-1.2,3.1c-0.3,1.5,0.2,4.6,0.2,4.7c-1.3,11.9-6.6,22.9-10.7,34c-0.2,0.7-0.5,1.3-0.7,2c-0.2,0.8-0.3,1.5-0.3,2.3
				c0.1,0,0.2,0,0.4,0c0.1,0,0.2,0,0.3,0c0.2-0.1,0.3-0.1,0.5-0.2c0,0.1,0,0.2-0.1,0.4c0,0.2-0.1,0.4-0.1,0.6c0.1,1.5,0.2,3,0.3,4.5
				c0.1,0.5,0.1,0.9,0.2,1.4c0,0.2,0.1,0.4,0.1,0.6c0.1,0.5,0.2,1.1,0.4,1.6c0.1,0.4,0.4,0.6,0.9,0.7c0.5,0,1-0.3,1.5-0.5
				c0.4-0.2,0.7-0.4,1.1-0.6c0.5,0.2,1-0.1,1.5-0.4c1.4-0.9,3-1.9,3.6-3.5c0.6-1.3,0.4-2.7,0.2-4.1l0.1-0.2c0.1-0.1,0.2-0.3,0.3-0.4
				c0,0,0,0,0,0.1c0.2,0.2,0.5,0.1,0.7,0c0.2-0.1,0.2-0.3,0.2-0.4c0.1-0.1,0.1-0.1,0.1-0.2c0,0,0-0.1,0-0.1c0.1,0.2,0.2,0.4,0.3,0.6
				c0.2-0.5,0.4-0.9,0.5-1.4c0.1-1.4,0.2-2.9,0.5-4.3c0-0.1,0-0.1,0.1-0.1c0.8-8.1,3.1-15.9,5.8-23.6c0.7-1.9,1.3-3.8,2-5.7
				c0,0,0.1-0.1,0.1-0.1c1.6-2,3.2-4.1,3.7-6.7c0.2-1.1,0.2-2.2,0.2-3.3c1-0.2,2-0.5,3.1-0.8c3.1-0.8,6.3-1.7,9.1-3.3
				c0.8-0.4,1.5-0.9,2.1-1.4c-0.3,0.5-0.5,1-0.8,1.5c-0.2,0.3,0.5,0.4,0.7,0.3c1.5-0.6,3-1.5,4.2-2.5c0,0,0,0.1-0.1,0.1
				c-0.2,0.3,0.4,0.5,0.6,0.4c3.6-1.6,6.8-4.2,9.1-7.4C111.8,135.8,112.1,135.5,112.4,135.1z"/>
			<path class="st1" d="M109.6,137.3c1.8-1.4,3.4-3.1,4.2-5.2c0.3-0.5,0.5-1.1,0.7-1.6c0.2-1.4,0.3-2.8,0.2-4.3c0-0.3-0.1-0.7-0.1-1
				c0-0.1,0-0.2-0.1-0.3c0-0.1,0-0.1,0-0.2c-0.1-0.2-0.1-0.4-0.2-0.6c0-0.1-0.1-0.3-0.1-0.4c-0.2-0.6-0.4-1.2-0.7-1.8
				c-0.7-1.3-1.7-2.4-2.8-3.4c-1.1-0.9-2.5-1.6-3.9-1.9c-1.6-0.3-3.2-0.1-4.8,0.3c-0.9,0.3-1.7,0.6-2.5,1c-1,1.3-2,2.5-3.1,3.7
				c-2.8,3-5.7,6.1-8.8,8.9c-1.2,1.1-2.3,2.1-3.4,3.2c-2.2,2-4.3,4.1-6.4,6.2c-1.7,1.7-3.5,3.3-4.7,5.4c0,0,0,0,0,0
				c0.2-0.2,0.3-0.3,0.5-0.5c-0.5,0.6-1,1.2-1.5,1.8c-0.2,0.3-0.3,0.6-0.5,0.9c0,0,0,0.1-0.1,0.1c-1,1.5-1.5,3.3-1.6,5
				c-0.1,1.3,0.2,2.7,0.5,4c0.1,0.4,0.2,0.8,0.4,1.2c-0.2-0.3-0.4-0.6-0.6-0.9c-0.4,3-1,6-1.8,9c-2.6,9.6-6.9,18.6-10.2,28
				c0.2,0.2,0.8-0.3,1-0.4c0,0,0.1,0,0.1-0.1c0,0,0.1,0,0.1,0c0.4-0.2,0.9-0.4,1.3-0.6l-0.5,1c0.8-0.4,1.6-0.8,2.2-1.4
				c0.2-0.1,0.7-0.2,0.5,0.2c-0.1,0.4-0.3,0.7-0.4,1.1c-0.1,0.3-0.1,0.3,0.1,0.3c0.2,0,0.3-0.1,0.5-0.1c0.6-0.2,1.2-0.5,1.7-1
				c0.1-0.1,0.5-0.4,0.6-0.1c0.3,0.8,0.8,1.5,1.5,2c0,0,0.1,0.1,0.1,0.1c0.1,0.2,0.3,0.3,0.5,0.3c0.5,0,0.8-0.4,1.2-0.6
				c0.5-0.4,0.9-0.9,1.3-1.4c0.2-0.3,0.3-0.6,0.4-0.9c0,0.1,0.1,0.3,0.1,0.4c0-0.6,0.1-1.1,0.1-1.7c0-0.1,0-0.1,0-0.2
				c0-0.4,0.1-0.7,0.1-1.1c0,0,0,0,0,0c0-0.1,0-0.2,0-0.2c0.1-1.1,0.2-2.3,0.4-3.4c1.3-9.2,4.4-18.1,7.5-26.8c0-0.1,0.1-0.1,0.1-0.2
				c0.5-0.7,1-1.4,1.4-2.1c0,0,0,0,0,0c-0.1,0.2-0.2,0.5-0.3,0.7c1.2-1.6,2.2-3.3,2.6-5.3c0-0.3,0.1-0.5,0.1-0.8
				c0,0,0.1-0.1,0.1-0.2c0-1.1,0-2.4,0.6-3.3c0,0.2,0,0.3,0,0.5c2.6-0.6,5.2-1.3,7.7-2.2c1.7-0.6,3.5-1.3,5-2.3c0.1,0,0.2,0,0.2-0.1
				c1.1-0.5,2.2-1.2,3.1-2c-0.4,0.9-0.9,1.8-1.3,2.6c1.9-0.9,3.6-2.2,4.9-3.8c0.6-0.4,1.2-0.7,1.8-1.1l-1.7,2.8
				C105.5,141.2,107.8,139.4,109.6,137.3z"/>
			<path class="st2" d="M114.7,126.2c0-0.3-0.1-0.7-0.1-1c0-0.1,0-0.2-0.1-0.3c0-0.1,0-0.1,0-0.2c-0.1-0.2-0.1-0.4-0.2-0.6
				c0-0.1-0.1-0.3-0.1-0.4c-0.2-0.6-0.4-1.2-0.7-1.8c-0.1-0.3-0.3-0.5-0.5-0.8c0.1,1.5,0,3.1-0.3,4.5c-0.6,3.1-2.1,6.4-4.7,8.3
				c-0.2,0.1-0.4-0.1-0.4-0.2c-0.2-1.6-0.1-3.2-0.3-4.7c-0.6,2.5-1.6,4.9-3.3,6.9c-0.2,0.2-0.5,0-0.5-0.2c-0.2-1.7-0.2-3.4-0.4-5.1
				c-1.2,2.2-2.9,4.2-4.9,5.7c-1.9,1.5-4.1,2.8-6.2,4c-1.2,0.7-2.3,1.3-3.5,2c-0.6,0.4-1.2,0.8-1.7,1.2c-0.8,0.6-1.6,1.2-2.4,1.7
				c-0.6,0.4-1.3,0.9-2.1,1c-0.8,0.1-1.4-0.5-1.9-1.1c-0.4-0.5-0.8-1.2-1.2-1.7c0.3,2,0.4,4.1,0,6.1c-0.4,2.1-1.3,4.1-3,5.4
				c-0.4,0.3-0.9,0.6-1.4,0.9c-0.7,0.4-1.4,0.6-2.1,0.7c-1.1,0-2.1-0.6-2.8-1.4c0.1,0.6,0.2,1.2,0.4,1.7c0,0,0,0.1,0,0.1
				c0.1,0.2,0.2,0.3,0.3,0.4c0.4,0.5,1,0.8,1.6,1.1c1,0.6,1.6,1.5,1.7,2.6c0.1,1.2-0.4,2.3-0.8,3.4c-0.5,1.4-0.8,2.7-1.2,4.1
				c-0.4,1.5-0.9,2.9-1.4,4.4c-0.4,1.4-0.9,2.9-1.3,4.3c-0.4,1.4-0.8,2.9-1,4.3c-0.4,2.9-0.2,5.9,0,8.8c0,0.3-0.3,0.4-0.5,0.2
				c-1.3-1.2-1.9-2.8-2.4-4.4c0,1.3,0,2.5-0.1,3.8c0,0.3-0.4,0.2-0.5,0.1c-0.8-1.1-1-2.4-1.5-3.6c-0.2,0.5-0.4,1.1-0.7,1.6
				c-0.7,1.5-1.7,3-2.9,4.1c-0.4,0.4-0.9,0.8-1.4,1.1c-0.1,0.2-0.2,0.5-0.3,0.7c0.2,0.2,0.8-0.3,1-0.4c0,0,0.1,0,0.1-0.1
				c0,0,0.1,0,0.1,0c0.4-0.2,0.9-0.4,1.3-0.6l-0.5,1c0.8-0.4,1.6-0.8,2.2-1.4c0.2-0.1,0.7-0.2,0.5,0.2c-0.1,0.4-0.3,0.7-0.4,1.1
				c-0.1,0.3-0.1,0.3,0.1,0.3c0.2,0,0.3-0.1,0.5-0.1c0.6-0.2,1.2-0.5,1.7-1c0.1-0.1,0.5-0.4,0.6-0.1c0.3,0.8,0.8,1.5,1.5,2
				c0,0,0.1,0.1,0.1,0.1c0.1,0.2,0.3,0.3,0.5,0.3c0.5,0,0.8-0.4,1.2-0.6c0.5-0.4,0.9-0.9,1.3-1.4c0.2-0.3,0.3-0.6,0.4-0.9
				c0,0.1,0.1,0.3,0.1,0.4c0-0.6,0.1-1.1,0.1-1.7c0-0.1,0-0.1,0-0.2c0-0.4,0.1-0.7,0.1-1.1c0,0,0,0,0,0c0-0.1,0-0.2,0-0.2
				c0.1-1.1,0.2-2.3,0.4-3.4c1.3-9.2,4.4-18.1,7.5-26.8c0-0.1,0.1-0.1,0.1-0.2c0.5-0.7,1-1.4,1.4-2.1c0,0,0,0,0,0
				c-0.1,0.2-0.2,0.5-0.3,0.7c1.2-1.6,2.2-3.3,2.6-5.3c0-0.3,0.1-0.5,0.1-0.8c0,0,0.1-0.1,0.1-0.2c0-1.1,0-2.4,0.6-3.3
				c0,0.2,0,0.3,0,0.5c2.6-0.6,5.2-1.3,7.7-2.2c1.7-0.6,3.5-1.3,5-2.3c0.1,0,0.2,0,0.2-0.1c1.1-0.5,2.2-1.2,3.1-2
				c-0.4,0.9-0.9,1.8-1.3,2.6c1.9-0.9,3.6-2.2,4.9-3.8c0.6-0.4,1.2-0.7,1.8-1.1l-1.7,2.8c2.5-1.3,4.7-3.1,6.5-5.2
				c1.8-1.4,3.4-3.1,4.2-5.2c0.3-0.5,0.5-1.1,0.7-1.6C114.7,129.1,114.8,127.6,114.7,126.2z"/>
			<path class="st3" d="M64.8,201.9c-0.3,0.2-0.6,0.5-1,0.5c0,0,0,0,0,0c0,0,0,0-0.1,0.1c-0.3,0.2-0.7,0-0.8-0.3
				c-0.3-0.6-0.4-1.2-0.6-1.9c-0.2-0.6-0.3-1.3-0.5-1.9c-0.2-0.6-0.4-1.2-0.6-1.8c0,0.2-0.1,0.3-0.1,0.5c0.2,1.3,0.5,2.6,0.8,3.9
				c0.1,0.6,0.4,1.2,0.8,1.7c-0.2,0.1-0.4,0.2-0.6,0.3c-0.4,0.2-0.9,0.5-1.3,0.4c-0.6,0-0.6-0.7-0.8-1.1c-0.1-0.5-0.3-1-0.4-1.6
				c-0.3-1.4-0.5-2.8-0.5-4.2c0-0.4,0-0.8,0.1-1.3c0-0.2,0-0.3,0.1-0.5c0.1,0,0.1,0,0.2,0c0.8-0.3,1.6-0.7,2.3-1.2
				c0,0.1-0.1,0.1-0.1,0.2c-0.1,0.2-0.2,0.4-0.2,0.6c0.1,0.4,0.6,0.3,0.9,0.2c0.8-0.2,1.6-0.6,2.2-1.1c0.4,0.9,1.2,1.9,2.2,2.2
				c0.1,0,0.2,0,0.3,0.1c0.3-0.1,0.5-0.2,0.8-0.3c0.2,1.6,0.4,3.3-0.9,4.6C66.5,200.7,65.6,201.3,64.8,201.9z"/>
			<path class="st3" d="M63.7,196.5c1,0.6,1.7,1.3,2.1,2.4c0.3,0.6,0.4,1.3,0.5,2c0.3-0.2,0.6-0.5,0.9-0.8c1.3-1.3,1.1-3,0.9-4.6
				c-0.3,0.1-0.5,0.2-0.8,0.3c-0.1,0-0.2,0-0.3-0.1c-1-0.3-1.8-1.3-2.2-2.2c-0.7,0.5-1.4,0.9-2.2,1.1c-0.3,0.1-0.9,0.2-0.9-0.2
				c0-0.2,0.1-0.5,0.2-0.6c0-0.1,0.1-0.1,0.1-0.2c-0.7,0.5-1.5,0.9-2.3,1.2c-0.1,0-0.1,0-0.2,0c0,0.2-0.1,0.3-0.1,0.5
				c0,0.4-0.1,0.7-0.1,1.1C60.6,195.6,62.3,195.6,63.7,196.5z"/>
		</g>
	</g>
	<g>
		<g>
			<g>
				<path class="st4" d="M105.6,11.7c-1.9-0.5-3.9-0.6-5.8-0.6c-1.7,0-3.4,0.1-5.1,0.3c-3.4,0.4-6.8,1.2-10,2.4
					c-6.3,2.3-12.1,6.2-16.5,11.3c-1.9,2.2-3.5,4.7-4.7,7.3c-0.1,0.1-0.2,0.1-0.3,0.2c-0.2,0.5-0.4,1-0.5,1.6
					c-0.1,0.2-0.2,0.4-0.3,0.6c-0.1,0.1,0,0.2,0.1,0.3c-0.3,2.1,0,4.2,2,5.5c0.6,0.4,1.3,0.7,1.9,0.9c0.8,0.3,1.6,0.6,2.5,0.8
					c1,0.2,2.1,0.1,3-0.3c0,0,0,0.1-0.1,0.1c-0.2,0.4,0.5,0.3,0.7,0c0.1-0.3,0.2-0.5,0.4-0.8c0,0,0,0,0,0c2.3-5.2,5.4-9.9,9.2-14.1
					c4-4.4,8.8-8.1,14-10.9c3-1.6,6.1-2.9,9.3-3.9C105.5,12.2,106,11.8,105.6,11.7z"/>
				<path class="st5" d="M89.3,19.8c-4.9,3.6-9.2,8.1-12.6,13.2c-1.7,2.6-3.2,5.3-4.5,8.1c-1,0.9-2.5,0.7-3.7,0.4
					c-1.3-0.4-2.6-0.8-3.7-1.6c-1.9-1.4-2-3.7-1.4-5.8c2.4-5.8,6.4-10.8,11.4-14.5c5.3-4,11.7-6.4,18.3-7.4c1.9-0.3,3.8-0.5,5.6-0.5
					c1.9-0.1,3.8,0,5.6,0.4C98.9,13.8,93.8,16.5,89.3,19.8z"/>
				<path class="st5" d="M76.2,29.9c-1.2-1.2-2.6-2.3-4.1-3c-1.1-0.5-2.4-1-3.6-1.3c-0.2,0.2-0.4,0.5-0.6,0.7c1.6,0.4,3.1,1,4.5,1.7
					c1.9,1,3.6,2.4,4.9,4.1c0.1-0.2,0.3-0.4,0.4-0.5C77.2,31,76.7,30.4,76.2,29.9z"/>
				<path class="st5" d="M86.8,21.8c0.2-0.2,0.4-0.4,0.6-0.5c-1.2-2.3-2.6-4.5-4.4-6.3c-0.4,0.2-0.8,0.4-1.2,0.5
					C83.8,17.3,85.4,19.5,86.8,21.8z"/>
				<path class="st5" d="M100.8,11.7c-0.7,0-1.4,0-2.1,0c0,0-0.1,0-0.1,0c0.3,0.7,0.6,1.5,0.8,2.3c0.5-0.2,1.1-0.4,1.6-0.7
					C100.9,12.7,100.9,12.2,100.8,11.7z"/>
				<path class="st5" d="M91.7,15c0.6,0.7,1,1.5,1.5,2.3c0.2-0.1,0.4-0.3,0.6-0.4c-0.3-1-0.7-1.9-1.5-2.6c-0.5-0.6-1.1-1.1-1.8-1.6
					c-0.4,0.1-0.8,0.2-1.1,0.3C90.2,13.5,91,14.2,91.7,15z"/>
				<path class="st5" d="M82.6,25.7c0.2-0.2,0.4-0.4,0.6-0.6c-1.4-2.3-3.4-4.1-5.9-5.3c-0.6-0.3-1.2-0.5-1.8-0.7c0,0,0,0,0,0
					C78.4,20.6,80.9,22.9,82.6,25.7z"/>
				<path class="st5" d="M80.3,28.2c0.1-0.1,0.2-0.2,0.2-0.3c-1.3-1.4-2.6-2.9-4.3-3.9c-1.4-0.9-2.9-1.5-4.5-2
					c-0.1,0.1-0.2,0.2-0.2,0.2C74.9,23.7,77.8,25.7,80.3,28.2z"/>
				<path class="st5" d="M67.3,28.9c4.2-6,10-10.8,16.6-13.9c2.1-1,4.2-1.7,6.4-2.4c-5.6,1.2-10.9,3.5-15.5,6.9
					c-5,3.7-9.1,8.8-11.4,14.5c-0.2,0.8-0.3,1.6-0.3,2.4C64.1,33.8,65.6,31.2,67.3,28.9z"/>
				<path class="st5" d="M99.7,13c-2,0.3-3.8,0.9-5.7,1.7c-3.2,1.4-6.3,3-9.2,4.9c-2.8,1.9-5.4,4.2-7.8,6.6c-1,1-2,2.1-3,3.1
					c-0.8,0.8-1.8,1.7-3,1.8c-1.5,0-1.7-1.6-2.8-2.3c-0.5-0.3-1.1-0.6-1.7-0.7c-1.3,1.9-2.4,4-3.3,6.1c-0.5,2.1-0.4,4.4,1.4,5.8
					c1.1,0.8,2.4,1.2,3.7,1.6c1.2,0.4,2.7,0.5,3.7-0.4c1.2-2.8,2.7-5.5,4.5-8.1c3.4-5.1,7.7-9.5,12.6-13.2c4.4-3.2,9.2-5.8,14.3-7.5
					C102.3,12.5,101,12.8,99.7,13z"/>
			</g>
			<g>
				<path class="st4" d="M84.7,3.2c-2-0.2-3.9,0-5.9,0.3c-1.7,0.3-3.4,0.7-5,1.1c-3.3,0.9-6.5,2.2-9.5,3.9c-5.9,3.3-11,8-14.5,13.8
					c-1.5,2.5-2.7,5.1-3.5,7.9c-0.1,0.1-0.2,0.2-0.2,0.3c-0.1,0.5-0.2,1.1-0.3,1.6c-0.1,0.2-0.1,0.4-0.2,0.7c0,0.2,0,0.2,0.1,0.2
					c0,2.1,0.7,4.2,2.8,5.1c0.7,0.3,1.4,0.5,2.1,0.6c0.8,0.2,1.7,0.3,2.6,0.4c1,0,2.1-0.2,2.9-0.8c0,0,0,0.1,0,0.1
					c-0.1,0.5,0.6,0.2,0.6-0.1c0.1-0.3,0.2-0.6,0.2-0.9c0,0,0,0,0,0c1.4-5.5,3.8-10.6,6.9-15.4c3.3-5,7.4-9.4,12.1-13
					c2.7-2,5.6-3.8,8.6-5.3C84.6,3.7,85.1,3.3,84.7,3.2z"/>
				<path class="st5" d="M69.8,13.8c-4.3,4.3-7.8,9.4-10.4,14.9c-1.3,2.8-2.4,5.7-3.2,8.7c-0.9,1-2.4,1.1-3.6,1
					c-1.3-0.2-2.7-0.4-3.9-1c-2.1-1.1-2.5-3.3-2.3-5.5c1.4-6.1,4.7-11.7,9-16.1C60.1,11,66,7.6,72.4,5.6c1.8-0.6,3.6-1,5.5-1.4
					c1.9-0.3,3.7-0.6,5.6-0.5C78.4,6.4,73.8,9.8,69.8,13.8z"/>
				<path class="st5" d="M58.4,25.8c-1.4-1-2.9-1.9-4.5-2.3c-1.2-0.4-2.5-0.6-3.7-0.7c-0.2,0.3-0.3,0.5-0.5,0.8
					c1.6,0.1,3.2,0.5,4.7,1c2,0.7,3.9,1.8,5.5,3.3c0.1-0.2,0.2-0.4,0.3-0.6C59.6,26.7,59,26.2,58.4,25.8z"/>
				<path class="st5" d="M67.7,16.1c0.2-0.2,0.4-0.4,0.6-0.6c-1.5-2.1-3.3-4-5.4-5.5c-0.4,0.2-0.8,0.5-1.1,0.7
					C64,12.1,66,14,67.7,16.1z"/>
				<path class="st5" d="M79.9,3.9c-0.7,0.1-1.4,0.2-2.1,0.3c0,0-0.1,0-0.1,0c0.4,0.7,0.8,1.4,1.1,2.1c0.5-0.3,1-0.6,1.5-0.9
					C80.2,5,80.1,4.5,79.9,3.9z"/>
				<path class="st5" d="M71.4,8.6c0.7,0.6,1.3,1.3,1.8,2.1c0.2-0.2,0.4-0.3,0.5-0.5c-0.4-0.9-1-1.7-1.9-2.4c-0.6-0.5-1.3-0.9-2-1.3
					c-0.4,0.1-0.7,0.3-1.1,0.4C69.8,7.4,70.7,8,71.4,8.6z"/>
				<path class="st5" d="M64.1,20.6c0.2-0.2,0.3-0.5,0.5-0.7c-1.8-2.1-4-3.6-6.6-4.3c-0.6-0.2-1.2-0.3-1.9-0.5c0,0,0,0,0,0
					C59.2,16.2,62,18.2,64.1,20.6z"/>
				<path class="st5" d="M62.3,23.5c0.1-0.1,0.1-0.2,0.2-0.3c-1.5-1.2-3.1-2.4-4.8-3.2c-1.5-0.7-3.1-1-4.7-1.3
					c-0.1,0.1-0.1,0.2-0.2,0.3C56.2,19.8,59.4,21.4,62.3,23.5z"/>
				<path class="st5" d="M49.5,26.2c3.2-6.5,8.2-12.2,14.2-16.2c1.9-1.3,3.9-2.4,6-3.3c-5.3,2.1-10.3,5.1-14.2,9.2
					c-4.4,4.5-7.6,10-9,16.1c-0.1,0.8-0.1,1.6,0.1,2.4C47.1,31.5,48.2,28.7,49.5,26.2z"/>
				<path class="st5" d="M79.1,5.4c-1.9,0.6-3.6,1.5-5.3,2.5c-2.9,1.8-5.8,3.9-8.3,6.3c-2.5,2.3-4.7,5-6.7,7.7
					c-0.8,1.2-1.6,2.4-2.5,3.5c-0.7,0.9-1.5,2-2.7,2.2c-1.4,0.3-1.9-1.4-3.1-1.9c-0.5-0.2-1.2-0.4-1.8-0.4c-1,2.1-1.8,4.3-2.3,6.6
					c-0.2,2.1,0.2,4.4,2.3,5.5c1.2,0.6,2.6,0.8,3.9,1c1.3,0.2,2.7,0.1,3.6-1c0.8-3,1.8-5.9,3.2-8.7c2.6-5.5,6.1-10.6,10.4-14.9
					c3.8-3.9,8.2-7.1,13-9.7C81.5,4.5,80.3,5,79.1,5.4z"/>
			</g>
			<g>
				<path class="st0" d="M44.4,32.9c-6,2.6-12.6,0.3-18.6-1c-3.2-0.7-6.5-1.1-9.8-0.5c-2.6,0.5-5.1,1.6-7.2,3.3
					c-2.4,1.9-4.2,4.4-5.2,7.2c-0.1,0.3,0.5,0.2,0.6,0.1c0.4-0.4,0.9-0.7,1.4-1c-0.4,0.4-0.7,0.8-0.9,1.3c-0.2,0.3,0.3,0.3,0.5,0.2
					c0.7-0.4,1.4-0.8,2.1-1c0.9-0.2,1.8,0.1,2.6,0.5c1.4,0.8,2.8,1.7,4.1,2.6c2.6,1.8,5.3,3.6,8.4,4.2c2.8,0.6,5.9,0.3,8.5-0.9
					c2.8-1.3,5.1-3.5,7.2-5.7c2.5-2.7,5.1-5.5,6.6-8.9c0,0,0-0.1,0-0.1C44.8,33,44.7,32.8,44.4,32.9z"/>
				<path class="st1" d="M31,47.3c-2.7,1.3-5.9,1.6-8.8,0.8c-3.1-0.8-5.7-2.7-8.3-4.5c-0.7-0.5-1.5-1-2.2-1.5
					c-0.7-0.5-1.5-1-2.3-1.2c-1.3-0.4-2.5-0.1-3.6,0.5c0.3-0.4,0.7-0.8,1.1-1.1c0.2-0.1,0.4-0.6-0.1-0.5c-0.8,0.2-1.6,0.6-2.2,1
					c2-4.7,6.4-8.2,11.4-9c6.4-1.1,12.6,1.8,18.8,2.6c3,0.4,6.1,0.3,8.9-0.8c-1.4,2.8-3.4,5.2-5.6,7.5C36.2,43.5,33.9,46,31,47.3z"
					/>
				<path class="st2" d="M19.2,31.7c-1,0-2.1,0.1-3.1,0.2c-1.5,0.3-3,0.8-4.3,1.5C14.2,32.5,16.7,31.9,19.2,31.7z"/>
				<path class="st2" d="M34.9,34.5c-0.8-0.1-1.6-0.2-2.5-0.4c0.3,0.2,0.5,0.4,0.8,0.7c0.2,0.2,0.2,0.6-0.1,0.7
					c-1.7,0.5-3.4,0.4-5.2,0.1c-1.6-0.2-3.2-0.6-4.8-0.9c-1.6-0.3-3.1-0.4-4.7-0.2c-2.7,0.2-5.2,1.2-7.3,2.9c2-0.1,4-0.2,5.9,0.4
					c0.4,0.1,0.4,0.6,0,0.8c-1,0.3-1.9,0.5-2.9,0.7c2,0.3,4.1,0.5,6,1.2c0.4,0.1,0.2,0.6-0.1,0.7c-1,0.5-2.2,0.6-3.3,0.8
					c2,1.4,4.4,2.4,6.8,2.7c1.3,0.2,2.9,0.3,4.2-0.1c1.2-0.3,2.3-1,3.5-1c0.2,0,0.4,0.2,0.4,0.4c-0.1,1.2-0.8,2.1-1.6,2.9
					c-0.4,0.4-0.9,0.9-1.4,1.3c0.8-0.2,1.5-0.5,2.2-0.8c2.9-1.3,5.1-3.8,7.2-6.1c2.1-2.3,4.2-4.7,5.6-7.5
					C41,34.8,37.9,34.8,34.9,34.5z"/>
				<path class="st0" d="M39.8,36.2c-2,0.8-4.1,1.5-6.3,1.3c-2.2-0.1-4.4-0.9-6.6-1.4c-3.8-1-7.9-1.8-11.8-1c-1.3,0.4-2.5,1-3.6,1.8
					c2.7-1.5,6-1.8,9-1.4c2.2,0.3,4.4,0.8,6.5,1.4c2.1,0.5,4.1,1.2,6.2,1.3c0.4,0,0.8,0,1.2,0c-1.7,2.9-4.4,5.1-7.5,6.3
					c0.8-0.2,1.5-0.4,2.2-0.7c0.8-0.4,1.5-0.9,2.3-1.4c1.5-1.2,2.7-2.6,3.7-4.3c0,0,0,0,0,0c1.6-0.2,3.2-0.7,4.8-1.3
					C40.2,36.6,40.3,36.1,39.8,36.2z"/>
			</g>
			<g>
				<path class="st0" d="M48.8,94.7c0.5-2.8-0.1-5.5-1-8.1c0.2-0.2,0.1-0.5-0.3-0.4c-4.6,1.6-9.5,2.3-14.4,2.2
					c-0.3,0-0.8,0.6-0.3,0.6c0,0,0.1,0,0.1,0c0,0.1,0,0.1,0.1,0.2c2.3,1.5,3,4.5,3.1,7c0.2,3.4-0.4,6.8-1.8,9.9
					c-0.2,0.4,0.5,0.2,0.6,0.1c0.5-0.5,0.9-1.1,1.4-1.6c-1.4,3.1-3.2,6.1-3.8,9.5c-0.3,1.6-0.3,3.2,0.1,4.7c0.1,0.4,0.7,0,0.7-0.2
					c0.3-1.3,0.5-2.7,0.9-4c-0.4,2.6-0.3,5.2,0.6,7.7c0,0,0,0,0,0c0-0.5,0.2-1,0.4-1.4c0.2-0.5,0.4-0.9,0.5-1.4
					c0.1-0.5,0.2-1.1,0.3-1.6c0.4-1.4,1.1-2.5,2-3.5c1.6-1.9,3.3-3.7,4.8-5.7c1.5-2,2.9-4.1,3.9-6.4c0.5-1.2,0.9-2.4,1.2-3.7
					C48.3,97.3,48.6,96,48.8,94.7z"/>
				<path class="st1" d="M47.3,98.4c-0.3,1.3-0.7,2.6-1.2,3.9c-1.9,4.7-5.6,8.3-8.7,12.1c-0.9,1.1-1.6,2.2-2,3.5
					c-0.2,0.6-0.3,1.2-0.3,1.8c-0.3-2-0.3-4.1,0.1-6.1c0-1,0.1-1.9,0.2-2.9c-1.2,1.8-1.8,3.8-2.3,5.9c-0.2-4.7,2.7-8.9,4.5-13.3
					c0.3-0.9,0.5-1.8,0.6-2.6c0.2-1.4,0-2.7-0.2-4.1c0,0,0,0,0,0c0.2,1.8,0,3.5-0.5,5.1c-0.5,1.1-1.1,2.1-1.8,3
					c1-2.8,1.4-5.8,1.3-8.8c-0.1-2.5-0.8-5.3-2.8-6.9c4.4,0,8.8-0.7,13-2.1c0,0,0,0.1,0,0.1c0.8,2.4,1.4,4.9,1,7.5
					C48,95.8,47.6,97.1,47.3,98.4z"/>
				<path class="st2" d="M48.2,94.4c0.4-2.5-0.2-5.1-1-7.5c0,0,0-0.1,0-0.1c-4.2,1.4-8.6,2.1-13,2.1c1.1,0.9,1.8,2.2,2.3,3.6
					c0.5,0.4,0.7,1.1,0.9,1.8c0.3,1.7,0.2,3.5,0,5.2c-0.2,1.6-0.6,3.2-1.2,4.6c0.5-0.8,1-1.6,1.4-2.5c0.5-1.6,0.7-3.3,0.5-5.1
					c0,0,0,0,0,0c0.2,1.3,0.4,2.7,0.2,4.1c0,0,0,0,0,0.1c0.2-0.5,0.3-1,0.5-1.5c0.3-1.1,0.7-2.3,0.8-3.4c0.1-0.7,0-1.7,0.6-2.3
					c0.1-0.1,0.4-0.1,0.4,0c0.7,1.6,0.7,3.3,0.4,5c-0.7,3.4-2.7,6.2-4.4,9.1c-1.6,2.7-2.9,5.5-3.5,8.6c0,0.1,0,0.2,0,0.3
					c0.5-2.1,1.1-4.1,2.3-5.9c0,0.2-0.1,0.4-0.1,0.6c0.4-0.9,0.9-1.8,1.3-2.7c1-1.8,2.1-3.5,3.1-5.3c1-1.8,2-3.7,2.6-5.7
					c0.6-2,0.6-4.1,0.7-6.2c0-0.2,0.2-0.4,0.4-0.3c0.7,0.3,1,1,1.2,1.7c0.2,0.9,0.2,1.8,0.2,2.7c-0.1,1.9-0.4,3.8-1,5.6
					c-0.9,2.6-2.4,5-3.8,7.3c-1.5,2.4-3.2,4.7-4,7.5c-0.2,0.6-0.3,1.2-0.4,1.8c0.4-1.3,1.1-2.4,1.9-3.4c3.2-3.8,6.8-7.4,8.7-12.1
					c0.5-1.3,0.9-2.6,1.2-3.9C47.6,97.1,48,95.8,48.2,94.4z"/>
				<path class="st2" d="M36.2,91.9c0.8,0.1,1.7,0.1,2.5,0.1c2.3-0.2,4.3-1,6.4-1.7c0.9-0.3,1.9-0.6,2.7-1.2
					c-0.2-0.7-0.4-1.5-0.6-2.2c0,0,0-0.1,0-0.1c-4.2,1.4-8.6,2.1-13,2.1C35.1,89.8,35.7,90.8,36.2,91.9z"/>
			</g>
			<path class="st0" d="M79.2,56c0.3-3.6-0.1-7.2-1-10.7c-0.6-2.4-1.5-4.9-2.9-6.9c0.4,0.1,0.9,0.2,1.3,0.3c0.2,0.1,0.7-0.2,0.6-0.4
				c-0.6-1.8-1.9-3.2-3.6-3.9c0.6-0.3,1.3-0.6,2-0.7c0.2,0,0.6-0.4,0.4-0.5c-2-1.3-4.5-1.7-6.8-1.1c0.2-1,0.4-2.1,0.6-3.1
				c0.1-0.3-0.3-0.2-0.5-0.1c-0.8,0.4-1.5,1-2.1,1.7c-0.5-1.4-1.9-2.4-3.4-2.5c-0.2,0-0.7,0.3-0.5,0.5c0.5,0.6,0.8,1.3,1,2
				c-1.4-0.8-2.8-1.4-4.4-1.8c0.5-0.3,1-0.5,1.5-0.8c0.2-0.1,0.4-0.4,0.1-0.5c-1.2-0.4-2.5-0.5-3.8-0.3c0.3-0.3,0.6-0.7,1-1
				c0.1-0.1,0.1-0.3,0-0.4c-2.4-0.7-4.9,0-7.1,1.1c-0.6-1-1.7-1.6-2.8-1.6c-0.2,0-0.7,0.3-0.4,0.5c0.3,0.3,0.6,0.6,0.7,1
				c-1.4-0.7-3.2-0.3-4.3,0.8c-0.1,0.2-0.1,0.4,0.1,0.4c0.6,0,1.2,0.2,1.8,0.5c-3.1,1.7-5.7,4.1-7.5,7c-2.5,4-4.4,8.5-5.5,13.1
				c-0.5,2.2-0.8,4.5-0.8,6.8c-1.8,1.5-3.6,3-5.4,4.5c-2.4,2.1-4.8,4.4-6.6,7c-1.9,2.6-3.5,5.5-3.4,8.8c0.1,2.9,1.4,5.7,3.1,8.1
				c0.8,1.2,1.8,2.5,2.8,3.5c1.2,1.1,2.5,1.9,4.1,2.4c2.9,1,6.1,1.3,9.1,1.1c6-0.3,11.9-2.6,16.9-5.9c3.5-2.3,6.5-5.1,9.3-8.2
				c5.8-1.1,10.8-4.9,13.4-10.1c0.8-1.7,1.5-3.4,2.1-5.2C78.6,59.8,79,57.9,79.2,56z"/>
			<path class="st1" d="M76,65.1c-1.2,2.9-2.9,5.5-5.4,7.5c-2.2,1.8-4.8,3.1-7.6,3.7c1-1.1,1.9-2.2,2.8-3.4c-0.5,0.5-1,0.9-1.5,1.4
				c-0.8,0.8-1.5,1.7-2.3,2.6c-1.1,1.2-2.3,2.3-3.6,3.3c-1.1,1-2.3,2-3.5,3c-4.7,3.6-10.2,6.2-16.1,7.1c-2.9,0.4-5.9,0.4-8.8-0.2
				c-1.6-0.3-3.2-0.8-4.7-1.7c-1.3-0.8-2.4-1.9-3.3-3c-1.8-2.2-3.4-4.8-4-7.6c-0.3-1.4-0.4-2.9-0.1-4.4c0.3-1.6,1.1-3.1,2-4.6
				c1.7-2.7,3.8-5,6.2-7.2c1.6-1.4,3.2-2.8,4.8-4.2c0.3-0.4,0.7-0.7,1-1c0.7-0.7,1.4-1.3,2.2-1.9c0.4-0.3,0.8-0.7,1.1-1.1
				c0,0,0,0,0,0c-0.7,0.5-1.4,1.1-2,1.6c0.1-4.1,1.1-8.2,2.6-12c1.6-4,3.6-8.1,6.7-11.1c1.3-1.2,2.7-2.2,4.3-3
				c0.2,0.2,0.5,0.3,0.7,0.6c0,0,0,0,0.1,0c0-0.1,0-0.3,0-0.4c0,0,0,0,0-0.1c0-0.1,0-0.1,0-0.2c0-0.1-0.1-0.2-0.1-0.3c0,0,0,0,0,0
				c0,0,0,0,0,0c0,0,0,0,0,0c0,0,0,0-0.1-0.1c0,0,0,0,0,0c0,0,0,0,0,0c0,0,0,0,0,0c0,0,0,0,0,0c-0.1-0.1-0.1-0.1-0.2-0.2
				c-0.5-0.3-1.1-0.5-1.7-0.5c0.6-0.4,1.4-0.5,2.1-0.4c0.1,0,0.2,0,0.3,0.1c0,0,0,0,0.1,0c0.4,0.1,0.8,0.4,1.1,0.6
				c0.2,0.2,0.6-0.2,0.7-0.4c0-0.5-0.1-1-0.3-1.4c0.6,0.3,1.1,0.7,1.5,1.3c0.1,0.1,0.3,0.1,0.4,0c2-1,4.3-1.8,6.5-1.2
				c-0.4,0.4-0.8,0.8-1.2,1.2c-0.2,0.2,0,0.4,0.2,0.4c1.2-0.3,2.4-0.3,3.6,0c-0.4,0.2-0.9,0.5-1.3,0.7c-1.3-0.2-2.5-0.3-3.9-0.1
				c-0.1,0-0.1,0-0.2,0.1c1.1,0.1,2.1,0.2,3.2,0.4c0.7,0.1,1.4,0.4,2.1,0.6c0.7,0.2,1.4,0.5,2.1,0.9c1,0.4,2,0.9,3,1.5
				c0.8,0.4,1.5,0.9,2.3,1.4c0.1-0.1,0.1-0.2,0-0.3c-0.9-0.7-1.8-1.4-2.8-2c0-0.8-0.2-1.5-0.6-2.2c1.1,0.4,2,1.4,2.2,2.6
				c0.1,0.4,0.6,0,0.7-0.2c0.4-0.7,1-1.2,1.7-1.7c-0.2,1-0.4,1.9-0.6,2.9c0,0.2,0.1,0.2,0.3,0.2c2.1-0.6,4.2-0.3,6.1,0.7
				c-0.7,0.2-1.4,0.5-2,0.9c-0.1,0.1-0.4,0.4-0.1,0.5c1.6,0.5,2.9,1.6,3.6,3.1c-0.4-0.1-0.9-0.1-1.4-0.1c-0.4-0.5-0.9-1-1.4-1.5
				c0.4,0.8,0.9,1.6,1.3,2.5c0.1,0.1,0.1,0.3,0.2,0.4c1.1,1.6,1.8,3.4,2.3,5.2c0.9,3.2,1.5,6.6,1.4,10C78.5,58.2,77.5,61.7,76,65.1z
				"/>
			<path class="st2" d="M49.3,86.7c-1,0.4-2.1,0.7-3.2,0.9c-0.9,0.2-2.1,0.3-2.9-0.2c-0.1-0.1-0.2-0.2-0.1-0.4
				c1.1-1.6,1.8-3.4,2.3-5.3c0.4-1.5,0.7-3.4,0-4.9c-0.2-0.3,0.3-0.6,0.5-0.3c0.4,0.6,0.9,1.3,1.3,1.9c0.2-0.9,0.2-1.9,0.1-2.8
				c-0.1-0.9-0.5-2.1-1.4-2.5c-0.9-0.4-1.9,0.1-2.5,0.7c-0.8,0.8-1.4,1.8-1.9,2.8c-0.3,0.6-0.5,1.1-0.7,1.7c1-1,2-1.9,3.1-2.8
				c0.2-0.2,0.5,0.1,0.4,0.4c-1,2-2.4,3.8-3.9,5.3c-1.4,1.4-3,2.5-4.9,3.2c-2,0.7-4.3,1.1-6.4,0.9c-2.9-0.2-5.8-1.1-8.5-2.4
				c0.5,0.8,1.1,1.6,1.7,2.4c0.9,1.2,2,2.3,3.3,3c1.4,0.9,3,1.3,4.7,1.7c2.9,0.6,5.9,0.6,8.8,0.2c3.9-0.6,7.6-1.9,11.1-3.8
				C49.8,86.5,49.6,86.6,49.3,86.7z"/>
			<path class="st1" d="M46.6,28c0.3-0.2,0.6-0.5,0.9-0.7c-0.7-0.1-1.5,0-2.1,0.4C45.9,27.7,46.3,27.8,46.6,28z"/>
			<path class="st1" d="M34.8,53.8c-0.1,0-0.3,0.1-0.4,0.1c-0.2,0-0.4-0.1-0.4-0.3c0-2.3,0.8-4.5,1.6-6.6c0.8-2,1.5-4,2.4-6
				c0.5-1.1,1.1-2.3,1.7-3.4c0.5-1,1-2.1,1.6-3.1c0.8-1.3,1.7-2.6,2.6-3.8c-0.5,0.4-0.9,0.7-1.3,1.1c-3.2,3-5.2,7.1-6.7,11.1
				c-1.5,3.8-2.5,7.9-2.6,12C33.8,54.6,34.3,54.2,34.8,53.8z"/>
			<path class="st1" d="M28.3,60.6c1.8-1.7,3.6-3.2,5.4-4.9c1.2-1.1,2.9-1.8,4-3.1c-1,0.2-1.8,0.7-2.7,1c-0.2,0.3-0.5,0.5-0.8,0.8
				c-0.7,0.6-1.5,1.2-2.2,1.9c-0.3,0.3-0.7,0.7-1,1c-1.6,1.4-3.3,2.7-4.8,4.2c-1.7,1.6-3.3,3.2-4.7,5C23.8,64.6,26.1,62.6,28.3,60.6
				z"/>
			<path class="st2" d="M41.8,53.2c0.7-1.2,1.3-2.4,1.8-3.7c0.5-1.4,0.9-2.9,0.6-4.4c-0.2-1-0.4-2.1-1.2-2.9c-1.4-1.3-3.8-1-5.4-0.1
				c-0.8,0.5-1.6,1.2-2.2,2c-1.2,3.5-2,7.1-2.1,10.8c0.7-0.5,1.4-1.1,2-1.6c0,0,0,0,0,0c-0.3,0.4-0.7,0.8-1.1,1.1
				c-0.7,0.6-1.4,1.2-2,1.8c1-0.1,1.9,0,2.9,0.1c1,0.1,1.9,0.3,2.8,0.8c0.9,0.4,1.6,1,2.5,1.4c0-0.8-0.6-1.4-1.1-1.9
				c-0.1-0.1-0.1-0.3,0-0.4C40.4,55.5,41.1,54.3,41.8,53.2z"/>
			<path class="st2" d="M62.1,61.1C62,61.1,62,60.9,62,60.8c0.4-1,1-1.9,1.5-2.8c0.5-0.9,0.9-1.9,1.3-2.9c0.4-1,0.7-2.1,0.7-3.2
				c0-1-0.1-1.9-0.4-2.8c-0.5-1.6-1.4-3.2-2.7-4.3c-1.3-1.1-2.9-1.6-4.5-1.5c-2.9,0.1-5.3,2.2-6.9,4.5c-0.8,1.2-1.5,2.4-2,3.8
				c-0.5,1.2-0.9,2.5-1,3.8c-0.1,2.7,1.1,6,3.9,6.7c0.2,0,0.3,0.2,0.2,0.4c-0.3,0.5-0.5,0.9-0.8,1.4c0.5-0.3,1-0.6,1.6-0.9
				c2-0.9,4.3-1.2,6.5-1.1c1.9,0.1,3.8,0.4,5.5,1.4C64.6,62.2,63.1,61.7,62.1,61.1z"/>
			<path class="st2" d="M78.6,54.5c0.1-3.4-0.5-6.8-1.4-10c-0.5-1.8-1.3-3.7-2.3-5.2c-0.1-0.1-0.1-0.3-0.2-0.4
				c-0.4-0.8-0.9-1.6-1.3-2.5c0.5,0.4,1,0.9,1.4,1.5c0.5,0,0.9,0,1.4,0.1c-0.7-1.5-2-2.6-3.6-3.1c-0.3-0.1,0-0.4,0.1-0.5
				c0.6-0.4,1.3-0.7,2-0.9c-1.9-1-4.1-1.3-6.1-0.7c-0.2,0-0.3,0-0.3-0.2c0.2-1,0.4-1.9,0.6-2.9c-0.7,0.4-1.2,1-1.7,1.7
				c-0.1,0.1-0.6,0.5-0.7,0.2c-0.2-1.2-1.1-2.2-2.2-2.6c0.4,0.7,0.6,1.4,0.6,2.2c1,0.6,1.9,1.3,2.8,2c0.1,0.1,0.1,0.2,0,0.3
				c-0.8-0.4-1.5-0.9-2.3-1.4c-1-0.5-2-1-3-1.5c-0.7-0.3-1.4-0.6-2.1-0.9c-0.7-0.2-1.4-0.4-2.1-0.6c-1-0.2-2.1-0.3-3.2-0.4
				c0,0,0.1-0.1,0.2-0.1c1.3-0.2,2.6-0.2,3.9,0.1c0.4-0.2,0.9-0.5,1.3-0.7c-1.2-0.3-2.4-0.3-3.6,0c-0.2,0.1-0.4-0.2-0.2-0.4
				c0.4-0.4,0.8-0.8,1.2-1.2c-2.2-0.6-4.5,0.2-6.5,1.2c-0.1,0-0.3,0.1-0.4,0c-0.3-0.6-0.9-1.1-1.5-1.3c0.2,0.4,0.4,0.9,0.3,1.4
				c0,0.2-0.4,0.6-0.7,0.4c-0.3-0.3-0.7-0.5-1.1-0.6c0,0,0,0-0.1,0c-0.1-0.1-0.2-0.1-0.3-0.1c-0.7-0.2-1.5-0.1-2.1,0.4
				c0.6,0.1,1.2,0.3,1.7,0.5c0,0.1,0.1,0.1,0.2,0.2c0,0,0,0,0,0c0,0,0,0,0,0c0,0,0,0,0,0c0,0,0,0,0,0c0,0,0,0,0.1,0.1c0,0,0,0,0,0
				c0,0,0,0,0,0c0,0,0,0,0,0c0,0.1,0.1,0.2,0.1,0.3c0,0.1,0,0.1,0,0.2c0,0,0,0,0,0.1c0,0.1,0,0.3,0,0.4c0,0,0,0-0.1,0
				c-0.2-0.2-0.4-0.4-0.7-0.6c-1.6,0.8-3,1.8-4.3,3c-0.8,0.8-1.6,1.6-2.3,2.6c2.5-1.9,5.5-3.3,8.5-4.4c0.3-0.1,0.5,0.3,0.2,0.5
				c-1.3,0.8-2.4,1.9-3.4,3.1c1.5-1,3.1-1.7,4.8-2.1c3.9-1,8.1-0.3,11.4,2c1.7,1.2,3.1,2.7,3.9,4.6c0.5,1.1,0.7,2.2,0.9,3.4
				c0.4-1.1,0.7-2.3,1.1-3.4c0.1-0.2,0.4-0.3,0.5-0.1c0.6,1,0.9,2.1,1.2,3.2c0.7,3.8-0.4,7.6-1.3,11.2c0.4-0.6,0.7-1.2,0.9-1.9
				c0.3-0.9,0.7-1.9,1.3-2.7c0.1-0.2,0.4-0.1,0.5,0.1c0.3,1.1,0.3,2.2,0.2,3.3c-0.2,2.1-0.8,4.1-1.4,6.1c-0.7,2.5-1.7,4.9-2.9,7.2
				c-0.1,0.2-0.4,0.2-0.5,0c-0.2-0.9-0.4-1.7-0.7-2.6c-0.1,1.3-0.3,2.5-0.7,3.8c-1,3-2.9,5.6-5.3,7.6c-1.4,2.1-3.1,3.8-5,5.5
				c-1,0.9-2,1.6-3,2.4c-0.7,0.6-1.4,1.2-2.3,1.5c-4.6,3.2-10.5,5-16,3.1c-0.9-0.3-2.4-0.8-2.7-1.9c-0.4-1.3,1.2-1.9,2.1-2.4
				c0.7-0.4,1.3-1,1.9-1.6c0.5-0.6,0.9-1.3,1.4-1.9c0.4-0.7,0.9-1.4,1-2.2c0-0.3-0.1-0.6-0.4-0.6c-0.5-0.1-1,0-1.5,0.1
				c-1.2,0.2-2.6,0.1-3.8,0c-1.5-0.1-2.9-0.4-4.4-0.6c-1.5-0.3-2.9-0.6-4.4-1c-1.1-0.3-2.1-0.6-3-1.3c-0.2-0.2-0.4-0.4-0.6-0.7
				c-0.2,0.5-0.3,1-0.4,1.5c-0.3,1.4-0.3,2.9,0.1,4.4c0.6,2.8,2.2,5.4,4,7.6c0.9,1.2,2,2.3,3.3,3c1.4,0.9,3,1.3,4.7,1.7
				c2.9,0.6,5.9,0.6,8.8,0.2c5.9-0.8,11.4-3.4,16.1-7.1c1.2-0.9,2.4-1.9,3.5-3c1.3-1,2.5-2.1,3.6-3.3c0.8-0.9,1.5-1.8,2.3-2.6
				c0.5-0.5,1-1,1.5-1.4C65,74,64,75.1,63.1,76.2c2.8-0.6,5.4-1.9,7.6-3.7c2.4-2,4.1-4.6,5.4-7.5C77.5,61.7,78.5,58.2,78.6,54.5z"/>
			<path class="st0" d="M43,42.7c-0.2-0.1-0.4-0.3-0.6-0.4c-0.5-0.3-1-0.5-1.5-0.5c-0.3,0-0.6,0.1-0.9,0.1c-1,0.4-1.8,1.1-2.4,1.9
				c-0.9,1.1-1.7,2.4-2.3,3.7c-0.6,1.3-1,2.7-1.1,4.2c-0.1,1.1-0.1,2.4,0.7,3.2c0.8,0.9,2.2,0.9,3.3,0.5c1.1-0.4,2-1.3,2.7-2.2
				c0.8-1.2,1.6-2.4,2.1-3.8c0.6-1.3,0.9-2.8,0.9-4.3C43.8,44.2,43.5,43.4,43,42.7z"/>
			<path class="st6" d="M42.7,48.8c-0.4,0.8-0.8,1.7-1.3,2.4c-0.6,1-1.3,2.1-2.2,3c-0.9,0.7-2.1,1.2-3.2,0.6c-2-1-1.2-4.2-0.7-5.9
				c0.4-1.2,0.9-2.3,1.5-3.3c0.6-1,1.3-2.1,2.3-2.8c1-0.8,2.6-0.9,3.5,0.2c0,0,0,0.1,0.1,0.1c0.6,0.7,0.9,1.8,0.8,2.7
				C43.4,46.9,43.1,47.9,42.7,48.8z"/>
			<path class="st0" d="M53,62.5c-0.1,0-0.1,0.1-0.1,0.1c1.7-0.7,3.5-1.3,5.4-1.3c2-0.1,3.8,0.3,5.7,0.6c0,0,0-0.1-0.1-0.1
				c-1-0.4-2.1-0.7-3.2-0.8c1.4-1.3,2.4-3.3,3-5.1c0.6-2,0.9-4.1,0.6-6.2c-0.3-1.7-0.9-3.6-2.6-4.5c0,0-0.1,0-0.1,0
				c-1.2-0.9-2.7-1.2-4.1-0.9c-1.6,0.3-3,1.3-4.1,2.6c-1.2,1.4-2,3.1-2.5,4.9c-0.5,1.7-0.7,3.6-0.3,5.4c0.5,2,1.8,3.9,3.6,4.8
				C53.8,62.2,53.4,62.3,53,62.5z"/>
			<path class="st6" d="M51.7,58.2c-1.3-3.1-0.4-6.6,1.1-9.4c0.9-1.6,2.1-3,3.8-3.6c1.7-0.7,3.7-0.2,5,1.1c0.1,0,0.1,0.1,0.2,0
				c2.1,1.8,2.1,5.5,1.7,7.9c-0.3,1.6-0.8,3.1-1.6,4.5c-0.5,0.9-1.1,1.7-1.9,2.3c-1.7-0.1-3.4,0.1-5,0.7
				C53.6,61,52.3,59.7,51.7,58.2z"/>
			<g>
				<path class="st7" d="M34.1,78c-0.2-0.6-1.1-0.5-1.6-0.5c-1.5,0-3,0-4.4-0.1c-1.6-0.1-3.2-0.3-4.8-0.8c-1.4-0.4-2.7-1.1-4.1-1.7
					c-0.3-0.1-1.4-0.8-1.5-0.1c0,0.1,0,0.1,0,0.2c0,0,0,0,0,0c0.9,2.1,2.5,3.9,4.5,5c2.3,1.2,4.9,1.4,7.4,1c1.2-0.2,2.5-0.7,3.5-1.4
					c0.1-0.1,0.2-0.1,0.3-0.2C33.8,79,34.3,78.5,34.1,78z"/>
			</g>
			<g>
				<path class="st7" d="M34,77.8c-0.9,0.6-1.9,1.2-3,1.5c-2.8,0.9-6,0.6-8.7-0.4c-1.3-0.5-2.3-1.2-3.3-2.1
					c-0.4-0.4-0.8-0.8-1.1-1.2c0.9,1.9,2.4,3.6,4.3,4.6c2.3,1.2,4.9,1.4,7.4,1c1.2-0.2,2.5-0.7,3.5-1.4c0.1-0.1,0.2-0.1,0.3-0.2
					c0.3-0.4,0.8-1,0.6-1.5C34.1,77.9,34.1,77.8,34,77.8z"/>
			</g>
			<g>
				<path class="st0" d="M104.5,55.6c-1.2-2.4-3-4.5-5.2-6c-2.7-1.9-5.9-2.9-9.1-3.6c-5.6-1.3-12.1-1.9-16.5-6
					c0.3,0.6,0.5,1.1,0.8,1.6c0.7,1.1,1.2,2.3,1.8,3.4c0.1,0.3-0.2,0.6-0.4,0.4c-0.1-0.1-0.2-0.2-0.4-0.4c0,0.8,0.2,1.7,0.5,2.5
					c0.3,1.1,0.5,2.3,0.8,3.4c0,0.2-0.2,0.5-0.4,0.3c-1.1-0.8-1.8-2.1-2.3-3.3c0.2,0.8,0.5,1.5,0.7,2.3c1,2.9,2.1,5.8,4.1,8.2
					c1.9,2.2,4.5,3.7,7.4,4.4c3.1,0.7,6.3,0.2,9.4-0.3c1.6-0.3,3.2-0.6,4.8-0.7c0.9-0.1,1.8,0,2.5,0.6c0.6,0.5,1.1,1.2,1.5,1.8
					c0.1,0.2,0.5,0.4,0.5,0c0-0.5-0.1-1.1-0.3-1.5c0.4,0.5,0.6,0.9,0.9,1.5c0.1,0.1,0.5,0.5,0.5,0.2
					C106.5,61.4,105.9,58.3,104.5,55.6z"/>
				<path class="st1" d="M75.1,49.3c-1-3-1.8-6-1.9-9.2c2.1,2.2,4.9,3.5,7.8,4.5c6,1.9,12.8,1.9,18.2,5.6c4.2,2.9,6.7,7.9,6.6,13
					c-0.4-0.7-1-1.3-1.6-1.9c-0.3-0.3-0.4,0.2-0.3,0.4c0.3,0.5,0.5,0.9,0.6,1.4c-0.8-1-1.7-1.9-3-2c-0.9-0.1-1.8,0-2.6,0.2
					c-0.9,0.1-1.7,0.3-2.6,0.4c-3.1,0.5-6.3,1.2-9.4,0.6c-2.9-0.6-5.7-2.1-7.6-4.4C77,55.4,76,52.2,75.1,49.3z"/>
				<path class="st2" d="M96.3,48.6c0.9,0.4,1.9,0.9,2.7,1.5c1.3,0.9,2.4,1.9,3.3,3.1C100.6,51.4,98.6,49.8,96.3,48.6z"/>
				<path class="st2" d="M80.9,44.5c0.8,0.3,1.6,0.5,2.4,0.7c-0.3,0.1-0.7,0.2-1,0.3c-0.3,0.1-0.4,0.5-0.1,0.7
					c1.3,1.1,3,1.8,4.6,2.3c1.6,0.5,3.2,0.8,4.8,1.2c1.5,0.4,3,1,4.3,1.7c2.4,1.3,4.2,3.3,5.4,5.7c-1.8-0.9-3.6-1.8-5.6-2.1
					c-0.4,0-0.7,0.4-0.4,0.7c0.7,0.7,1.6,1.2,2.4,1.9c-2-0.6-3.9-1.3-6-1.4c-0.4,0-0.5,0.5-0.2,0.7c0.8,0.8,1.7,1.5,2.6,2.1
					c-2.4,0.4-4.9,0.3-7.3-0.4c-1.3-0.4-2.7-0.9-3.8-1.8c-0.9-0.8-1.6-1.9-2.8-2.4c-0.2-0.1-0.5,0-0.5,0.2c-0.4,1.1-0.1,2.3,0.2,3.3
					c0.2,0.6,0.4,1.1,0.7,1.7c-0.6-0.5-1.2-1-1.7-1.6c-2.1-2.4-3.1-5.6-4-8.6c-1-3-1.8-6-1.9-9.2C75.3,42.3,78,43.6,80.9,44.5z"/>
				<path class="st0" d="M75.8,44.1c1.5,1.6,3.1,3.1,5.2,3.9c2.1,0.8,4.4,1,6.6,1.4c3.9,0.7,7.9,1.6,11.2,4c1,0.9,1.8,2,2.5,3.1
					c-1.8-2.5-4.7-4.1-7.6-5.1c-2.1-0.7-4.3-1.1-6.5-1.5c-2.1-0.4-4.2-0.6-6.2-1.4c-0.4-0.1-0.7-0.3-1.1-0.5
					c0.3,3.3,1.8,6.5,4.2,8.9c-0.6-0.5-1.2-1-1.7-1.6c-0.6-0.7-1-1.4-1.5-2.2c-0.8-1.7-1.4-3.5-1.6-5.4c0,0,0,0,0,0
					c-1.4-0.9-2.6-2-3.8-3.2C75.2,44.3,75.4,43.8,75.8,44.1z"/>
			</g>
			<g>
				<defs>
					<path id="SVGID_1_" d="M42.7,48.8c-0.4,0.8-0.8,1.7-1.3,2.4c-0.6,1-1.3,2.1-2.2,3c-0.9,0.7-2.1,1.2-3.2,0.6
						c-2-1-1.2-4.2-0.7-5.9c0.4-1.2,0.9-2.3,1.5-3.3c0.6-1,1.3-2.1,2.3-2.8c1-0.8,2.6-0.9,3.5,0.2c0,0,0,0.1,0.1,0.1
						c0.6,0.7,0.9,1.8,0.8,2.7C43.4,46.9,43.1,47.9,42.7,48.8z"/>
				</defs>
				<clipPath id="SVGID_00000129897434222102389430000008562801467608182431_">
					<use xlink:href="#SVGID_1_"  style="overflow:visible;"/>
				</clipPath>
				<g style="clip-path:url(#SVGID_00000129897434222102389430000008562801467608182431_);">
					<g>
						<path class="st9" d="M44.8,54c-0.6,2.6-3.2,4.3-5.8,3.7c-2.6-0.6-4.3-3.2-3.7-5.8c0.6-2.6,3.2-4.3,5.8-3.7
							C43.7,48.8,45.3,51.3,44.8,54z"/>
						<path class="st10" d="M43.1,53.6c-0.4,1.7-2.1,2.8-3.8,2.4c-1.7-0.4-2.8-2.1-2.4-3.8c0.4-1.7,2.1-2.8,3.8-2.4
							C42.4,50.2,43.5,51.9,43.1,53.6z"/>
					</g>
					<path class="st6" d="M39.4,51.1c-0.1,0.6-0.8,1.1-1.4,0.9c-0.6-0.1-1.1-0.8-0.9-1.4c0.1-0.6,0.8-1.1,1.4-0.9
						C39.2,49.8,39.6,50.4,39.4,51.1z"/>
				</g>
			</g>
			<g>
				<defs>
					<path id="SVGID_00000049195645630498028760000000062410794777284028_" d="M51.7,58.2c-1.3-3.1-0.4-6.6,1.1-9.4
						c0.9-1.6,2.1-3,3.8-3.6c1.7-0.7,3.7-0.2,5,1.1c0.1,0,0.1,0.1,0.2,0c2.1,1.8,2.1,5.5,1.7,7.9c-0.3,1.6-0.8,3.1-1.6,4.5
						c-0.5,0.9-1.1,1.7-1.9,2.3c-1.7-0.1-3.4,0.1-5,0.7C53.6,61,52.3,59.7,51.7,58.2z"/>
				</defs>
				<clipPath id="SVGID_00000177481730204309477360000005284660889912492708_">
					<use xlink:href="#SVGID_00000049195645630498028760000000062410794777284028_"  style="overflow:visible;"/>
				</clipPath>
				<g style="clip-path:url(#SVGID_00000177481730204309477360000005284660889912492708_);">
					<g>
						<path class="st9" d="M63.5,58.1c-0.6,2.6-3.2,4.3-5.8,3.7c-2.6-0.6-4.3-3.2-3.7-5.8c0.6-2.6,3.2-4.3,5.8-3.7
							C62.4,52.9,64.1,55.5,63.5,58.1z"/>
						<path class="st10" d="M61.9,57.7c-0.4,1.7-2.1,2.8-3.8,2.4c-1.7-0.4-2.8-2.1-2.4-3.8c0.4-1.7,2.1-2.8,3.8-2.4
							C61.2,54.3,62.3,56,61.9,57.7z"/>
					</g>
					<path class="st6" d="M58.2,55.2c-0.1,0.6-0.8,1.1-1.4,0.9c-0.6-0.1-1.1-0.8-0.9-1.4c0.1-0.6,0.8-1.1,1.4-0.9
						C57.9,53.9,58.3,54.5,58.2,55.2z"/>
				</g>
			</g>
		</g>
		<g>
			<path class="st0" d="M49.7,54.2c1,0,2.1-0.3,3.1-0.3c2.2-0.1,4.4-0.3,6.6,0.1c1.1,0.2,2.1,0.5,3.2,0.7c0.7,0.1,1.5,0.3,2.3,0.3
				c-0.2-0.1-0.4-0.1-0.6-0.2c0.4-1.8,0.7-3.7,0.3-5.6c-0.4-1.9-1.5-3.6-3.1-4.6c-0.9-0.5-1.8-0.8-2.8-0.7c-1,0.1-2,0.3-2.9,0.7
				c-1.7,0.8-2.8,2.3-3.6,3.9c-0.9,1.7-1.5,3.5-1.7,5.4c-0.2,0-0.3,0.1-0.5,0.1C49.8,54.2,49.7,54.2,49.7,54.2z"/>
			<path class="st6" d="M52.2,49.4c0.7-1.6,1.7-3.3,3.2-4.2c0.8-0.5,1.7-0.7,2.6-0.9c1-0.2,2-0.1,2.9,0.5c1.6,0.9,2.7,2.5,3.1,4.2
				c0.5,1.8,0.3,3.7-0.1,5.6c-2.2-0.6-4.4-1-6.6-1.1c-2.1-0.2-4.3-0.1-6.3,0.4C51.1,52.3,51.6,50.8,52.2,49.4z"/>
			<path class="st2" d="M64,49c-0.4-1.7-1.5-3.3-3.1-4.2C60,44.3,59,44.1,58,44.3c-0.4,0.1-0.9,0.2-1.3,0.3c0.2,0,0.5,0,0.7,0
				c1.5,0.2,2.8,0.9,3.8,2.1c0.2,0.2-0.1,0.5-0.4,0.4c-1.1-0.6-2.3-0.4-3.4,0c-1.7,0.7-3,2.1-3.9,3.7c-0.5,0.8-0.9,1.7-1.2,2.6
				c1.6-0.2,3.2-0.2,4.8-0.1c2.2,0.2,4.5,0.5,6.6,1.1C64.3,52.7,64.5,50.8,64,49z"/>
			<path class="st0" d="M43.7,43.4c-0.2-0.7-0.6-1.2-1.3-1.5c-0.6-0.3-1.4-0.3-2-0.1c-1.4,0.4-2.6,1.4-3.5,2.5
				c-0.9,1.1-1.6,2.3-2.2,3.6c-0.3-0.1-0.6-0.1-0.9-0.1c0,0-0.1,0-0.1,0c1,0.3,1.9,0.7,2.8,1.1c0.9,0.3,1.7,0.8,2.5,1.3
				c0.8,0.5,1.6,1.1,2.4,1.7c0.2,0.1,0.5,0.2,0.7,0.3c0-0.1,0-0.1,0-0.2c-0.1-0.1-0.2-0.2-0.3-0.2c0.8-1,1.3-2.2,1.8-3.4
				C44.2,46.7,44.2,45,43.7,43.4z"/>
			<path class="st6" d="M43.2,48.1c-0.3,0.8-0.6,1.6-1,2.4c-0.2,0.4-0.4,0.7-0.6,1.1c-1.8-1.7-4-3-6.4-3.6c0.4-1,1-2,1.6-2.9
				c0.8-1.1,1.8-2.1,3.1-2.6c0.6-0.3,1.3-0.4,1.9-0.2c0.7,0.2,1.2,0.8,1.4,1.5C43.6,45.1,43.7,46.6,43.2,48.1z"/>
			<path class="st2" d="M43.2,43.7c-0.2-0.7-0.7-1.3-1.4-1.5c-0.3-0.1-0.7-0.1-1-0.1c0.9,0.2,1.6,0.7,2,1.9c0.1,0.3-0.2,0.5-0.5,0.3
				c-0.6-0.5-1.3-0.7-2-0.4c-1.4,0.5-2.4,1.9-3.2,3.1c-0.3,0.4-0.6,0.9-0.8,1.4c1.9,0.7,3.7,1.8,5.2,3.2c0.2-0.3,0.4-0.7,0.6-1.1
				c0.4-0.8,0.8-1.6,1-2.4C43.7,46.6,43.6,45.1,43.2,43.7z"/>
			<path class="st12" d="M44.7,41.2c0.1-2.9-2.1-7.3-5-3.8c-0.2,0.1-0.4,0.3-0.2,0.4c2.6,1.5,4.2,4.5,4.9,7.2
				C45.5,45.5,44.7,41.9,44.7,41.2z"/>
			<path class="st4" d="M43,40.5c-0.8-1.2-1.7-2.3-2.9-3c3.3-3.5,4.3,3.1,4.3,5.5C44,42.1,43.5,41.3,43,40.5z"/>
			<path class="st12" d="M65.1,42.5c-1-9-12.2-1.7-13.8,3.1c3.7-0.8,9.4-5.2,13.3-2.8C64.8,42.9,65.1,42.7,65.1,42.5z"/>
			<path class="st4" d="M62,41.7c-3.5,0.7-7,2-10.2,3.5c2-4,11-10.6,12.6-3.1C63.7,41.6,62.9,41.6,62,41.7z"/>
			<path class="st2" d="M50.8,45c-0.1-0.7-0.1-1.5-0.1-2.2c0-0.1-0.2-0.1-0.3-0.1c-0.1,0-0.2,0.1-0.2,0.3c0,0.7,0,1.5,0.1,2.2
				C50.4,45.5,50.9,45.2,50.8,45z"/>
			<path class="st2" d="M47.1,41.3c-0.1,0-0.3,0.1-0.3,0.3c-0.2,0.6-0.4,1.2-0.5,1.7c-0.1,0.3-0.2,0.6-0.3,0.9
				c-0.1,0.3-0.2,0.5-0.2,0.8c0,0.2,0.5,0,0.5-0.2c0-0.3,0.1-0.5,0.2-0.8c0.1-0.3,0.2-0.5,0.3-0.8c0.2-0.6,0.3-1.1,0.5-1.7
				C47.3,41.3,47.2,41.2,47.1,41.3z"/>
		</g>
		<g>
			<g>
				<path class="st0" d="M44.5,83.2c0.2-1.6,0.3-3.2,0.2-4.8c0.1-0.8,0-1.6-0.1-2.4c-0.1-0.3-0.5,0-0.5,0.2c-1,2.9-3,5.4-5.6,7
					c-2.7,1.7-6.3,2.7-9.4,1.7c-1.7-0.6-3.2-1.9-3.5-3.7c-0.1-0.1-0.1-0.1-0.2-0.1c-0.1,0-0.3,0.2-0.3,0.3c0.2,1.6,1.4,3,2.9,3.7
					c0,0,0.1,0,0.1,0c-0.9,0.2-1.9,0-2.8-0.2c-1-0.3-2-0.6-2.9-1.1c0.6,0.6,1.4,1.1,2.3,1.3c1,0.3,2,0.5,3.1,0.5
					c0.9,0,1.8,0.2,2.8,0.3c2.4,0.4,4.7,1.2,7.1,1.5c0.9,0.1,1.8,0.2,2.7,0.1c0.8,0,1.5-0.2,2.2-0.6C44,86.1,44.4,84.6,44.5,83.2z"
					/>
				<path class="st6" d="M42.7,86.6c-0.6,0.5-1.5,0.6-2.3,0.6c-0.9,0-1.7-0.1-2.6-0.2c-1.7-0.3-3.3-0.7-5-1.1
					c-0.3-0.1-0.7-0.2-1-0.2c0.6,0,1.3-0.1,1.9-0.2c3.2-0.6,6.1-2.3,8.3-4.7c0.9-1.1,1.7-2.3,2.3-3.6c0,0.3,0,0.6,0.1,1
					c0,0-0.1,0.1-0.1,0.1c0,2.3-1,4.6-2.7,6.1c-0.3,0.2,0.1,0.4,0.3,0.2c1.2-1,2-2.3,2.5-3.8c0,0.5-0.1,1.1-0.1,1.6
					C44,83.8,43.9,85.6,42.7,86.6z"/>
			</g>
			<path class="st0" d="M46.7,75.9l-0.4-1.1c-0.1-0.3-0.2-0.7-0.4-1c-0.5-0.6-1.2-0.3-1.7,0.1c-1.1,0.8-1.8,2-2.4,3.2
				c-0.1,0.1,0,0.2,0.1,0.2c0.1,0,0.3-0.1,0.3-0.2c0.5-1,1.1-2,1.9-2.8c0.2-0.2,0.4-0.4,0.7-0.4c0.3-0.1,0.6,0.2,0.7,0.5
				c0.2,0.3,0.2,0.6,0.4,0.9c0.1,0.3,0.2,0.7,0.4,1C46.3,76.4,46.8,76.1,46.7,75.9z"/>
		</g>
	</g>
</g>
</svg>
